{"glyphs":{"0":{"ha":951,"x_min":60,"x_max":894,"o":"m 475 -12 q 703 59 608 -12 q 847 247 799 131 q 894 494 894 364 q 847 743 894 626 q 703 932 799 860 q 475 1004 608 1004 q 248 932 342 1004 q 107 743 154 860 q 60 494 60 626 q 107 247 60 364 q 248 59 154 131 q 475 -12 342 -12 m 428 938 q 608 857 528 938 q 733 653 689 776 q 778 406 778 529 q 715 165 778 260 q 528 69 653 69 q 350 150 429 69 q 226 356 271 231 q 182 606 182 481 q 244 844 182 750 q 428 938 306 938 z "},"1":{"ha":442,"x_min":18,"x_max":317,"o":"m 18 819 l 42 776 l 188 861 l 188 -26 l 317 22 l 317 986 l 18 819 z "},"2":{"ha":778,"x_min":32,"x_max":749,"o":"m 371 996 q 588 917 507 996 q 668 700 668 838 q 603 474 668 578 q 453 295 539 369 q 246 136 367 221 l 251 131 q 346 144 303 144 q 457 129 390 144 q 596 113 538 113 q 726 200 669 113 l 749 185 l 635 -12 l 558 -3 q 369 20 442 13 q 226 28 296 28 q 136 16 179 28 q 72 -12 93 4 l 47 10 q 151 108 81 46 q 338 289 263 210 q 469 464 414 368 q 525 654 525 560 q 495 771 525 718 q 414 853 465 824 q 299 883 363 883 q 165 849 228 883 q 58 760 103 815 l 32 783 q 184 933 89 869 q 371 996 279 996 z "},"3":{"ha":729,"x_min":39,"x_max":681,"o":"m 283 544 q 487 678 399 600 q 575 849 575 757 q 525 965 575 924 q 397 1007 475 1007 q 208 957 304 1007 q 39 813 111 907 l 64 790 q 178 870 106 836 q 311 904 250 904 q 386 881 357 904 q 415 807 415 857 q 100 490 415 635 l 115 454 q 212 488 176 479 q 293 497 247 497 q 463 440 396 497 q 531 289 531 383 q 457 115 531 190 q 275 -6 383 39 q 64 -64 167 -51 l 71 -99 q 343 -57 201 -99 q 583 73 485 -15 q 681 293 681 161 q 642 428 681 369 q 539 518 604 486 q 394 550 474 550 q 286 536 343 550 l 283 544 z "},"4":{"ha":778,"x_min":7,"x_max":739,"o":"m 613 990 l 488 943 l 488 403 l 183 403 q 326 600 256 475 q 419 825 396 725 l 344 871 q 215 546 297 696 q 7 263 132 396 l 488 263 l 488 -26 l 613 22 l 613 263 l 688 263 l 739 403 l 613 403 l 613 990 z "},"5":{"ha":714,"x_min":50,"x_max":658,"o":"m 658 297 q 613 465 658 397 q 491 566 567 533 q 325 599 415 599 q 219 589 264 599 q 132 561 175 579 l 200 838 l 610 838 l 658 988 l 179 988 l 51 485 q 235 526 129 526 q 372 502 308 526 q 474 430 435 478 q 514 313 514 382 q 372 60 514 157 q 50 -79 229 -37 l 64 -119 q 319 -62 179 -111 q 558 80 458 -12 q 658 297 658 172 z "},"6":{"ha":867,"x_min":64,"x_max":828,"o":"m 828 329 q 792 484 828 413 q 688 599 757 556 q 524 643 619 643 q 246 560 364 643 q 344 732 274 650 q 510 872 415 814 q 701 956 604 931 l 690 993 q 392 881 538 971 q 156 656 247 792 q 64 367 64 519 q 110 164 64 256 q 242 19 157 72 q 438 -35 326 -35 q 633 15 543 -35 q 776 149 724 65 q 828 329 828 232 m 221 485 q 315 547 261 525 q 425 568 368 568 q 573 527 514 568 q 659 420 632 486 q 686 281 686 354 q 630 106 686 174 q 465 38 574 38 q 268 126 333 38 q 203 346 203 215 q 221 485 203 397 z "},"7":{"ha":696,"x_min":7,"x_max":724,"o":"m 724 975 q 522 715 611 861 q 383 413 433 568 q 332 125 332 258 q 339 49 332 64 l 158 -26 q 270 419 158 188 q 539 836 382 651 l 261 836 q 136 813 183 836 q 46 738 89 790 l 7 765 l 138 971 l 604 971 q 659 979 633 971 q 701 1000 685 988 l 724 975 z "},"8":{"ha":818,"x_min":57,"x_max":760,"o":"m 760 258 q 718 388 760 336 q 601 482 676 439 l 467 557 q 693 799 693 654 q 628 950 693 897 q 453 1003 564 1003 q 296 974 369 1003 q 176 888 222 946 q 131 746 131 829 q 172 622 131 678 q 279 528 213 565 q 121 406 185 481 q 57 239 57 331 q 103 88 57 153 q 228 -10 150 24 q 397 -44 306 -44 q 665 37 571 -44 q 760 258 760 118 m 578 778 q 529 663 578 714 q 410 581 481 613 q 288 676 339 618 q 238 800 238 735 q 286 904 238 865 q 408 943 335 943 q 532 896 486 943 q 578 778 578 849 m 524 400 q 626 313 596 363 q 656 206 656 264 q 630 118 656 158 q 554 53 604 78 q 435 29 504 29 q 267 94 331 29 q 204 265 204 158 q 241 393 204 331 q 339 497 278 456 l 524 400 z "},"9":{"ha":867,"x_min":43,"x_max":807,"o":"m 43 632 q 77 475 43 547 q 179 359 111 403 q 344 315 247 315 q 624 401 506 315 q 522 227 593 310 q 356 87 450 144 q 164 6 261 29 l 178 -35 q 476 78 331 -12 q 715 304 622 168 q 807 593 807 440 q 760 796 807 704 q 627 940 713 888 q 429 993 542 993 q 235 943 324 993 q 94 810 146 893 q 43 632 43 728 m 647 475 q 554 413 607 435 q 442 392 501 392 q 294 433 353 392 q 209 540 236 475 q 182 679 182 606 q 238 852 182 785 q 403 919 294 919 q 598 832 533 919 q 663 613 663 744 q 647 475 663 547 z "}," ":{"ha":299,"x_min":0,"x_max":0,"o":""},"A":{"ha":957,"x_min":51,"x_max":965,"o":"m 728 949 q 450 842 574 928 q 256 627 326 757 q 186 346 186 497 q 235 146 186 219 q 363 72 283 72 q 512 180 440 72 q 627 462 583 288 q 671 825 671 636 l 801 876 l 801 149 q 818 86 801 110 q 864 63 835 63 q 910 77 886 63 q 946 113 933 92 l 965 94 q 906 22 946 51 q 814 -7 865 -7 q 710 38 750 -7 q 671 164 671 82 l 671 429 l 664 429 q 325 -15 564 -15 q 126 72 201 -15 q 51 310 51 158 q 143 636 51 483 q 390 885 235 789 q 728 989 546 981 l 728 949 z "},"Á":{"ha":957,"x_min":51,"x_max":965,"o":"m 728 949 q 450 842 574 928 q 256 627 326 757 q 186 346 186 497 q 235 146 186 219 q 363 72 283 72 q 512 180 440 72 q 627 462 583 288 q 671 825 671 636 l 801 876 l 801 149 q 818 86 801 110 q 864 63 835 63 q 910 77 886 63 q 946 113 933 92 l 965 94 q 906 22 946 51 q 814 -7 865 -7 q 710 38 750 -7 q 671 164 671 82 l 671 429 l 664 429 q 325 -15 564 -15 q 126 72 201 -15 q 51 310 51 158 q 143 636 51 483 q 390 885 235 789 q 728 989 546 981 l 728 949 m 597 1303 l 428 1108 l 449 1081 l 682 1201 l 597 1303 z "},"Ă":{"ha":957,"x_min":51,"x_max":965,"o":"m 728 949 q 450 842 574 928 q 256 627 326 757 q 186 346 186 497 q 235 146 186 219 q 363 72 283 72 q 512 180 440 72 q 627 462 583 288 q 671 825 671 636 l 801 876 l 801 149 q 818 86 801 110 q 864 63 835 63 q 910 77 886 63 q 946 113 933 92 l 965 94 q 906 22 946 51 q 814 -7 865 -7 q 710 38 750 -7 q 671 164 671 82 l 671 429 l 664 429 q 325 -15 564 -15 q 126 72 201 -15 q 51 310 51 158 q 143 636 51 483 q 390 885 235 789 q 728 989 546 981 l 728 949 m 458 1332 q 416 1274 432 1310 q 400 1201 400 1238 q 438 1110 400 1144 q 533 1076 475 1076 q 652 1118 606 1076 q 699 1229 699 1160 q 657 1335 699 1292 l 565 1276 q 595 1235 583 1260 q 607 1185 607 1210 q 590 1138 607 1157 q 547 1118 574 1118 q 484 1160 507 1118 q 461 1246 461 1201 q 481 1314 461 1286 l 458 1332 z "},"Â":{"ha":957,"x_min":51,"x_max":965,"o":"m 728 949 q 450 842 574 928 q 256 627 326 757 q 186 346 186 497 q 235 146 186 219 q 363 72 283 72 q 512 180 440 72 q 627 462 583 288 q 671 825 671 636 l 801 876 l 801 149 q 818 86 801 110 q 864 63 835 63 q 910 77 886 63 q 946 113 933 92 l 965 94 q 906 22 946 51 q 814 -7 865 -7 q 710 38 750 -7 q 671 164 671 82 l 671 429 l 664 429 q 325 -15 564 -15 q 126 72 201 -15 q 51 310 51 158 q 143 636 51 483 q 390 885 235 789 q 728 989 546 981 l 728 949 m 736 1156 l 664 1075 l 510 1215 l 404 1094 l 365 1124 l 544 1329 l 736 1156 z "},"Ä":{"ha":957,"x_min":51,"x_max":965,"o":"m 728 949 q 450 842 574 928 q 256 627 326 757 q 186 346 186 497 q 235 146 186 219 q 363 72 283 72 q 512 180 440 72 q 627 462 583 288 q 671 825 671 636 l 801 876 l 801 149 q 818 86 801 110 q 864 63 835 63 q 910 77 886 63 q 946 113 933 92 l 965 94 q 906 22 946 51 q 814 -7 865 -7 q 710 38 750 -7 q 671 164 671 82 l 671 429 l 664 429 q 325 -15 564 -15 q 126 72 201 -15 q 51 310 51 158 q 143 636 51 483 q 390 885 235 789 q 728 989 546 981 l 728 949 m 426 1299 q 484 1274 460 1299 q 508 1217 508 1250 q 485 1159 508 1182 q 426 1136 461 1136 q 369 1160 393 1136 q 346 1217 346 1183 q 370 1274 346 1249 q 426 1299 394 1299 m 672 1299 q 729 1274 706 1299 q 753 1217 753 1250 q 730 1159 753 1182 q 672 1136 707 1136 q 615 1160 639 1136 q 590 1217 590 1183 q 615 1274 590 1249 q 672 1299 639 1299 z "},"À":{"ha":957,"x_min":51,"x_max":965,"o":"m 728 949 q 450 842 574 928 q 256 627 326 757 q 186 346 186 497 q 235 146 186 219 q 363 72 283 72 q 512 180 440 72 q 627 462 583 288 q 671 825 671 636 l 801 876 l 801 149 q 818 86 801 110 q 864 63 835 63 q 910 77 886 63 q 946 113 933 92 l 965 94 q 906 22 946 51 q 814 -7 865 -7 q 710 38 750 -7 q 671 164 671 82 l 671 429 l 664 429 q 325 -15 564 -15 q 126 72 201 -15 q 51 310 51 158 q 143 636 51 483 q 390 885 235 789 q 728 989 546 981 l 728 949 m 663 1108 l 492 1303 l 408 1201 l 642 1079 l 663 1108 z "},"Ā":{"ha":957,"x_min":51,"x_max":965,"o":"m 728 949 q 450 842 574 928 q 256 627 326 757 q 186 346 186 497 q 235 146 186 219 q 363 72 283 72 q 512 180 440 72 q 627 462 583 288 q 671 825 671 636 l 801 876 l 801 149 q 818 86 801 110 q 864 63 835 63 q 910 77 886 63 q 946 113 933 92 l 965 94 q 906 22 946 51 q 814 -7 865 -7 q 710 38 750 -7 q 671 164 671 82 l 671 429 l 664 429 q 325 -15 564 -15 q 126 72 201 -15 q 51 310 51 158 q 143 636 51 483 q 390 885 235 789 q 728 989 546 981 l 728 949 m 724 1263 l 431 1263 l 381 1167 l 675 1167 l 724 1263 z "},"Ą":{"ha":957,"x_min":51,"x_max":965,"o":"m 853 -193 q 921 -157 893 -193 l 944 -178 q 886 -247 919 -221 q 814 -274 853 -274 q 738 -247 772 -274 q 704 -169 704 -221 q 799 -6 704 -82 q 706 42 742 -1 q 671 164 671 86 l 671 429 l 664 429 q 325 -15 564 -15 q 126 72 201 -15 q 51 310 51 158 q 143 636 51 483 q 390 885 235 789 q 728 989 546 981 l 728 949 q 450 842 574 928 q 256 627 326 757 q 186 346 186 497 q 235 146 186 219 q 363 72 283 72 q 512 180 440 72 q 627 462 583 288 q 671 825 671 636 l 801 876 l 801 149 q 818 86 801 110 q 864 63 835 63 q 910 77 886 63 q 946 113 933 92 l 965 94 q 919 33 950 60 q 849 -3 888 7 q 805 -63 821 -31 q 789 -126 789 -96 q 805 -175 789 -157 q 853 -193 821 -193 z "},"Å":{"ha":957,"x_min":51,"x_max":965,"o":"m 728 949 q 450 842 574 928 q 256 627 326 757 q 186 346 186 497 q 235 146 186 219 q 363 72 283 72 q 512 180 440 72 q 627 462 583 288 q 671 825 671 636 l 801 876 l 801 149 q 818 86 801 110 q 864 63 835 63 q 910 77 886 63 q 946 113 933 92 l 965 94 q 906 22 946 51 q 814 -7 865 -7 q 710 38 750 -7 q 671 164 671 82 l 671 429 l 664 429 q 325 -15 564 -15 q 126 72 201 -15 q 51 310 51 158 q 143 636 51 483 q 390 885 235 789 q 728 989 546 981 l 728 949 m 549 1382 q 647 1343 607 1382 q 688 1247 688 1304 q 647 1151 688 1192 q 549 1111 606 1111 q 453 1151 493 1111 q 413 1247 413 1192 q 453 1342 413 1303 q 549 1382 493 1382 m 526 1336 q 499 1320 508 1336 q 489 1281 489 1304 q 516 1196 489 1232 q 572 1160 543 1160 q 600 1176 590 1160 q 610 1215 610 1193 q 597 1275 610 1247 q 564 1319 583 1303 q 526 1336 544 1336 z "},"Ã":{"ha":957,"x_min":51,"x_max":965,"o":"m 728 949 q 450 842 574 928 q 256 627 326 757 q 186 346 186 497 q 235 146 186 219 q 363 72 283 72 q 512 180 440 72 q 627 462 583 288 q 671 825 671 636 l 801 876 l 801 149 q 818 86 801 110 q 864 63 835 63 q 910 77 886 63 q 946 113 933 92 l 965 94 q 906 22 946 51 q 814 -7 865 -7 q 710 38 750 -7 q 671 164 671 82 l 671 429 l 664 429 q 325 -15 564 -15 q 126 72 201 -15 q 51 310 51 158 q 143 636 51 483 q 390 885 235 789 q 728 989 546 981 l 728 949 m 679 1314 q 710 1232 710 1278 q 684 1158 710 1188 q 613 1129 658 1129 q 567 1142 585 1129 q 526 1178 549 1154 q 483 1207 500 1207 q 457 1167 457 1207 q 467 1132 457 1150 l 425 1118 q 394 1201 394 1156 q 420 1274 394 1244 q 492 1304 446 1304 q 536 1292 518 1304 q 575 1257 554 1279 q 599 1233 590 1240 q 619 1226 608 1226 q 646 1267 646 1226 q 638 1301 646 1286 l 679 1314 z "},"Æ":{"ha":1247,"x_min":56,"x_max":1243,"o":"m 1243 250 q 1063 60 1176 136 q 817 -15 949 -15 q 642 37 714 -15 q 551 178 569 89 q 307 -15 457 -15 q 174 28 231 -15 q 86 145 117 71 q 56 310 56 219 q 144 628 56 478 q 413 874 232 779 q 853 968 593 968 q 1004 996 932 996 q 1182 911 1106 996 l 1096 842 q 1017 908 1057 883 q 928 932 978 932 q 839 913 882 932 q 769 858 796 893 q 742 778 742 822 q 769 696 742 733 q 842 637 797 658 q 932 615 886 615 q 996 625 979 615 l 1008 586 q 789 470 883 549 q 694 281 694 392 q 744 145 694 199 q 879 92 793 92 q 1015 119 949 92 q 1133 189 1082 146 q 1211 278 1185 232 l 1243 250 m 550 285 q 638 437 568 369 q 801 547 708 504 q 694 614 733 567 q 654 725 654 661 q 764 921 654 844 q 436 806 564 893 q 251 598 308 718 q 193 346 193 478 q 228 156 193 239 q 344 72 264 72 q 550 285 474 72 z "},"Ǽ":{"ha":1247,"x_min":56,"x_max":1243,"o":"m 1243 250 q 1063 60 1176 136 q 817 -15 949 -15 q 642 37 714 -15 q 551 178 569 89 q 307 -15 457 -15 q 174 28 231 -15 q 86 145 117 71 q 56 310 56 219 q 144 628 56 478 q 413 874 232 779 q 853 968 593 968 q 1004 996 932 996 q 1182 911 1106 996 l 1096 842 q 1017 908 1057 883 q 928 932 978 932 q 839 913 882 932 q 769 858 796 893 q 742 778 742 822 q 769 696 742 733 q 842 637 797 658 q 932 615 886 615 q 996 625 979 615 l 1008 586 q 789 470 883 549 q 694 281 694 392 q 744 145 694 199 q 879 92 793 92 q 1015 119 949 92 q 1133 189 1082 146 q 1211 278 1185 232 l 1243 250 m 550 285 q 638 437 568 369 q 801 547 708 504 q 694 614 733 567 q 654 725 654 661 q 764 921 654 844 q 436 806 564 893 q 251 598 308 718 q 193 346 193 478 q 228 156 193 239 q 344 72 264 72 q 550 285 474 72 m 740 1303 l 571 1108 l 592 1081 l 825 1201 l 740 1303 z "},"B":{"ha":897,"x_min":107,"x_max":850,"o":"m 436 525 q 567 540 515 540 q 767 483 685 540 q 850 313 850 425 q 753 91 850 183 q 518 -49 657 -1 q 253 -99 379 -96 l 244 -65 q 563 63 424 -28 q 701 303 701 154 q 668 400 701 357 q 583 467 635 443 q 474 490 531 490 q 283 456 376 490 l 272 493 q 488 628 393 544 q 582 813 582 711 q 549 897 582 865 q 460 929 517 929 q 328 869 378 929 q 257 726 278 808 q 236 568 236 643 l 236 36 l 107 -11 l 107 492 q 166 756 107 640 q 331 935 225 871 q 571 1000 436 1000 q 683 965 638 1000 q 729 867 729 931 q 637 683 729 775 q 433 531 544 590 l 436 525 z "},"C":{"ha":853,"x_min":56,"x_max":813,"o":"m 615 1014 q 758 964 704 1014 q 813 833 813 914 q 778 701 813 769 q 689 582 744 633 q 572 513 633 531 l 558 538 q 655 622 618 564 q 692 746 692 681 q 642 880 692 829 q 508 931 592 931 q 351 871 425 931 q 233 712 278 811 q 189 500 189 613 q 226 285 189 378 q 333 141 264 192 q 490 90 401 90 q 621 119 557 90 q 738 201 685 147 l 768 171 q 419 -15 621 -15 q 225 40 307 -15 q 99 191 143 96 q 56 403 56 286 q 131 713 56 574 q 336 933 207 853 q 615 1014 465 1014 z "},"Ć":{"ha":853,"x_min":56,"x_max":813,"o":"m 615 1014 q 758 964 704 1014 q 813 833 813 914 q 778 701 813 769 q 689 582 744 633 q 572 513 633 531 l 558 538 q 655 622 618 564 q 692 746 692 681 q 642 880 692 829 q 508 931 592 931 q 351 871 425 931 q 233 712 278 811 q 189 500 189 613 q 226 285 189 378 q 333 141 264 192 q 490 90 401 90 q 621 119 557 90 q 738 201 685 147 l 768 171 q 419 -15 621 -15 q 225 40 307 -15 q 99 191 143 96 q 56 403 56 286 q 131 713 56 574 q 336 933 207 853 q 615 1014 465 1014 m 571 1303 l 401 1108 l 422 1081 l 656 1201 l 571 1303 z "},"Č":{"ha":853,"x_min":56,"x_max":813,"o":"m 615 1014 q 758 964 704 1014 q 813 833 813 914 q 778 701 813 769 q 689 582 744 633 q 572 513 633 531 l 558 538 q 655 622 618 564 q 692 746 692 681 q 642 880 692 829 q 508 931 592 931 q 351 871 425 931 q 233 712 278 811 q 189 500 189 613 q 226 285 189 378 q 333 141 264 192 q 490 90 401 90 q 621 119 557 90 q 738 201 685 147 l 768 171 q 419 -15 621 -15 q 225 40 307 -15 q 99 191 143 96 q 56 403 56 286 q 131 713 56 574 q 336 933 207 853 q 615 1014 465 1014 m 565 1203 l 672 1324 l 710 1293 l 531 1089 l 339 1261 l 413 1342 l 565 1203 z "},"Ç":{"ha":853,"x_min":56,"x_max":813,"o":"m 490 90 q 621 119 557 90 q 738 201 685 147 l 768 171 q 419 -15 621 -15 q 400 -14 406 -15 l 368 -68 q 438 -50 404 -50 q 513 -80 482 -50 q 543 -161 543 -110 q 506 -244 543 -212 q 422 -275 469 -275 q 359 -258 389 -275 q 313 -208 329 -240 l 339 -193 q 392 -222 360 -222 q 431 -205 415 -222 q 446 -161 446 -187 q 428 -115 446 -133 q 386 -97 411 -97 q 343 -111 364 -97 l 319 -92 l 367 -11 q 199 58 269 1 q 92 205 129 115 q 56 403 56 294 q 131 713 56 574 q 336 933 207 853 q 615 1014 465 1014 q 758 964 704 1014 q 813 833 813 914 q 778 701 813 769 q 689 582 744 633 q 572 513 633 531 l 558 538 q 655 622 618 564 q 692 746 692 681 q 642 880 692 829 q 508 931 592 931 q 351 871 425 931 q 233 712 278 811 q 189 500 189 613 q 226 285 189 378 q 333 141 264 192 q 490 90 401 90 z "},"Ĉ":{"ha":853,"x_min":56,"x_max":813,"o":"m 615 1014 q 758 964 704 1014 q 813 833 813 914 q 778 701 813 769 q 689 582 744 633 q 572 513 633 531 l 558 538 q 655 622 618 564 q 692 746 692 681 q 642 880 692 829 q 508 931 592 931 q 351 871 425 931 q 233 712 278 811 q 189 500 189 613 q 226 285 189 378 q 333 141 264 192 q 490 90 401 90 q 621 119 557 90 q 738 201 685 147 l 768 171 q 419 -15 621 -15 q 225 40 307 -15 q 99 191 143 96 q 56 403 56 286 q 131 713 56 574 q 336 933 207 853 q 615 1014 465 1014 m 711 1156 l 639 1075 l 485 1215 l 379 1094 l 340 1124 l 519 1329 l 711 1156 z "},"Ċ":{"ha":853,"x_min":56,"x_max":813,"o":"m 615 1014 q 758 964 704 1014 q 813 833 813 914 q 778 701 813 769 q 689 582 744 633 q 572 513 633 531 l 558 538 q 655 622 618 564 q 692 746 692 681 q 642 880 692 829 q 508 931 592 931 q 351 871 425 931 q 233 712 278 811 q 189 500 189 613 q 226 285 189 378 q 333 141 264 192 q 490 90 401 90 q 621 119 557 90 q 738 201 685 147 l 768 171 q 419 -15 621 -15 q 225 40 307 -15 q 99 191 143 96 q 56 403 56 286 q 131 713 56 574 q 336 933 207 853 q 615 1014 465 1014 m 525 1301 q 583 1276 558 1301 q 607 1217 607 1251 q 582 1159 607 1183 q 525 1135 557 1135 q 466 1159 490 1135 q 442 1217 442 1183 q 466 1277 442 1253 q 525 1301 490 1301 z "},"D":{"ha":938,"x_min":42,"x_max":882,"o":"m 540 990 q 794 897 707 990 q 882 643 882 803 q 772 319 882 467 q 487 82 661 171 q 131 -18 313 -7 l 131 751 l 260 799 l 260 57 q 504 174 397 93 q 672 371 611 256 q 732 619 732 486 q 706 761 732 696 q 623 868 679 826 q 481 910 567 910 q 263 867 371 910 q 69 751 156 824 l 42 781 q 275 929 131 868 q 540 990 419 990 z "},"Ð":{"ha":938,"x_min":-14,"x_max":882,"o":"m 540 990 q 794 897 707 990 q 882 643 882 803 q 772 319 882 467 q 487 82 661 171 q 131 -18 313 -7 l 131 450 l -14 450 l 15 519 l 131 519 l 131 751 l 260 799 l 260 519 l 490 519 l 461 450 l 260 450 l 260 57 q 504 174 397 93 q 672 371 611 256 q 732 619 732 486 q 706 761 732 696 q 623 868 679 826 q 481 910 567 910 q 263 867 371 910 q 69 751 156 824 l 42 781 q 275 929 131 868 q 540 990 419 990 z "},"Ď":{"ha":938,"x_min":42,"x_max":882,"o":"m 540 990 q 794 897 707 990 q 882 643 882 803 q 772 319 882 467 q 487 82 661 171 q 131 -18 313 -7 l 131 751 l 260 799 l 260 57 q 504 174 397 93 q 672 371 611 256 q 732 619 732 486 q 706 761 732 696 q 623 868 679 826 q 481 910 567 910 q 263 867 371 910 q 69 751 156 824 l 42 781 q 275 929 131 868 q 540 990 419 990 m 508 1203 l 615 1324 l 653 1293 l 474 1089 l 282 1261 l 356 1342 l 508 1203 z "},"Đ":{"ha":938,"x_min":-14,"x_max":882,"o":"m 540 990 q 794 897 707 990 q 882 643 882 803 q 772 319 882 467 q 487 82 661 171 q 131 -18 313 -7 l 131 450 l -14 450 l 15 519 l 131 519 l 131 751 l 260 799 l 260 519 l 490 519 l 461 450 l 260 450 l 260 57 q 504 174 397 93 q 672 371 611 256 q 732 619 732 486 q 706 761 732 696 q 623 868 679 826 q 481 910 567 910 q 263 867 371 910 q 69 751 156 824 l 42 781 q 275 929 131 868 q 540 990 419 990 z "},"E":{"ha":750,"x_min":42,"x_max":742,"o":"m 501 996 q 678 911 604 996 l 593 842 q 515 908 554 883 q 425 932 475 932 q 336 913 379 932 q 266 858 293 893 q 239 778 239 822 q 267 696 239 733 q 338 637 294 658 q 429 615 382 615 q 465 617 447 615 q 493 625 482 618 l 506 586 q 289 472 385 550 q 193 282 193 393 q 242 145 193 199 q 375 92 290 92 q 512 119 444 92 q 631 189 579 146 q 710 278 682 232 l 742 250 q 560 60 674 136 q 314 -15 446 -15 q 174 16 236 -15 q 77 103 113 47 q 42 233 42 160 q 118 415 42 333 q 304 544 194 496 q 193 610 235 561 q 151 725 151 660 q 206 874 151 813 q 342 965 261 935 q 501 996 424 996 z "},"É":{"ha":750,"x_min":42,"x_max":742,"o":"m 501 996 q 678 911 604 996 l 593 842 q 515 908 554 883 q 425 932 475 932 q 336 913 379 932 q 266 858 293 893 q 239 778 239 822 q 267 696 239 733 q 338 637 294 658 q 429 615 382 615 q 465 617 447 615 q 493 625 482 618 l 506 586 q 289 472 385 550 q 193 282 193 393 q 242 145 193 199 q 375 92 290 92 q 512 119 444 92 q 631 189 579 146 q 710 278 682 232 l 742 250 q 560 60 674 136 q 314 -15 446 -15 q 174 16 236 -15 q 77 103 113 47 q 42 233 42 160 q 118 415 42 333 q 304 544 194 496 q 193 610 235 561 q 151 725 151 660 q 206 874 151 813 q 342 965 261 935 q 501 996 424 996 m 494 1303 l 325 1108 l 346 1081 l 579 1201 l 494 1303 z "},"Ĕ":{"ha":750,"x_min":42,"x_max":742,"o":"m 501 996 q 678 911 604 996 l 593 842 q 515 908 554 883 q 425 932 475 932 q 336 913 379 932 q 266 858 293 893 q 239 778 239 822 q 267 696 239 733 q 338 637 294 658 q 429 615 382 615 q 465 617 447 615 q 493 625 482 618 l 506 586 q 289 472 385 550 q 193 282 193 393 q 242 145 193 199 q 375 92 290 92 q 512 119 444 92 q 631 189 579 146 q 710 278 682 232 l 742 250 q 560 60 674 136 q 314 -15 446 -15 q 174 16 236 -15 q 77 103 113 47 q 42 233 42 160 q 118 415 42 333 q 304 544 194 496 q 193 610 235 561 q 151 725 151 660 q 206 874 151 813 q 342 965 261 935 q 501 996 424 996 m 357 1332 q 315 1274 331 1310 q 299 1201 299 1238 q 336 1110 299 1144 q 432 1076 374 1076 q 551 1118 504 1076 q 597 1229 597 1160 q 556 1335 597 1292 l 464 1276 q 494 1235 482 1260 q 506 1185 506 1210 q 489 1138 506 1157 q 446 1118 472 1118 q 383 1160 406 1118 q 360 1246 360 1201 q 379 1314 360 1286 l 357 1332 z "},"Ě":{"ha":750,"x_min":42,"x_max":742,"o":"m 501 996 q 678 911 604 996 l 593 842 q 515 908 554 883 q 425 932 475 932 q 336 913 379 932 q 266 858 293 893 q 239 778 239 822 q 267 696 239 733 q 338 637 294 658 q 429 615 382 615 q 465 617 447 615 q 493 625 482 618 l 506 586 q 289 472 385 550 q 193 282 193 393 q 242 145 193 199 q 375 92 290 92 q 512 119 444 92 q 631 189 579 146 q 710 278 682 232 l 742 250 q 560 60 674 136 q 314 -15 446 -15 q 174 16 236 -15 q 77 103 113 47 q 42 233 42 160 q 118 415 42 333 q 304 544 194 496 q 193 610 235 561 q 151 725 151 660 q 206 874 151 813 q 342 965 261 935 q 501 996 424 996 m 489 1203 l 596 1324 l 633 1293 l 454 1089 l 263 1261 l 336 1342 l 489 1203 z "},"Ê":{"ha":750,"x_min":42,"x_max":742,"o":"m 501 996 q 678 911 604 996 l 593 842 q 515 908 554 883 q 425 932 475 932 q 336 913 379 932 q 266 858 293 893 q 239 778 239 822 q 267 696 239 733 q 338 637 294 658 q 429 615 382 615 q 465 617 447 615 q 493 625 482 618 l 506 586 q 289 472 385 550 q 193 282 193 393 q 242 145 193 199 q 375 92 290 92 q 512 119 444 92 q 631 189 579 146 q 710 278 682 232 l 742 250 q 560 60 674 136 q 314 -15 446 -15 q 174 16 236 -15 q 77 103 113 47 q 42 233 42 160 q 118 415 42 333 q 304 544 194 496 q 193 610 235 561 q 151 725 151 660 q 206 874 151 813 q 342 965 261 935 q 501 996 424 996 m 635 1156 l 563 1075 l 408 1215 l 303 1094 l 264 1124 l 443 1329 l 635 1156 z "},"Ë":{"ha":750,"x_min":42,"x_max":742,"o":"m 501 996 q 678 911 604 996 l 593 842 q 515 908 554 883 q 425 932 475 932 q 336 913 379 932 q 266 858 293 893 q 239 778 239 822 q 267 696 239 733 q 338 637 294 658 q 429 615 382 615 q 465 617 447 615 q 493 625 482 618 l 506 586 q 289 472 385 550 q 193 282 193 393 q 242 145 193 199 q 375 92 290 92 q 512 119 444 92 q 631 189 579 146 q 710 278 682 232 l 742 250 q 560 60 674 136 q 314 -15 446 -15 q 174 16 236 -15 q 77 103 113 47 q 42 233 42 160 q 118 415 42 333 q 304 544 194 496 q 193 610 235 561 q 151 725 151 660 q 206 874 151 813 q 342 965 261 935 q 501 996 424 996 m 325 1299 q 383 1274 358 1299 q 407 1217 407 1250 q 383 1159 407 1182 q 325 1136 360 1136 q 268 1160 292 1136 q 244 1217 244 1183 q 269 1274 244 1249 q 325 1299 293 1299 m 571 1299 q 628 1274 604 1299 q 651 1217 651 1250 q 628 1159 651 1182 q 571 1136 606 1136 q 513 1160 538 1136 q 489 1217 489 1183 q 513 1274 489 1249 q 571 1299 538 1299 z "},"Ė":{"ha":750,"x_min":42,"x_max":742,"o":"m 501 996 q 678 911 604 996 l 593 842 q 515 908 554 883 q 425 932 475 932 q 336 913 379 932 q 266 858 293 893 q 239 778 239 822 q 267 696 239 733 q 338 637 294 658 q 429 615 382 615 q 465 617 447 615 q 493 625 482 618 l 506 586 q 289 472 385 550 q 193 282 193 393 q 242 145 193 199 q 375 92 290 92 q 512 119 444 92 q 631 189 579 146 q 710 278 682 232 l 742 250 q 560 60 674 136 q 314 -15 446 -15 q 174 16 236 -15 q 77 103 113 47 q 42 233 42 160 q 118 415 42 333 q 304 544 194 496 q 193 610 235 561 q 151 725 151 660 q 206 874 151 813 q 342 965 261 935 q 501 996 424 996 m 449 1301 q 506 1276 482 1301 q 531 1217 531 1251 q 506 1159 531 1183 q 449 1135 481 1135 q 390 1159 414 1135 q 365 1217 365 1183 q 390 1277 365 1253 q 449 1301 414 1301 z "},"È":{"ha":750,"x_min":42,"x_max":742,"o":"m 501 996 q 678 911 604 996 l 593 842 q 515 908 554 883 q 425 932 475 932 q 336 913 379 932 q 266 858 293 893 q 239 778 239 822 q 267 696 239 733 q 338 637 294 658 q 429 615 382 615 q 465 617 447 615 q 493 625 482 618 l 506 586 q 289 472 385 550 q 193 282 193 393 q 242 145 193 199 q 375 92 290 92 q 512 119 444 92 q 631 189 579 146 q 710 278 682 232 l 742 250 q 560 60 674 136 q 314 -15 446 -15 q 174 16 236 -15 q 77 103 113 47 q 42 233 42 160 q 118 415 42 333 q 304 544 194 496 q 193 610 235 561 q 151 725 151 660 q 206 874 151 813 q 342 965 261 935 q 501 996 424 996 m 560 1108 l 389 1303 l 306 1201 l 539 1079 l 560 1108 z "},"Ē":{"ha":750,"x_min":42,"x_max":742,"o":"m 501 996 q 678 911 604 996 l 593 842 q 515 908 554 883 q 425 932 475 932 q 336 913 379 932 q 266 858 293 893 q 239 778 239 822 q 267 696 239 733 q 338 637 294 658 q 429 615 382 615 q 465 617 447 615 q 493 625 482 618 l 506 586 q 289 472 385 550 q 193 282 193 393 q 242 145 193 199 q 375 92 290 92 q 512 119 444 92 q 631 189 579 146 q 710 278 682 232 l 742 250 q 560 60 674 136 q 314 -15 446 -15 q 174 16 236 -15 q 77 103 113 47 q 42 233 42 160 q 118 415 42 333 q 304 544 194 496 q 193 610 235 561 q 151 725 151 660 q 206 874 151 813 q 342 965 261 935 q 501 996 424 996 m 621 1263 l 328 1263 l 278 1167 l 572 1167 l 621 1263 z "},"Ę":{"ha":750,"x_min":42,"x_max":742,"o":"m 742 250 q 586 79 682 151 q 379 -10 490 7 q 340 -67 354 -36 q 326 -126 326 -99 q 342 -175 326 -157 q 390 -193 358 -193 q 458 -157 431 -193 l 482 -178 q 424 -247 457 -221 q 351 -274 390 -274 q 276 -247 310 -274 q 242 -169 242 -221 q 325 -15 242 -89 l 314 -15 q 174 16 236 -15 q 77 103 113 47 q 42 233 42 160 q 118 415 42 333 q 304 544 194 496 q 193 610 235 561 q 151 725 151 660 q 206 874 151 813 q 342 965 261 935 q 501 996 424 996 q 678 911 604 996 l 593 842 q 515 908 554 883 q 425 932 475 932 q 336 913 379 932 q 266 858 293 893 q 239 778 239 822 q 267 696 239 733 q 338 637 294 658 q 429 615 382 615 q 465 617 447 615 q 493 625 482 618 l 506 586 q 289 472 385 550 q 193 282 193 393 q 242 145 193 199 q 375 92 290 92 q 512 119 444 92 q 631 189 579 146 q 710 278 682 232 l 742 250 z "},"F":{"ha":819,"x_min":-12,"x_max":854,"o":"m 433 850 q 392 785 404 815 q 379 713 379 754 l 379 511 l 490 511 q 608 527 564 511 q 689 571 651 543 l 710 550 q 461 431 629 431 l 379 431 l 379 160 q 346 -8 379 54 q 239 -128 313 -71 l 210 -99 q 240 -38 231 -76 q 250 36 250 0 l 250 431 l 108 431 l 171 511 l 250 511 l 250 632 q 285 748 250 692 q 369 850 319 804 l 178 851 q 86 833 125 851 q 11 774 47 814 l -12 794 q 132 925 56 879 q 289 971 208 971 l 526 971 q 713 981 626 971 q 840 1026 800 992 l 854 1011 q 732 897 810 944 q 585 850 654 850 l 433 850 z "},"G":{"ha":917,"x_min":57,"x_max":815,"o":"m 606 1008 q 742 972 689 1008 q 794 878 794 936 q 749 764 794 821 q 633 668 704 707 q 486 624 561 629 l 472 650 q 597 722 546 668 q 649 832 649 775 q 617 905 649 878 q 532 932 585 932 q 363 870 438 932 q 245 700 288 808 q 203 456 203 592 q 258 194 203 289 q 425 100 314 100 q 548 146 489 100 q 644 265 607 192 q 683 415 682 338 l 815 461 l 815 -99 l 693 -149 l 693 276 l 685 276 q 616 124 664 189 q 503 24 568 58 q 369 -11 439 -11 q 204 34 275 -11 q 95 163 133 79 q 57 357 57 246 q 129 688 57 539 q 327 923 201 838 q 606 1008 453 1008 z "},"Ğ":{"ha":917,"x_min":57,"x_max":815,"o":"m 606 1008 q 742 972 689 1008 q 794 878 794 936 q 749 764 794 821 q 633 668 704 707 q 486 624 561 629 l 472 650 q 597 722 546 668 q 649 832 649 775 q 617 905 649 878 q 532 932 585 932 q 363 870 438 932 q 245 700 288 808 q 203 456 203 592 q 258 194 203 289 q 425 100 314 100 q 548 146 489 100 q 644 265 607 192 q 683 415 682 338 l 815 461 l 815 -99 l 693 -149 l 693 276 l 685 276 q 616 124 664 189 q 503 24 568 58 q 369 -11 439 -11 q 204 34 275 -11 q 95 163 133 79 q 57 357 57 246 q 129 688 57 539 q 327 923 201 838 q 606 1008 453 1008 m 425 1332 q 383 1274 399 1310 q 367 1201 367 1238 q 404 1110 367 1144 q 500 1076 442 1076 q 619 1118 572 1076 q 665 1229 665 1160 q 624 1335 665 1292 l 532 1276 q 562 1235 550 1260 q 574 1185 574 1210 q 557 1138 574 1157 q 514 1118 540 1118 q 451 1160 474 1118 q 428 1246 428 1201 q 447 1314 428 1286 l 425 1332 z "},"Ĝ":{"ha":917,"x_min":57,"x_max":815,"o":"m 606 1008 q 742 972 689 1008 q 794 878 794 936 q 749 764 794 821 q 633 668 704 707 q 486 624 561 629 l 472 650 q 597 722 546 668 q 649 832 649 775 q 617 905 649 878 q 532 932 585 932 q 363 870 438 932 q 245 700 288 808 q 203 456 203 592 q 258 194 203 289 q 425 100 314 100 q 548 146 489 100 q 644 265 607 192 q 683 415 682 338 l 815 461 l 815 -99 l 693 -149 l 693 276 l 685 276 q 616 124 664 189 q 503 24 568 58 q 369 -11 439 -11 q 204 34 275 -11 q 95 163 133 79 q 57 357 57 246 q 129 688 57 539 q 327 923 201 838 q 606 1008 453 1008 m 703 1156 l 631 1075 l 476 1215 l 371 1094 l 332 1124 l 511 1329 l 703 1156 z "},"Ģ":{"ha":917,"x_min":57,"x_max":815,"o":"m 606 1008 q 742 972 689 1008 q 794 878 794 936 q 749 764 794 821 q 633 668 704 707 q 486 624 561 629 l 472 650 q 597 722 546 668 q 649 832 649 775 q 617 905 649 878 q 532 932 585 932 q 363 870 438 932 q 245 700 288 808 q 203 456 203 592 q 258 194 203 289 q 425 100 314 100 q 548 146 489 100 q 644 265 607 192 q 683 415 682 338 l 815 461 l 815 -99 l 693 -149 l 693 276 l 685 276 q 616 124 664 189 q 503 24 568 58 q 369 -11 439 -11 q 204 34 275 -11 q 95 163 133 79 q 57 357 57 246 q 129 688 57 539 q 327 923 201 838 q 606 1008 453 1008 m 526 -137 q 503 -82 526 -106 q 449 -58 481 -58 q 395 -82 418 -58 q 372 -137 372 -106 q 388 -185 372 -164 q 431 -214 404 -207 q 393 -276 421 -249 l 418 -297 q 496 -228 465 -269 q 526 -137 526 -186 z "},"Ġ":{"ha":917,"x_min":57,"x_max":815,"o":"m 606 1008 q 742 972 689 1008 q 794 878 794 936 q 749 764 794 821 q 633 668 704 707 q 486 624 561 629 l 472 650 q 597 722 546 668 q 649 832 649 775 q 617 905 649 878 q 532 932 585 932 q 363 870 438 932 q 245 700 288 808 q 203 456 203 592 q 258 194 203 289 q 425 100 314 100 q 548 146 489 100 q 644 265 607 192 q 683 415 682 338 l 815 461 l 815 -99 l 693 -149 l 693 276 l 685 276 q 616 124 664 189 q 503 24 568 58 q 369 -11 439 -11 q 204 34 275 -11 q 95 163 133 79 q 57 357 57 246 q 129 688 57 539 q 327 923 201 838 q 606 1008 453 1008 m 518 1301 q 576 1276 551 1301 q 600 1217 600 1251 q 575 1159 600 1183 q 518 1135 550 1135 q 459 1159 483 1135 q 435 1217 435 1183 q 459 1277 435 1253 q 518 1301 483 1301 z "},"H":{"ha":914,"x_min":26,"x_max":789,"o":"m 660 964 l 660 467 l 269 467 l 269 1014 l 139 964 l 139 467 l 67 467 l 26 385 l 139 385 l 139 -19 l 269 28 l 269 385 l 660 385 l 660 -19 l 789 28 l 789 1014 l 660 964 z "},"Ħ":{"ha":914,"x_min":26,"x_max":865,"o":"m 831 578 l 789 578 l 789 28 l 660 -19 l 660 385 l 269 385 l 269 28 l 139 -19 l 139 385 l 26 385 l 67 467 l 139 467 l 139 578 l 33 578 l 68 654 l 139 654 l 139 964 l 269 1014 l 269 654 l 660 654 l 660 964 l 789 1014 l 789 654 l 865 654 l 831 578 m 660 578 l 269 578 l 269 467 l 660 467 l 660 578 z "},"Ĥ":{"ha":914,"x_min":26,"x_max":789,"o":"m 660 964 l 660 467 l 269 467 l 269 1014 l 139 964 l 139 467 l 67 467 l 26 385 l 139 385 l 139 -19 l 269 28 l 269 385 l 660 385 l 660 -19 l 789 28 l 789 1014 l 660 964 m 674 1156 l 601 1075 l 447 1215 l 342 1094 l 303 1124 l 482 1329 l 674 1156 z "},"I":{"ha":403,"x_min":126,"x_max":256,"o":"m 256 26 l 126 -19 l 126 965 l 256 1014 l 256 26 z "},"Ĳ":{"ha":965,"x_min":126,"x_max":913,"o":"m 256 26 l 126 -19 l 126 965 l 256 1014 l 256 26 m 822 874 q 761 782 779 822 q 743 694 743 742 l 743 154 q 706 -17 743 61 q 591 -142 669 -94 q 394 -189 513 -189 q 280 -169 339 -189 q 171 -115 221 -149 l 288 -21 q 364 -97 318 -65 q 472 -129 410 -129 q 581 -81 549 -129 q 614 35 614 -32 l 614 614 q 653 743 614 679 q 756 850 693 807 l 596 851 q 503 833 542 851 q 428 772 465 814 l 403 794 q 714 971 549 971 l 913 971 l 822 874 z "},"Í":{"ha":403,"x_min":71,"x_max":325,"o":"m 256 26 l 126 -19 l 126 965 l 256 1014 l 256 26 m 240 1303 l 71 1108 l 92 1081 l 325 1201 l 240 1303 z "},"Ĭ":{"ha":403,"x_min":44,"x_max":343,"o":"m 256 26 l 126 -19 l 126 965 l 256 1014 l 256 26 m 103 1332 q 60 1274 76 1310 q 44 1201 44 1238 q 82 1110 44 1144 q 178 1076 119 1076 q 297 1118 250 1076 q 343 1229 343 1160 q 301 1335 343 1292 l 210 1276 q 240 1235 228 1260 q 251 1185 251 1210 q 235 1138 251 1157 q 192 1118 218 1118 q 128 1160 151 1118 q 106 1246 106 1201 q 125 1314 106 1286 l 103 1332 z "},"Î":{"ha":403,"x_min":8,"x_max":379,"o":"m 256 26 l 126 -19 l 126 965 l 256 1014 l 256 26 m 379 1156 l 307 1075 l 153 1215 l 47 1094 l 8 1124 l 188 1329 l 379 1156 z "},"Ï":{"ha":403,"x_min":-10,"x_max":397,"o":"m 256 26 l 126 -19 l 126 965 l 256 1014 l 256 26 m 71 1299 q 128 1274 104 1299 q 153 1217 153 1250 q 129 1159 153 1182 q 71 1136 106 1136 q 14 1160 38 1136 q -10 1217 -10 1183 q 15 1274 -10 1249 q 71 1299 39 1299 m 317 1299 q 374 1274 350 1299 q 397 1217 397 1250 q 374 1159 397 1182 q 317 1136 351 1136 q 259 1160 283 1136 q 235 1217 235 1183 q 259 1274 235 1249 q 317 1299 283 1299 z "},"İ":{"ha":403,"x_min":111,"x_max":276,"o":"m 256 26 l 126 -19 l 126 965 l 256 1014 l 256 26 m 194 1301 q 252 1276 228 1301 q 276 1217 276 1251 q 251 1159 276 1183 q 194 1135 226 1135 q 135 1159 160 1135 q 111 1217 111 1183 q 135 1277 111 1253 q 194 1301 160 1301 z "},"Ì":{"ha":403,"x_min":51,"x_max":306,"o":"m 256 26 l 126 -19 l 126 965 l 256 1014 l 256 26 m 306 1108 l 135 1303 l 51 1201 l 285 1079 l 306 1108 z "},"Ī":{"ha":403,"x_min":24,"x_max":367,"o":"m 256 26 l 126 -19 l 126 965 l 256 1014 l 256 26 m 367 1263 l 74 1263 l 24 1167 l 318 1167 l 367 1263 z "},"Į":{"ha":396,"x_min":85,"x_max":325,"o":"m 325 -157 q 267 -226 301 -200 q 194 -253 233 -253 q 119 -226 153 -253 q 85 -149 85 -200 q 150 -11 85 -76 l 126 -19 l 126 965 l 256 1014 l 256 26 l 229 17 q 185 -43 201 -10 q 169 -106 169 -76 q 186 -156 169 -137 q 235 -174 203 -174 q 301 -136 272 -174 l 325 -157 z "},"Ĩ":{"ha":403,"x_min":38,"x_max":353,"o":"m 256 26 l 126 -19 l 126 965 l 256 1014 l 256 26 m 322 1314 q 353 1232 353 1278 q 327 1158 353 1188 q 256 1129 301 1129 q 210 1142 228 1129 q 169 1178 192 1154 q 126 1207 143 1207 q 100 1167 100 1207 q 110 1132 100 1150 l 68 1118 q 38 1201 38 1156 q 63 1274 38 1244 q 135 1304 89 1304 q 179 1292 161 1304 q 218 1257 197 1279 q 242 1233 233 1240 q 263 1226 251 1226 q 289 1267 289 1226 q 281 1301 289 1286 l 322 1314 z "},"J":{"ha":569,"x_min":-225,"x_max":517,"o":"m 426 874 q 365 782 383 822 q 347 694 347 742 l 347 154 q 310 -17 347 61 q 195 -142 274 -94 q -1 -189 117 -189 q -116 -169 -57 -189 q -225 -115 -175 -149 l -108 -21 q -32 -97 -78 -65 q 76 -129 14 -129 q 185 -81 153 -129 q 218 35 218 -32 l 218 614 q 258 743 218 679 q 360 850 297 807 l 200 851 q 108 833 146 851 q 32 772 69 814 l 7 794 q 318 971 153 971 l 517 971 l 426 874 z "},"Ĵ":{"ha":569,"x_min":-225,"x_max":517,"o":"m 426 874 q 365 782 383 822 q 347 694 347 742 l 347 154 q 310 -17 347 61 q 195 -142 274 -94 q -1 -189 117 -189 q -116 -169 -57 -189 q -225 -115 -175 -149 l -108 -21 q -32 -97 -78 -65 q 76 -129 14 -129 q 185 -81 153 -129 q 218 35 218 -32 l 218 614 q 258 743 218 679 q 360 850 297 807 l 200 851 q 108 833 146 851 q 32 772 69 814 l 7 794 q 318 971 153 971 l 517 971 l 426 874 m 499 1156 l 426 1075 l 272 1215 l 167 1094 l 128 1124 l 307 1329 l 499 1156 z "},"K":{"ha":867,"x_min":125,"x_max":863,"o":"m 863 167 q 765 36 822 83 q 649 -11 708 -11 q 567 8 599 -11 q 510 62 535 26 q 436 181 485 97 l 311 392 l 254 324 l 254 28 l 125 -19 l 125 964 l 254 1014 l 254 425 l 731 989 l 815 982 l 396 492 l 593 161 q 643 94 621 111 q 700 78 665 76 q 773 108 735 78 q 839 183 811 138 l 863 167 z "},"Ķ":{"ha":867,"x_min":125,"x_max":863,"o":"m 863 167 q 765 36 822 83 q 649 -11 708 -11 q 567 8 599 -11 q 510 62 535 26 q 436 181 485 97 l 311 392 l 254 324 l 254 28 l 125 -19 l 125 964 l 254 1014 l 254 425 l 731 989 l 815 982 l 396 492 l 593 161 q 643 94 621 111 q 700 78 665 76 q 773 108 735 78 q 839 183 811 138 l 863 167 m 507 -137 q 484 -82 507 -106 q 429 -58 461 -58 q 376 -82 399 -58 q 353 -137 353 -106 q 369 -185 353 -164 q 411 -214 385 -207 q 374 -276 401 -249 l 399 -297 q 476 -228 446 -269 q 507 -137 507 -186 z "},"L":{"ha":779,"x_min":47,"x_max":753,"o":"m 547 1014 q 669 978 622 1014 q 715 879 715 942 q 672 768 715 824 q 558 674 628 713 q 413 625 488 635 l 400 651 q 525 729 475 675 q 575 843 575 783 q 547 912 575 888 q 471 936 518 936 q 301 858 357 936 q 246 671 246 779 l 246 240 q 233 166 246 197 q 192 101 219 135 l 199 97 q 263 135 232 122 q 333 147 293 147 q 450 138 389 147 q 493 132 458 136 q 568 128 528 128 q 657 153 615 128 q 728 217 699 178 l 753 200 l 650 -15 q 500 11 585 -8 q 362 35 415 28 q 246 43 308 43 q 160 29 206 43 q 79 -11 114 15 l 47 15 q 117 165 117 69 l 117 557 q 171 789 117 685 q 323 953 225 893 q 547 1014 421 1014 z "},"Ĺ":{"ha":779,"x_min":47,"x_max":753,"o":"m 547 1014 q 669 978 622 1014 q 715 879 715 942 q 672 768 715 824 q 558 674 628 713 q 413 625 488 635 l 400 651 q 525 729 475 675 q 575 843 575 783 q 547 912 575 888 q 471 936 518 936 q 301 858 357 936 q 246 671 246 779 l 246 240 q 233 166 246 197 q 192 101 219 135 l 199 97 q 263 135 232 122 q 333 147 293 147 q 450 138 389 147 q 493 132 458 136 q 568 128 528 128 q 657 153 615 128 q 728 217 699 178 l 753 200 l 650 -15 q 500 11 585 -8 q 362 35 415 28 q 246 43 308 43 q 160 29 206 43 q 79 -11 114 15 l 47 15 q 117 165 117 69 l 117 557 q 171 789 117 685 q 323 953 225 893 q 547 1014 421 1014 m 504 1303 l 335 1108 l 356 1081 l 589 1201 l 504 1303 z "},"Ľ":{"ha":779,"x_min":47,"x_max":933,"o":"m 547 1014 q 669 978 622 1014 q 715 879 715 942 q 672 768 715 824 q 558 674 628 713 q 413 625 488 635 l 400 651 q 525 729 475 675 q 575 843 575 783 q 547 912 575 888 q 471 936 518 936 q 301 858 357 936 q 246 671 246 779 l 246 240 q 233 166 246 197 q 192 101 219 135 l 199 97 q 263 135 232 122 q 333 147 293 147 q 450 138 389 147 q 493 132 458 136 q 568 128 528 128 q 657 153 615 128 q 728 217 699 178 l 753 200 l 650 -15 q 500 11 585 -8 q 362 35 415 28 q 246 43 308 43 q 160 29 206 43 q 79 -11 114 15 l 47 15 q 117 165 117 69 l 117 557 q 171 789 117 685 q 323 953 225 893 q 547 1014 421 1014 m 933 1056 q 910 1112 933 1088 q 857 1136 888 1136 q 801 1113 824 1136 q 778 1056 778 1089 q 795 1009 778 1031 q 838 979 813 988 q 825 948 836 965 q 801 918 814 931 l 825 897 q 903 967 874 926 q 933 1056 933 1007 z "},"Ļ":{"ha":779,"x_min":47,"x_max":753,"o":"m 547 1014 q 669 978 622 1014 q 715 879 715 942 q 672 768 715 824 q 558 674 628 713 q 413 625 488 635 l 400 651 q 525 729 475 675 q 575 843 575 783 q 547 912 575 888 q 471 936 518 936 q 301 858 357 936 q 246 671 246 779 l 246 240 q 233 166 246 197 q 192 101 219 135 l 199 97 q 263 135 232 122 q 333 147 293 147 q 450 138 389 147 q 493 132 458 136 q 568 128 528 128 q 657 153 615 128 q 728 217 699 178 l 753 200 l 650 -15 q 500 11 585 -8 q 362 35 415 28 q 246 43 308 43 q 160 29 206 43 q 79 -11 114 15 l 47 15 q 117 165 117 69 l 117 557 q 171 789 117 685 q 323 953 225 893 q 547 1014 421 1014 m 486 -137 q 463 -82 486 -106 q 408 -58 440 -58 q 355 -82 378 -58 q 332 -137 332 -106 q 348 -185 332 -164 q 390 -214 364 -207 q 353 -276 381 -249 l 378 -297 q 456 -228 425 -269 q 486 -137 486 -186 z "},"Ŀ":{"ha":779,"x_min":47,"x_max":753,"o":"m 547 1014 q 669 978 622 1014 q 715 879 715 942 q 672 768 715 824 q 558 674 628 713 q 413 625 488 635 l 400 651 q 525 729 475 675 q 575 843 575 783 q 547 912 575 888 q 471 936 518 936 q 301 858 357 936 q 246 671 246 779 l 246 240 q 233 166 246 197 q 192 101 219 135 l 199 97 q 263 135 232 122 q 333 147 293 147 q 450 138 389 147 q 493 132 458 136 q 568 128 528 128 q 657 153 615 128 q 728 217 699 178 l 753 200 l 650 -15 q 500 11 585 -8 q 362 35 415 28 q 246 43 308 43 q 160 29 206 43 q 79 -11 114 15 l 47 15 q 117 165 117 69 l 117 557 q 171 789 117 685 q 323 953 225 893 q 547 1014 421 1014 m 742 460 q 716 518 742 493 q 657 543 690 543 q 598 519 622 543 q 574 460 574 494 q 598 400 574 424 q 657 376 622 376 q 717 400 692 376 q 742 460 742 424 z "},"Ł":{"ha":779,"x_min":13,"x_max":753,"o":"m 753 200 l 650 -15 q 500 11 585 -8 q 362 35 415 28 q 246 43 308 43 q 160 29 206 43 q 79 -11 114 15 l 47 15 q 117 165 117 69 l 117 343 l 13 303 l 13 381 l 117 419 l 117 557 q 171 789 117 685 q 323 953 225 893 q 547 1014 421 1014 q 669 978 622 1014 q 715 879 715 942 q 672 768 715 824 q 558 674 628 713 q 413 625 488 635 l 400 651 q 525 729 475 675 q 575 843 575 783 q 547 912 575 888 q 471 936 518 936 q 301 858 357 936 q 246 671 246 779 l 246 469 l 378 519 l 378 444 l 246 393 l 246 240 q 233 166 246 197 q 192 101 219 135 l 199 97 q 263 135 232 122 q 333 147 293 147 q 450 138 389 147 q 493 132 458 136 q 568 128 528 128 q 657 153 615 128 q 728 217 699 178 l 753 200 z "},"M":{"ha":1231,"x_min":131,"x_max":1242,"o":"m 260 1014 l 260 651 q 340 848 289 767 q 451 970 392 929 q 563 1011 511 1011 q 642 975 615 1011 q 668 879 668 939 l 668 653 q 749 849 697 768 q 859 970 800 929 q 971 1011 918 1011 q 1050 976 1024 1011 q 1076 879 1076 940 l 1076 149 q 1093 86 1076 110 q 1139 63 1110 63 q 1184 77 1161 63 q 1222 113 1207 92 l 1242 94 q 1183 22 1222 51 q 1089 -7 1143 -7 q 988 37 1026 -7 q 949 164 949 81 l 949 843 q 936 892 949 875 q 903 910 924 910 q 803 843 860 910 q 707 660 747 776 q 667 400 667 543 l 667 26 l 539 -19 l 539 843 q 528 892 539 875 q 497 910 517 910 q 397 843 454 910 q 300 660 340 776 q 260 400 260 543 l 260 26 l 131 -19 l 131 964 l 260 1014 z "},"N":{"ha":872,"x_min":128,"x_max":881,"o":"m 256 1015 l 256 746 q 358 938 286 863 q 547 1014 429 1014 q 674 957 631 1014 q 717 815 717 900 l 717 149 q 733 86 717 110 q 778 63 749 63 q 825 77 801 63 q 861 113 849 92 l 881 94 q 822 23 863 53 q 729 -7 782 -7 q 626 37 665 -7 q 588 164 588 81 l 588 760 q 570 889 588 838 q 490 940 553 940 q 358 862 411 940 q 281 678 306 783 q 256 496 256 572 l 256 33 l 128 -18 l 128 967 l 256 1015 z "},"Ń":{"ha":872,"x_min":128,"x_max":881,"o":"m 256 1015 l 256 746 q 358 938 286 863 q 547 1014 429 1014 q 674 957 631 1014 q 717 815 717 900 l 717 149 q 733 86 717 110 q 778 63 749 63 q 825 77 801 63 q 861 113 849 92 l 881 94 q 822 23 863 53 q 729 -7 782 -7 q 626 37 665 -7 q 588 164 588 81 l 588 760 q 570 889 588 838 q 490 940 553 940 q 358 862 411 940 q 281 678 306 783 q 256 496 256 572 l 256 33 l 128 -18 l 128 967 l 256 1015 m 478 1303 l 308 1108 l 329 1081 l 563 1201 l 478 1303 z "},"Ň":{"ha":872,"x_min":128,"x_max":881,"o":"m 256 1015 l 256 746 q 358 938 286 863 q 547 1014 429 1014 q 674 957 631 1014 q 717 815 717 900 l 717 149 q 733 86 717 110 q 778 63 749 63 q 825 77 801 63 q 861 113 849 92 l 881 94 q 822 23 863 53 q 729 -7 782 -7 q 626 37 665 -7 q 588 164 588 81 l 588 760 q 570 889 588 838 q 490 940 553 940 q 358 862 411 940 q 281 678 306 783 q 256 496 256 572 l 256 33 l 128 -18 l 128 967 l 256 1015 m 472 1203 l 579 1324 l 617 1293 l 438 1089 l 246 1261 l 319 1342 l 472 1203 z "},"Ņ":{"ha":872,"x_min":128,"x_max":881,"o":"m 256 1015 l 256 746 q 358 938 286 863 q 547 1014 429 1014 q 674 957 631 1014 q 717 815 717 900 l 717 149 q 733 86 717 110 q 778 63 749 63 q 825 77 801 63 q 861 113 849 92 l 881 94 q 822 23 863 53 q 729 -7 782 -7 q 626 37 665 -7 q 588 164 588 81 l 588 760 q 570 889 588 838 q 490 940 553 940 q 358 862 411 940 q 281 678 306 783 q 256 496 256 572 l 256 33 l 128 -18 l 128 967 l 256 1015 m 514 -137 q 491 -82 514 -106 q 436 -58 468 -58 q 383 -82 406 -58 q 360 -137 360 -106 q 376 -185 360 -164 q 418 -214 392 -207 q 381 -276 408 -249 l 406 -297 q 483 -228 453 -269 q 514 -137 514 -186 z "},"Ŋ":{"ha":790,"x_min":139,"x_max":710,"o":"m 268 749 q 366 938 297 863 q 547 1014 435 1014 q 668 957 626 1014 q 710 815 710 900 l 710 65 q 674 -105 710 -26 q 567 -231 638 -183 q 397 -279 496 -279 q 291 -260 346 -279 q 189 -206 236 -240 l 299 -107 q 371 -182 324 -149 q 464 -215 418 -215 q 556 -161 529 -215 q 582 -42 582 -107 l 582 760 q 565 889 582 838 q 490 940 549 940 q 364 862 414 940 q 291 678 314 783 q 268 497 268 574 l 268 33 l 139 -18 l 139 967 l 268 1015 l 268 749 z "},"Ñ":{"ha":872,"x_min":128,"x_max":881,"o":"m 256 1015 l 256 746 q 358 938 286 863 q 547 1014 429 1014 q 674 957 631 1014 q 717 815 717 900 l 717 149 q 733 86 717 110 q 778 63 749 63 q 825 77 801 63 q 861 113 849 92 l 881 94 q 822 23 863 53 q 729 -7 782 -7 q 626 37 665 -7 q 588 164 588 81 l 588 760 q 570 889 588 838 q 490 940 553 940 q 358 862 411 940 q 281 678 306 783 q 256 496 256 572 l 256 33 l 128 -18 l 128 967 l 256 1015 m 560 1314 q 590 1232 590 1278 q 565 1158 590 1188 q 493 1129 539 1129 q 447 1142 465 1129 q 407 1178 429 1154 q 364 1207 381 1207 q 338 1167 338 1207 q 347 1132 338 1150 l 306 1118 q 275 1201 275 1156 q 301 1274 275 1244 q 372 1304 326 1304 q 417 1292 399 1304 q 456 1257 435 1279 q 480 1233 471 1240 q 500 1226 489 1226 q 526 1267 526 1226 q 518 1301 526 1286 l 560 1314 z "},"O":{"ha":1011,"x_min":63,"x_max":954,"o":"m 511 1004 q 744 931 643 1004 q 899 738 844 857 q 954 488 954 618 q 905 241 954 358 q 756 50 856 124 q 511 -24 656 -24 q 275 50 378 -24 q 117 242 172 124 q 63 488 63 360 q 112 738 63 619 q 263 930 161 856 q 511 1004 364 1004 m 447 928 q 300 876 358 928 q 215 745 242 824 q 189 589 189 667 q 228 347 189 468 q 353 142 268 225 q 568 60 439 60 q 715 113 657 60 q 799 243 772 165 q 825 400 825 321 q 786 640 825 518 q 662 845 747 763 q 447 928 576 928 z "},"Ó":{"ha":1011,"x_min":63,"x_max":954,"o":"m 511 1004 q 744 931 643 1004 q 899 738 844 857 q 954 488 954 618 q 905 241 954 358 q 756 50 856 124 q 511 -24 656 -24 q 275 50 378 -24 q 117 242 172 124 q 63 488 63 360 q 112 738 63 619 q 263 930 161 856 q 511 1004 364 1004 m 447 928 q 300 876 358 928 q 215 745 242 824 q 189 589 189 667 q 228 347 189 468 q 353 142 268 225 q 568 60 439 60 q 715 113 657 60 q 799 243 772 165 q 825 400 825 321 q 786 640 825 518 q 662 845 747 763 q 447 928 576 928 m 560 1303 l 390 1108 l 411 1081 l 644 1201 l 560 1303 z "},"Ŏ":{"ha":1011,"x_min":63,"x_max":954,"o":"m 511 1004 q 744 931 643 1004 q 899 738 844 857 q 954 488 954 618 q 905 241 954 358 q 756 50 856 124 q 511 -24 656 -24 q 275 50 378 -24 q 117 242 172 124 q 63 488 63 360 q 112 738 63 619 q 263 930 161 856 q 511 1004 364 1004 m 447 928 q 300 876 358 928 q 215 745 242 824 q 189 589 189 667 q 228 347 189 468 q 353 142 268 225 q 568 60 439 60 q 715 113 657 60 q 799 243 772 165 q 825 400 825 321 q 786 640 825 518 q 662 845 747 763 q 447 928 576 928 m 422 1332 q 380 1274 396 1310 q 364 1201 364 1238 q 401 1110 364 1144 q 497 1076 439 1076 q 616 1118 569 1076 q 663 1229 663 1160 q 621 1335 663 1292 l 529 1276 q 559 1235 547 1260 q 571 1185 571 1210 q 554 1138 571 1157 q 511 1118 538 1118 q 448 1160 471 1118 q 425 1246 425 1201 q 444 1314 425 1286 l 422 1332 z "},"Ô":{"ha":1011,"x_min":63,"x_max":954,"o":"m 511 1004 q 744 931 643 1004 q 899 738 844 857 q 954 488 954 618 q 905 241 954 358 q 756 50 856 124 q 511 -24 656 -24 q 275 50 378 -24 q 117 242 172 124 q 63 488 63 360 q 112 738 63 619 q 263 930 161 856 q 511 1004 364 1004 m 447 928 q 300 876 358 928 q 215 745 242 824 q 189 589 189 667 q 228 347 189 468 q 353 142 268 225 q 568 60 439 60 q 715 113 657 60 q 799 243 772 165 q 825 400 825 321 q 786 640 825 518 q 662 845 747 763 q 447 928 576 928 m 700 1156 l 628 1075 l 474 1215 l 368 1094 l 329 1124 l 508 1329 l 700 1156 z "},"Ö":{"ha":1011,"x_min":63,"x_max":954,"o":"m 511 1004 q 744 931 643 1004 q 899 738 844 857 q 954 488 954 618 q 905 241 954 358 q 756 50 856 124 q 511 -24 656 -24 q 275 50 378 -24 q 117 242 172 124 q 63 488 63 360 q 112 738 63 619 q 263 930 161 856 q 511 1004 364 1004 m 447 928 q 300 876 358 928 q 215 745 242 824 q 189 589 189 667 q 228 347 189 468 q 353 142 268 225 q 568 60 439 60 q 715 113 657 60 q 799 243 772 165 q 825 400 825 321 q 786 640 825 518 q 662 845 747 763 q 447 928 576 928 m 390 1299 q 448 1274 424 1299 q 472 1217 472 1250 q 449 1159 472 1182 q 390 1136 425 1136 q 333 1160 357 1136 q 310 1217 310 1183 q 334 1274 310 1249 q 390 1299 358 1299 m 636 1299 q 693 1274 669 1299 q 717 1217 717 1250 q 694 1159 717 1182 q 636 1136 671 1136 q 578 1160 603 1136 q 554 1217 554 1183 q 578 1274 554 1249 q 636 1299 603 1299 z "},"Ò":{"ha":1011,"x_min":63,"x_max":954,"o":"m 511 1004 q 744 931 643 1004 q 899 738 844 857 q 954 488 954 618 q 905 241 954 358 q 756 50 856 124 q 511 -24 656 -24 q 275 50 378 -24 q 117 242 172 124 q 63 488 63 360 q 112 738 63 619 q 263 930 161 856 q 511 1004 364 1004 m 447 928 q 300 876 358 928 q 215 745 242 824 q 189 589 189 667 q 228 347 189 468 q 353 142 268 225 q 568 60 439 60 q 715 113 657 60 q 799 243 772 165 q 825 400 825 321 q 786 640 825 518 q 662 845 747 763 q 447 928 576 928 m 625 1108 l 454 1303 l 371 1201 l 604 1079 l 625 1108 z "},"Ő":{"ha":1011,"x_min":63,"x_max":954,"o":"m 511 1004 q 744 931 643 1004 q 899 738 844 857 q 954 488 954 618 q 905 241 954 358 q 756 50 856 124 q 511 -24 656 -24 q 275 50 378 -24 q 117 242 172 124 q 63 488 63 360 q 112 738 63 619 q 263 930 161 856 q 511 1004 364 1004 m 447 928 q 300 876 358 928 q 215 745 242 824 q 189 589 189 667 q 228 347 189 468 q 353 142 268 225 q 568 60 439 60 q 715 113 657 60 q 799 243 772 165 q 825 400 825 321 q 786 640 825 518 q 662 845 747 763 q 447 928 576 928 m 453 1303 l 290 1108 l 313 1081 l 536 1201 l 453 1303 m 654 1303 l 490 1108 l 513 1081 l 738 1201 l 654 1303 z "},"Ō":{"ha":1011,"x_min":63,"x_max":954,"o":"m 511 1004 q 744 931 643 1004 q 899 738 844 857 q 954 488 954 618 q 905 241 954 358 q 756 50 856 124 q 511 -24 656 -24 q 275 50 378 -24 q 117 242 172 124 q 63 488 63 360 q 112 738 63 619 q 263 930 161 856 q 511 1004 364 1004 m 447 928 q 300 876 358 928 q 215 745 242 824 q 189 589 189 667 q 228 347 189 468 q 353 142 268 225 q 568 60 439 60 q 715 113 657 60 q 799 243 772 165 q 825 400 825 321 q 786 640 825 518 q 662 845 747 763 q 447 928 576 928 m 686 1263 l 393 1263 l 343 1167 l 638 1167 l 686 1263 z "},"Ø":{"ha":1011,"x_min":63,"x_max":954,"o":"m 797 885 q 913 706 872 813 q 954 488 954 600 q 905 241 954 358 q 756 50 856 124 q 511 -24 656 -24 q 269 54 376 -24 l 222 -21 l 160 21 l 213 103 q 101 277 140 175 q 63 488 63 379 q 112 738 63 619 q 263 930 161 856 q 511 1004 364 1004 q 747 929 643 1004 l 796 1004 l 850 968 l 797 885 m 189 589 q 214 395 189 494 q 289 219 239 296 l 681 826 q 447 928 586 928 q 300 876 358 928 q 215 745 242 824 q 189 589 189 667 m 568 60 q 715 113 657 60 q 799 243 772 165 q 825 400 825 321 q 800 594 825 494 q 724 769 775 693 l 336 158 q 568 60 431 60 z "},"Ǿ":{"ha":1011,"x_min":63,"x_max":954,"o":"m 411 1081 l 390 1108 l 560 1303 l 644 1201 l 411 1081 m 797 886 q 913 706 872 811 q 954 488 954 600 q 905 241 954 358 q 756 50 856 124 q 511 -24 656 -24 q 268 54 376 -24 l 221 -21 l 158 21 l 213 104 q 101 278 140 176 q 63 488 63 381 q 112 738 63 619 q 263 930 161 856 q 511 1004 364 1004 q 746 929 642 1004 l 794 1004 l 849 968 l 797 886 m 189 589 q 213 396 189 494 q 288 221 238 297 l 679 826 q 447 928 585 928 q 300 876 358 928 q 215 745 242 824 q 189 589 189 667 m 568 60 q 715 113 657 60 q 799 243 772 165 q 825 400 825 321 q 800 594 825 494 q 724 771 775 693 l 335 160 q 568 60 431 60 z "},"Õ":{"ha":1011,"x_min":63,"x_max":954,"o":"m 511 1004 q 744 931 643 1004 q 899 738 844 857 q 954 488 954 618 q 905 241 954 358 q 756 50 856 124 q 511 -24 656 -24 q 275 50 378 -24 q 117 242 172 124 q 63 488 63 360 q 112 738 63 619 q 263 930 161 856 q 511 1004 364 1004 m 447 928 q 300 876 358 928 q 215 745 242 824 q 189 589 189 667 q 228 347 189 468 q 353 142 268 225 q 568 60 439 60 q 715 113 657 60 q 799 243 772 165 q 825 400 825 321 q 786 640 825 518 q 662 845 747 763 q 447 928 576 928 m 642 1314 q 672 1232 672 1278 q 647 1158 672 1188 q 575 1129 621 1129 q 529 1142 547 1129 q 489 1178 511 1154 q 446 1207 463 1207 q 419 1167 419 1207 q 429 1132 419 1150 l 388 1118 q 357 1201 357 1156 q 383 1274 357 1244 q 454 1304 408 1304 q 499 1292 481 1304 q 538 1257 517 1279 q 562 1233 553 1240 q 582 1226 571 1226 q 608 1267 608 1226 q 600 1301 608 1286 l 642 1314 z "},"Œ":{"ha":1367,"x_min":63,"x_max":1357,"o":"m 511 1004 q 683 967 604 1004 q 817 863 761 929 q 950 961 864 926 q 1118 996 1036 996 q 1294 911 1222 996 l 1211 842 q 1132 907 1172 882 q 1042 932 1092 932 q 951 913 994 932 q 881 858 908 893 q 854 778 854 822 q 882 696 854 733 q 954 637 910 658 q 1046 615 999 615 q 1081 617 1064 615 q 1111 625 1099 618 l 1122 586 q 906 472 1003 550 q 810 282 810 393 q 858 145 810 199 q 993 92 907 92 q 1131 119 1064 92 q 1248 189 1197 146 q 1325 278 1299 232 l 1357 250 q 1176 60 1290 136 q 929 -15 1061 -15 q 829 0 876 -15 q 747 44 782 15 q 511 -24 646 -24 q 275 50 378 -24 q 117 242 172 124 q 63 488 63 360 q 112 738 63 619 q 263 930 161 856 q 511 1004 364 1004 m 447 928 q 300 876 358 928 q 215 745 242 824 q 189 589 189 667 q 228 347 189 468 q 353 142 268 225 q 568 60 439 60 q 697 97 642 60 q 660 233 660 158 q 735 415 660 333 q 919 544 811 496 q 831 590 868 558 q 779 665 794 621 q 654 854 738 781 q 447 928 571 928 z "},"P":{"ha":861,"x_min":40,"x_max":839,"o":"m 539 993 q 755 922 671 993 q 839 707 839 850 q 763 495 839 593 q 567 339 686 397 q 329 281 449 281 q 314 283 317 281 l 321 321 q 503 379 414 331 q 648 506 592 428 q 704 681 704 585 q 641 847 704 785 q 454 910 578 910 q 252 865 358 910 q 67 747 146 819 l 40 776 q 277 932 142 871 q 539 993 413 993 m 257 31 l 129 -18 l 129 742 l 257 792 l 257 31 z "},"Þ":{"ha":860,"x_min":40,"x_max":840,"o":"m 540 868 q 756 797 672 868 q 840 583 840 725 q 764 371 840 469 q 569 215 688 272 q 331 157 450 157 q 314 160 318 157 l 321 196 q 504 255 415 207 q 649 381 593 303 q 706 557 706 460 q 642 724 706 661 q 456 786 579 786 q 256 742 364 786 l 256 -4 l 126 -54 l 126 671 q 67 624 85 640 l 40 651 q 126 721 81 688 l 126 964 l 256 1014 l 256 797 q 540 868 401 868 z "},"Q":{"ha":1011,"x_min":63,"x_max":954,"o":"m 831 -56 q 903 -33 872 -56 l 931 -61 q 789 -140 871 -140 q 688 -112 733 -140 q 592 -18 643 -85 q 511 -24 558 -24 q 275 50 378 -24 q 117 242 172 124 q 63 488 63 360 q 112 738 63 619 q 263 930 161 856 q 511 1004 364 1004 q 744 931 643 1004 q 899 738 844 857 q 954 488 954 618 q 893 214 954 342 q 715 24 832 86 q 777 -37 750 -18 q 831 -56 804 -56 m 189 589 q 213 401 189 497 q 282 229 236 306 q 413 296 339 296 q 526 258 475 296 q 639 128 578 219 l 671 82 q 787 212 749 121 q 825 400 825 303 q 786 640 825 518 q 662 845 747 763 q 447 928 576 928 q 300 876 358 928 q 215 745 242 824 q 189 589 189 667 m 306 194 q 539 60 397 74 q 443 177 481 143 q 369 211 406 211 q 306 194 335 211 z "},"R":{"ha":900,"x_min":40,"x_max":865,"o":"m 539 993 q 755 922 671 993 q 839 707 839 850 q 788 531 839 614 q 654 388 738 449 q 474 301 571 328 l 625 117 q 706 79 665 79 q 774 104 739 79 q 844 165 808 129 l 865 147 q 823 91 860 140 q 738 10 786 42 q 644 -22 690 -22 q 570 2 606 -22 q 493 79 535 26 l 326 283 l 335 321 q 513 378 428 331 q 651 506 599 426 q 704 681 704 585 q 641 847 704 785 q 454 910 578 910 q 252 865 358 910 q 67 747 146 819 l 40 776 q 277 932 142 871 q 539 993 413 993 m 253 31 l 125 -21 l 125 743 l 253 792 l 253 31 z "},"Ŕ":{"ha":900,"x_min":40,"x_max":865,"o":"m 539 993 q 755 922 671 993 q 839 707 839 850 q 788 531 839 614 q 654 388 738 449 q 474 301 571 328 l 625 117 q 706 79 665 79 q 774 104 739 79 q 844 165 808 129 l 865 147 q 823 91 860 140 q 738 10 786 42 q 644 -22 690 -22 q 570 2 606 -22 q 493 79 535 26 l 326 283 l 335 321 q 513 378 428 331 q 651 506 599 426 q 704 681 704 585 q 641 847 704 785 q 454 910 578 910 q 252 865 358 910 q 67 747 146 819 l 40 776 q 277 932 142 871 q 539 993 413 993 m 253 31 l 125 -21 l 125 743 l 253 792 l 253 31 m 517 1303 l 347 1108 l 368 1081 l 601 1201 l 517 1303 z "},"Ř":{"ha":900,"x_min":40,"x_max":865,"o":"m 539 993 q 755 922 671 993 q 839 707 839 850 q 788 531 839 614 q 654 388 738 449 q 474 301 571 328 l 625 117 q 706 79 665 79 q 774 104 739 79 q 844 165 808 129 l 865 147 q 823 91 860 140 q 738 10 786 42 q 644 -22 690 -22 q 570 2 606 -22 q 493 79 535 26 l 326 283 l 335 321 q 513 378 428 331 q 651 506 599 426 q 704 681 704 585 q 641 847 704 785 q 454 910 578 910 q 252 865 358 910 q 67 747 146 819 l 40 776 q 277 932 142 871 q 539 993 413 993 m 253 31 l 125 -21 l 125 743 l 253 792 l 253 31 m 511 1203 l 618 1324 l 656 1293 l 476 1089 l 285 1261 l 358 1342 l 511 1203 z "},"Ŗ":{"ha":900,"x_min":40,"x_max":865,"o":"m 539 993 q 755 922 671 993 q 839 707 839 850 q 788 531 839 614 q 654 388 738 449 q 474 301 571 328 l 625 117 q 706 79 665 79 q 774 104 739 79 q 844 165 808 129 l 865 147 q 823 91 860 140 q 738 10 786 42 q 644 -22 690 -22 q 570 2 606 -22 q 493 79 535 26 l 326 283 l 335 321 q 513 378 428 331 q 651 506 599 426 q 704 681 704 585 q 641 847 704 785 q 454 910 578 910 q 252 865 358 910 q 67 747 146 819 l 40 776 q 277 932 142 871 q 539 993 413 993 m 253 31 l 125 -21 l 125 743 l 253 792 l 253 31 m 526 -137 q 503 -82 526 -106 q 449 -58 481 -58 q 395 -82 418 -58 q 372 -137 372 -106 q 388 -185 372 -164 q 431 -214 404 -207 q 393 -276 421 -249 l 418 -297 q 496 -228 465 -269 q 526 -137 526 -186 z "},"S":{"ha":768,"x_min":63,"x_max":736,"o":"m 419 1011 q 596 969 513 1011 q 736 849 679 926 l 628 715 q 524 876 593 813 q 361 940 456 940 q 221 889 271 940 q 171 757 171 838 q 207 632 171 682 q 294 551 243 582 q 433 482 346 521 q 565 417 517 444 q 646 344 613 389 q 679 235 679 300 q 601 49 681 114 q 396 -17 522 -17 q 219 20 303 -17 q 85 132 135 57 l 193 253 q 308 95 240 142 q 440 49 376 49 q 542 81 500 49 q 585 167 585 114 q 555 252 585 215 q 481 315 525 289 q 360 375 436 340 q 204 456 263 419 q 104 551 146 492 q 63 694 63 610 q 109 856 63 783 q 238 970 156 929 q 419 1011 319 1011 z "},"Ś":{"ha":768,"x_min":63,"x_max":736,"o":"m 419 1011 q 596 969 513 1011 q 736 849 679 926 l 628 715 q 524 876 593 813 q 361 940 456 940 q 221 889 271 940 q 171 757 171 838 q 207 632 171 682 q 294 551 243 582 q 433 482 346 521 q 565 417 517 444 q 646 344 613 389 q 679 235 679 300 q 601 49 681 114 q 396 -17 522 -17 q 219 20 303 -17 q 85 132 135 57 l 193 253 q 308 95 240 142 q 440 49 376 49 q 542 81 500 49 q 585 167 585 114 q 555 252 585 215 q 481 315 525 289 q 360 375 436 340 q 204 456 263 419 q 104 551 146 492 q 63 694 63 610 q 109 856 63 783 q 238 970 156 929 q 419 1011 319 1011 m 476 1303 l 307 1108 l 328 1081 l 561 1201 l 476 1303 z "},"Š":{"ha":768,"x_min":63,"x_max":736,"o":"m 419 1011 q 596 969 513 1011 q 736 849 679 926 l 628 715 q 524 876 593 813 q 361 940 456 940 q 221 889 271 940 q 171 757 171 838 q 207 632 171 682 q 294 551 243 582 q 433 482 346 521 q 565 417 517 444 q 646 344 613 389 q 679 235 679 300 q 601 49 681 114 q 396 -17 522 -17 q 219 20 303 -17 q 85 132 135 57 l 193 253 q 308 95 240 142 q 440 49 376 49 q 542 81 500 49 q 585 167 585 114 q 555 252 585 215 q 481 315 525 289 q 360 375 436 340 q 204 456 263 419 q 104 551 146 492 q 63 694 63 610 q 109 856 63 783 q 238 970 156 929 q 419 1011 319 1011 m 471 1203 l 578 1324 l 615 1293 l 436 1089 l 244 1261 l 318 1342 l 471 1203 z "},"Ş":{"ha":768,"x_min":63,"x_max":736,"o":"m 171 757 q 207 632 171 682 q 294 551 243 582 q 433 482 346 521 q 565 417 517 444 q 646 344 613 389 q 679 235 679 300 q 601 49 681 114 q 396 -17 522 -17 l 385 -17 l 354 -68 q 424 -50 390 -50 q 499 -80 468 -50 q 529 -161 529 -110 q 492 -244 529 -212 q 408 -275 456 -275 q 345 -258 375 -275 q 299 -208 315 -240 l 325 -193 q 378 -222 346 -222 q 417 -205 401 -222 q 432 -161 432 -187 q 415 -115 432 -133 q 372 -97 397 -97 q 329 -111 350 -97 l 306 -92 l 350 -15 q 199 30 269 -7 q 85 132 129 67 l 193 253 q 308 95 240 142 q 440 49 376 49 q 542 81 500 49 q 585 167 585 114 q 555 252 585 215 q 481 315 525 289 q 360 375 436 340 q 204 456 263 419 q 104 551 146 492 q 63 694 63 610 q 109 856 63 783 q 238 970 156 929 q 419 1011 319 1011 q 596 969 513 1011 q 736 849 679 926 l 628 715 q 524 876 593 813 q 361 940 456 940 q 221 889 271 940 q 171 757 171 838 z "},"Ŝ":{"ha":768,"x_min":63,"x_max":736,"o":"m 419 1011 q 596 969 513 1011 q 736 849 679 926 l 628 715 q 524 876 593 813 q 361 940 456 940 q 221 889 271 940 q 171 757 171 838 q 207 632 171 682 q 294 551 243 582 q 433 482 346 521 q 565 417 517 444 q 646 344 613 389 q 679 235 679 300 q 601 49 681 114 q 396 -17 522 -17 q 219 20 303 -17 q 85 132 135 57 l 193 253 q 308 95 240 142 q 440 49 376 49 q 542 81 500 49 q 585 167 585 114 q 555 252 585 215 q 481 315 525 289 q 360 375 436 340 q 204 456 263 419 q 104 551 146 492 q 63 694 63 610 q 109 856 63 783 q 238 970 156 929 q 419 1011 319 1011 m 615 1156 l 543 1075 l 389 1215 l 283 1094 l 244 1124 l 424 1329 l 615 1156 z "},"Ș":{"ha":768,"x_min":63,"x_max":736,"o":"m 419 1011 q 596 969 513 1011 q 736 849 679 926 l 628 715 q 524 876 593 813 q 361 940 456 940 q 221 889 271 940 q 171 757 171 838 q 207 632 171 682 q 294 551 243 582 q 433 482 346 521 q 565 417 517 444 q 646 344 613 389 q 679 235 679 300 q 601 49 681 114 q 396 -17 522 -17 q 219 20 303 -17 q 85 132 135 57 l 193 253 q 308 95 240 142 q 440 49 376 49 q 542 81 500 49 q 585 167 585 114 q 555 252 585 215 q 481 315 525 289 q 360 375 436 340 q 204 456 263 419 q 104 551 146 492 q 63 694 63 610 q 109 856 63 783 q 238 970 156 929 q 419 1011 319 1011 m 492 -137 q 469 -82 492 -106 q 414 -58 446 -58 q 360 -82 383 -58 q 338 -137 338 -106 q 353 -185 338 -164 q 396 -214 369 -207 q 358 -276 386 -249 l 383 -297 q 461 -228 431 -269 q 492 -137 492 -186 z "},"T":{"ha":694,"x_min":-6,"x_max":740,"o":"m 740 1011 q 606 895 686 940 q 439 850 525 850 q 399 785 411 815 q 386 713 386 754 l 386 260 q 353 90 386 151 q 246 -29 319 28 l 217 -1 q 248 60 238 22 q 258 135 258 97 l 258 632 q 292 751 258 694 q 376 850 325 808 l 185 851 q 94 833 132 851 q 21 774 57 814 l -6 794 q 141 925 64 879 q 299 971 218 971 l 414 971 q 600 981 514 971 q 725 1026 686 992 l 740 1011 z "},"Ŧ":{"ha":694,"x_min":-6,"x_max":740,"o":"m 439 850 q 399 785 411 815 q 386 713 386 754 l 386 533 l 514 533 l 478 463 l 386 463 l 386 260 q 353 90 386 151 q 246 -29 319 28 l 217 -1 q 248 60 238 22 q 258 135 258 97 l 258 463 l 128 463 l 160 533 l 258 533 l 258 632 q 292 751 258 694 q 376 850 325 808 l 185 851 q 94 833 132 851 q 21 774 57 814 l -6 794 q 141 925 64 879 q 299 971 218 971 l 414 971 q 600 981 514 971 q 725 1026 686 992 l 740 1011 q 606 895 686 940 q 439 850 525 850 z "},"Ť":{"ha":694,"x_min":-6,"x_max":740,"o":"m 740 1011 q 606 895 686 940 q 439 850 525 850 q 399 785 411 815 q 386 713 386 754 l 386 260 q 353 90 386 151 q 246 -29 319 28 l 217 -1 q 248 60 238 22 q 258 135 258 97 l 258 632 q 292 751 258 694 q 376 850 325 808 l 185 851 q 94 833 132 851 q 21 774 57 814 l -6 794 q 141 925 64 879 q 299 971 218 971 l 414 971 q 600 981 514 971 q 725 1026 686 992 l 740 1011 m 407 1203 l 514 1324 l 551 1293 l 372 1089 l 181 1261 l 254 1342 l 407 1203 z "},"Ț":{"ha":694,"x_min":-6,"x_max":740,"o":"m 740 1011 q 606 895 686 940 q 439 850 525 850 q 399 785 411 815 q 386 713 386 754 l 386 260 q 353 90 386 151 q 246 -29 319 28 l 217 -1 q 248 60 238 22 q 258 135 258 97 l 258 632 q 292 751 258 694 q 376 850 325 808 l 185 851 q 94 833 132 851 q 21 774 57 814 l -6 794 q 141 925 64 879 q 299 971 218 971 l 414 971 q 600 981 514 971 q 725 1026 686 992 l 740 1011 m 403 -137 q 380 -82 403 -106 q 325 -58 357 -58 q 272 -82 294 -58 q 249 -137 249 -106 q 265 -185 249 -164 q 307 -214 281 -207 q 269 -276 297 -249 l 294 -297 q 372 -228 342 -269 q 403 -137 403 -186 z "},"U":{"ha":878,"x_min":115,"x_max":865,"o":"m 703 149 q 719 86 703 110 q 764 63 735 63 q 810 77 786 63 q 847 113 833 92 l 865 94 q 808 23 849 53 q 713 -7 767 -7 q 613 37 651 -7 q 574 163 574 81 l 574 260 q 471 67 543 146 q 285 -12 399 -12 q 158 44 201 -12 q 115 186 115 100 l 115 944 l 244 990 l 244 242 q 249 152 244 186 q 274 90 253 118 q 343 63 296 63 q 474 142 422 63 q 549 328 525 222 q 574 511 574 435 l 574 943 l 703 990 l 703 149 z "},"Ú":{"ha":878,"x_min":115,"x_max":865,"o":"m 703 149 q 719 86 703 110 q 764 63 735 63 q 810 77 786 63 q 847 113 833 92 l 865 94 q 808 23 849 53 q 713 -7 767 -7 q 613 37 651 -7 q 574 163 574 81 l 574 260 q 471 67 543 146 q 285 -12 399 -12 q 158 44 201 -12 q 115 186 115 100 l 115 944 l 244 990 l 244 242 q 249 152 244 186 q 274 90 253 118 q 343 63 296 63 q 474 142 422 63 q 549 328 525 222 q 574 511 574 435 l 574 943 l 703 990 l 703 149 m 489 1303 l 319 1108 l 340 1081 l 574 1201 l 489 1303 z "},"Ŭ":{"ha":878,"x_min":115,"x_max":865,"o":"m 703 149 q 719 86 703 110 q 764 63 735 63 q 810 77 786 63 q 847 113 833 92 l 865 94 q 808 23 849 53 q 713 -7 767 -7 q 613 37 651 -7 q 574 163 574 81 l 574 260 q 471 67 543 146 q 285 -12 399 -12 q 158 44 201 -12 q 115 186 115 100 l 115 944 l 244 990 l 244 242 q 249 152 244 186 q 274 90 253 118 q 343 63 296 63 q 474 142 422 63 q 549 328 525 222 q 574 511 574 435 l 574 943 l 703 990 l 703 149 m 350 1332 q 308 1274 324 1310 q 292 1201 292 1238 q 329 1110 292 1144 q 425 1076 367 1076 q 544 1118 497 1076 q 590 1229 590 1160 q 549 1335 590 1292 l 457 1276 q 487 1235 475 1260 q 499 1185 499 1210 q 482 1138 499 1157 q 439 1118 465 1118 q 376 1160 399 1118 q 353 1246 353 1201 q 372 1314 353 1286 l 350 1332 z "},"Û":{"ha":878,"x_min":115,"x_max":865,"o":"m 703 149 q 719 86 703 110 q 764 63 735 63 q 810 77 786 63 q 847 113 833 92 l 865 94 q 808 23 849 53 q 713 -7 767 -7 q 613 37 651 -7 q 574 163 574 81 l 574 260 q 471 67 543 146 q 285 -12 399 -12 q 158 44 201 -12 q 115 186 115 100 l 115 944 l 244 990 l 244 242 q 249 152 244 186 q 274 90 253 118 q 343 63 296 63 q 474 142 422 63 q 549 328 525 222 q 574 511 574 435 l 574 943 l 703 990 l 703 149 m 628 1156 l 556 1075 l 401 1215 l 296 1094 l 257 1124 l 436 1329 l 628 1156 z "},"Ü":{"ha":878,"x_min":115,"x_max":865,"o":"m 703 149 q 719 86 703 110 q 764 63 735 63 q 810 77 786 63 q 847 113 833 92 l 865 94 q 808 23 849 53 q 713 -7 767 -7 q 613 37 651 -7 q 574 163 574 81 l 574 260 q 471 67 543 146 q 285 -12 399 -12 q 158 44 201 -12 q 115 186 115 100 l 115 944 l 244 990 l 244 242 q 249 152 244 186 q 274 90 253 118 q 343 63 296 63 q 474 142 422 63 q 549 328 525 222 q 574 511 574 435 l 574 943 l 703 990 l 703 149 m 319 1299 q 377 1274 353 1299 q 401 1217 401 1250 q 378 1159 401 1182 q 319 1136 354 1136 q 263 1160 286 1136 q 239 1217 239 1183 q 263 1274 239 1249 q 319 1299 288 1299 m 565 1299 q 622 1274 599 1299 q 646 1217 646 1250 q 623 1159 646 1182 q 565 1136 600 1136 q 508 1160 532 1136 q 483 1217 483 1183 q 508 1274 483 1249 q 565 1299 532 1299 z "},"Ù":{"ha":878,"x_min":115,"x_max":865,"o":"m 703 149 q 719 86 703 110 q 764 63 735 63 q 810 77 786 63 q 847 113 833 92 l 865 94 q 808 23 849 53 q 713 -7 767 -7 q 613 37 651 -7 q 574 163 574 81 l 574 260 q 471 67 543 146 q 285 -12 399 -12 q 158 44 201 -12 q 115 186 115 100 l 115 944 l 244 990 l 244 242 q 249 152 244 186 q 274 90 253 118 q 343 63 296 63 q 474 142 422 63 q 549 328 525 222 q 574 511 574 435 l 574 943 l 703 990 l 703 149 m 554 1108 l 383 1303 l 300 1201 l 533 1079 l 554 1108 z "},"Ű":{"ha":878,"x_min":115,"x_max":865,"o":"m 703 149 q 719 86 703 110 q 764 63 735 63 q 810 77 786 63 q 847 113 833 92 l 865 94 q 808 23 849 53 q 713 -7 767 -7 q 613 37 651 -7 q 574 163 574 81 l 574 260 q 471 67 543 146 q 285 -12 399 -12 q 158 44 201 -12 q 115 186 115 100 l 115 944 l 244 990 l 244 242 q 249 152 244 186 q 274 90 253 118 q 343 63 296 63 q 474 142 422 63 q 549 328 525 222 q 574 511 574 435 l 574 943 l 703 990 l 703 149 m 382 1303 l 219 1108 l 242 1081 l 465 1201 l 382 1303 m 583 1303 l 419 1108 l 442 1081 l 667 1201 l 583 1303 z "},"Ū":{"ha":878,"x_min":115,"x_max":865,"o":"m 703 149 q 719 86 703 110 q 764 63 735 63 q 810 77 786 63 q 847 113 833 92 l 865 94 q 808 23 849 53 q 713 -7 767 -7 q 613 37 651 -7 q 574 163 574 81 l 574 260 q 471 67 543 146 q 285 -12 399 -12 q 158 44 201 -12 q 115 186 115 100 l 115 944 l 244 990 l 244 242 q 249 152 244 186 q 274 90 253 118 q 343 63 296 63 q 474 142 422 63 q 549 328 525 222 q 574 511 574 435 l 574 943 l 703 990 l 703 149 m 615 1263 l 322 1263 l 272 1167 l 567 1167 l 615 1263 z "},"Ų":{"ha":878,"x_min":115,"x_max":865,"o":"m 764 -193 q 832 -157 804 -193 l 856 -178 q 797 -247 831 -221 q 725 -274 764 -274 q 649 -247 683 -274 q 615 -169 615 -221 q 708 -7 615 -82 q 611 39 649 -4 q 574 163 574 82 l 574 260 q 471 67 543 146 q 285 -12 399 -12 q 158 44 201 -12 q 115 186 115 100 l 115 944 l 244 990 l 244 242 q 249 152 244 186 q 274 90 253 118 q 343 63 296 63 q 474 142 422 63 q 549 328 525 222 q 574 511 574 435 l 574 943 l 703 990 l 703 149 q 719 86 703 110 q 764 63 735 63 q 810 77 786 63 q 847 113 833 92 l 865 94 q 826 38 853 64 q 764 1 800 13 q 717 -60 733 -26 q 700 -126 700 -94 q 716 -175 700 -157 q 764 -193 732 -193 z "},"Ů":{"ha":878,"x_min":115,"x_max":865,"o":"m 703 149 q 719 86 703 110 q 764 63 735 63 q 810 77 786 63 q 847 113 833 92 l 865 94 q 808 23 849 53 q 713 -7 767 -7 q 613 37 651 -7 q 574 163 574 81 l 574 260 q 471 67 543 146 q 285 -12 399 -12 q 158 44 201 -12 q 115 186 115 100 l 115 944 l 244 990 l 244 242 q 249 152 244 186 q 274 90 253 118 q 343 63 296 63 q 474 142 422 63 q 549 328 525 222 q 574 511 574 435 l 574 943 l 703 990 l 703 149 m 440 1382 q 539 1343 499 1382 q 579 1247 579 1304 q 538 1151 579 1192 q 440 1111 497 1111 q 344 1151 385 1111 q 304 1247 304 1192 q 344 1342 304 1303 q 440 1382 385 1382 m 418 1336 q 390 1320 400 1336 q 381 1281 381 1304 q 408 1196 381 1232 q 464 1160 435 1160 q 492 1176 482 1160 q 501 1215 501 1193 q 488 1275 501 1247 q 456 1319 475 1303 q 418 1336 436 1336 z "},"Ũ":{"ha":878,"x_min":115,"x_max":865,"o":"m 703 149 q 719 86 703 110 q 764 63 735 63 q 810 77 786 63 q 847 113 833 92 l 865 94 q 808 23 849 53 q 713 -7 767 -7 q 613 37 651 -7 q 574 163 574 81 l 574 260 q 471 67 543 146 q 285 -12 399 -12 q 158 44 201 -12 q 115 186 115 100 l 115 944 l 244 990 l 244 242 q 249 152 244 186 q 274 90 253 118 q 343 63 296 63 q 474 142 422 63 q 549 328 525 222 q 574 511 574 435 l 574 943 l 703 990 l 703 149 m 571 1314 q 601 1232 601 1278 q 576 1158 601 1188 q 504 1129 550 1129 q 458 1142 476 1129 q 418 1178 440 1154 q 375 1207 392 1207 q 349 1167 349 1207 q 358 1132 349 1150 l 317 1118 q 286 1201 286 1156 q 312 1274 286 1244 q 383 1304 338 1304 q 428 1292 410 1304 q 467 1257 446 1279 q 491 1233 482 1240 q 511 1226 500 1226 q 538 1267 538 1226 q 529 1301 538 1286 l 571 1314 z "},"V":{"ha":803,"x_min":1,"x_max":782,"o":"m 661 1079 q 750 981 718 1042 q 782 860 782 921 q 718 626 782 763 l 408 -44 l 1 924 l 128 989 l 449 196 l 615 544 q 658 658 644 618 q 672 738 672 699 q 547 957 672 863 l 661 1079 z "},"W":{"ha":1096,"x_min":-1,"x_max":1061,"o":"m 950 1079 q 1032 981 1003 1040 q 1061 860 1061 921 q 1045 747 1061 807 q 1004 629 1029 686 l 715 -33 l 536 449 l 358 -33 l -1 940 l 131 989 l 396 250 l 504 538 l 378 876 l 513 926 l 761 224 l 903 544 q 940 651 926 603 q 954 736 954 699 q 836 957 954 861 l 950 1079 z "},"Ẃ":{"ha":1096,"x_min":-1,"x_max":1061,"o":"m 950 1079 q 1032 981 1003 1040 q 1061 860 1061 921 q 1045 747 1061 807 q 1004 629 1029 686 l 715 -33 l 536 449 l 358 -33 l -1 940 l 131 989 l 396 250 l 504 538 l 378 876 l 513 926 l 761 224 l 903 544 q 940 651 926 603 q 954 736 954 699 q 836 957 954 861 l 950 1079 m 596 1303 l 426 1108 l 447 1081 l 681 1201 l 596 1303 z "},"Ŵ":{"ha":1096,"x_min":-1,"x_max":1061,"o":"m 950 1079 q 1032 981 1003 1040 q 1061 860 1061 921 q 1045 747 1061 807 q 1004 629 1029 686 l 715 -33 l 536 449 l 358 -33 l -1 940 l 131 989 l 396 250 l 504 538 l 378 876 l 513 926 l 761 224 l 903 544 q 940 651 926 603 q 954 736 954 699 q 836 957 954 861 l 950 1079 m 736 1156 l 664 1075 l 510 1215 l 404 1094 l 365 1124 l 544 1329 l 736 1156 z "},"Ẅ":{"ha":1096,"x_min":-1,"x_max":1061,"o":"m 950 1079 q 1032 981 1003 1040 q 1061 860 1061 921 q 1045 747 1061 807 q 1004 629 1029 686 l 715 -33 l 536 449 l 358 -33 l -1 940 l 131 989 l 396 250 l 504 538 l 378 876 l 513 926 l 761 224 l 903 544 q 940 651 926 603 q 954 736 954 699 q 836 957 954 861 l 950 1079 m 426 1299 q 484 1274 460 1299 q 508 1217 508 1250 q 485 1159 508 1182 q 426 1136 461 1136 q 369 1160 393 1136 q 346 1217 346 1183 q 370 1274 346 1249 q 426 1299 394 1299 m 672 1299 q 729 1274 706 1299 q 753 1217 753 1250 q 730 1159 753 1182 q 672 1136 707 1136 q 615 1160 639 1136 q 590 1217 590 1183 q 615 1274 590 1249 q 672 1299 639 1299 z "},"Ẁ":{"ha":1096,"x_min":-1,"x_max":1061,"o":"m 950 1079 q 1032 981 1003 1040 q 1061 860 1061 921 q 1045 747 1061 807 q 1004 629 1029 686 l 715 -33 l 536 449 l 358 -33 l -1 940 l 131 989 l 396 250 l 504 538 l 378 876 l 513 926 l 761 224 l 903 544 q 940 651 926 603 q 954 736 954 699 q 836 957 954 861 l 950 1079 m 661 1108 l 490 1303 l 407 1201 l 640 1079 l 661 1108 z "},"X":{"ha":796,"x_min":15,"x_max":783,"o":"m 658 -29 l 378 394 q 277 173 324 260 q 166 28 231 86 q 15 -29 101 -29 l 56 139 q 63 137 58 138 q 68 136 67 136 q 217 216 156 136 q 344 446 279 296 l 21 938 l 146 986 l 404 593 q 502 801 456 718 q 612 938 549 885 q 758 992 675 992 l 718 824 l 704 825 q 559 751 619 825 q 439 540 499 678 l 783 18 l 658 -29 z "},"Y":{"ha":872,"x_min":-6,"x_max":743,"o":"m 611 250 q 508 70 578 140 q 328 0 439 0 q 203 58 246 0 q 160 201 160 115 l 160 822 q 144 882 160 858 q 96 906 129 906 q 51 892 75 906 q 14 860 26 878 l -6 876 q 53 947 13 917 q 135 978 94 978 q 248 926 207 978 q 289 808 289 875 l 289 256 q 307 127 289 179 q 386 75 325 75 q 517 153 465 75 q 592 336 568 232 q 615 518 615 440 l 615 943 l 743 990 l 743 36 q 704 -136 743 -57 q 592 -262 665 -215 q 424 -310 519 -310 q 214 -233 301 -310 l 326 -139 q 389 -213 347 -179 q 478 -247 431 -247 q 558 -221 526 -247 q 602 -157 589 -194 q 615 -87 615 -119 l 615 250 l 611 250 z "},"Ý":{"ha":872,"x_min":-6,"x_max":743,"o":"m 611 250 q 508 70 578 140 q 328 0 439 0 q 203 58 246 0 q 160 201 160 115 l 160 822 q 144 882 160 858 q 96 906 129 906 q 51 892 75 906 q 14 860 26 878 l -6 876 q 53 947 13 917 q 135 978 94 978 q 248 926 207 978 q 289 808 289 875 l 289 256 q 307 127 289 179 q 386 75 325 75 q 517 153 465 75 q 592 336 568 232 q 615 518 615 440 l 615 943 l 743 990 l 743 36 q 704 -136 743 -57 q 592 -262 665 -215 q 424 -310 519 -310 q 214 -233 301 -310 l 326 -139 q 389 -213 347 -179 q 478 -247 431 -247 q 558 -221 526 -247 q 602 -157 589 -194 q 615 -87 615 -119 l 615 250 l 611 250 m 490 1303 l 321 1108 l 342 1081 l 575 1201 l 490 1303 z "},"Ŷ":{"ha":872,"x_min":-6,"x_max":743,"o":"m 611 250 q 508 70 578 140 q 328 0 439 0 q 203 58 246 0 q 160 201 160 115 l 160 822 q 144 882 160 858 q 96 906 129 906 q 51 892 75 906 q 14 860 26 878 l -6 876 q 53 947 13 917 q 135 978 94 978 q 248 926 207 978 q 289 808 289 875 l 289 256 q 307 127 289 179 q 386 75 325 75 q 517 153 465 75 q 592 336 568 232 q 615 518 615 440 l 615 943 l 743 990 l 743 36 q 704 -136 743 -57 q 592 -262 665 -215 q 424 -310 519 -310 q 214 -233 301 -310 l 326 -139 q 389 -213 347 -179 q 478 -247 431 -247 q 558 -221 526 -247 q 602 -157 589 -194 q 615 -87 615 -119 l 615 250 l 611 250 m 629 1156 l 557 1075 l 403 1215 l 297 1094 l 258 1124 l 438 1329 l 629 1156 z "},"Ÿ":{"ha":872,"x_min":-6,"x_max":743,"o":"m 611 250 q 508 70 578 140 q 328 0 439 0 q 203 58 246 0 q 160 201 160 115 l 160 822 q 144 882 160 858 q 96 906 129 906 q 51 892 75 906 q 14 860 26 878 l -6 876 q 53 947 13 917 q 135 978 94 978 q 248 926 207 978 q 289 808 289 875 l 289 256 q 307 127 289 179 q 386 75 325 75 q 517 153 465 75 q 592 336 568 232 q 615 518 615 440 l 615 943 l 743 990 l 743 36 q 704 -136 743 -57 q 592 -262 665 -215 q 424 -310 519 -310 q 214 -233 301 -310 l 326 -139 q 389 -213 347 -179 q 478 -247 431 -247 q 558 -221 526 -247 q 602 -157 589 -194 q 615 -87 615 -119 l 615 250 l 611 250 m 319 1299 q 377 1274 353 1299 q 401 1217 401 1250 q 378 1159 401 1182 q 319 1136 354 1136 q 263 1160 286 1136 q 239 1217 239 1183 q 263 1274 239 1249 q 319 1299 288 1299 m 565 1299 q 622 1274 599 1299 q 646 1217 646 1250 q 623 1159 646 1182 q 565 1136 600 1136 q 508 1160 532 1136 q 483 1217 483 1183 q 508 1274 483 1249 q 565 1299 532 1299 z "},"Ỳ":{"ha":872,"x_min":-6,"x_max":743,"o":"m 611 250 q 508 70 578 140 q 328 0 439 0 q 203 58 246 0 q 160 201 160 115 l 160 822 q 144 882 160 858 q 96 906 129 906 q 51 892 75 906 q 14 860 26 878 l -6 876 q 53 947 13 917 q 135 978 94 978 q 248 926 207 978 q 289 808 289 875 l 289 256 q 307 127 289 179 q 386 75 325 75 q 517 153 465 75 q 592 336 568 232 q 615 518 615 440 l 615 943 l 743 990 l 743 36 q 704 -136 743 -57 q 592 -262 665 -215 q 424 -310 519 -310 q 214 -233 301 -310 l 326 -139 q 389 -213 347 -179 q 478 -247 431 -247 q 558 -221 526 -247 q 602 -157 589 -194 q 615 -87 615 -119 l 615 250 l 611 250 m 556 1108 l 385 1303 l 301 1201 l 535 1079 l 556 1108 z "},"Z":{"ha":803,"x_min":28,"x_max":771,"o":"m 765 982 l 171 101 l 175 97 q 333 147 246 147 q 419 143 381 147 q 465 138 457 139 q 586 128 529 128 q 674 153 632 128 q 749 217 717 178 l 771 200 l 669 -15 q 576 -1 625 -11 q 513 11 526 8 q 372 35 425 28 q 256 43 318 43 q 155 28 210 43 q 61 -11 100 14 l 28 19 l 578 838 l 382 838 q 225 831 278 838 q 137 804 172 825 q 65 738 101 783 l 36 760 l 161 971 l 568 971 q 673 978 635 971 q 739 1008 711 985 l 765 982 z "},"Ź":{"ha":803,"x_min":28,"x_max":771,"o":"m 765 982 l 171 101 l 175 97 q 333 147 246 147 q 419 143 381 147 q 465 138 457 139 q 586 128 529 128 q 674 153 632 128 q 749 217 717 178 l 771 200 l 669 -15 q 576 -1 625 -11 q 513 11 526 8 q 372 35 425 28 q 256 43 318 43 q 155 28 210 43 q 61 -11 100 14 l 28 19 l 578 838 l 382 838 q 225 831 278 838 q 137 804 172 825 q 65 738 101 783 l 36 760 l 161 971 l 568 971 q 673 978 635 971 q 739 1008 711 985 l 765 982 m 517 1303 l 347 1108 l 368 1081 l 601 1201 l 517 1303 z "},"Ž":{"ha":803,"x_min":28,"x_max":771,"o":"m 765 982 l 171 101 l 175 97 q 333 147 246 147 q 419 143 381 147 q 465 138 457 139 q 586 128 529 128 q 674 153 632 128 q 749 217 717 178 l 771 200 l 669 -15 q 576 -1 625 -11 q 513 11 526 8 q 372 35 425 28 q 256 43 318 43 q 155 28 210 43 q 61 -11 100 14 l 28 19 l 578 838 l 382 838 q 225 831 278 838 q 137 804 172 825 q 65 738 101 783 l 36 760 l 161 971 l 568 971 q 673 978 635 971 q 739 1008 711 985 l 765 982 m 511 1203 l 618 1324 l 656 1293 l 476 1089 l 285 1261 l 358 1342 l 511 1203 z "},"Ż":{"ha":803,"x_min":28,"x_max":771,"o":"m 765 982 l 171 101 l 175 97 q 333 147 246 147 q 419 143 381 147 q 465 138 457 139 q 586 128 529 128 q 674 153 632 128 q 749 217 717 178 l 771 200 l 669 -15 q 576 -1 625 -11 q 513 11 526 8 q 372 35 425 28 q 256 43 318 43 q 155 28 210 43 q 61 -11 100 14 l 28 19 l 578 838 l 382 838 q 225 831 278 838 q 137 804 172 825 q 65 738 101 783 l 36 760 l 161 971 l 568 971 q 673 978 635 971 q 739 1008 711 985 l 765 982 m 469 1301 q 527 1276 503 1301 q 551 1217 551 1251 q 526 1159 551 1183 q 469 1135 501 1135 q 410 1159 435 1135 q 386 1217 386 1183 q 410 1277 386 1253 q 469 1301 435 1301 z "},"a":{"ha":799,"x_min":68,"x_max":786,"o":"m 435 694 q 563 665 503 694 q 651 576 624 636 l 551 522 q 490 580 529 554 q 407 606 451 606 q 283 569 336 606 q 203 469 231 532 q 175 331 175 407 q 213 152 175 221 q 331 83 250 83 q 488 175 444 83 q 531 375 531 267 l 531 438 l 653 489 l 653 124 q 663 89 653 106 q 692 72 672 72 q 765 128 732 72 l 786 106 q 728 26 769 58 q 644 -7 686 -7 q 556 38 585 -7 q 528 156 528 82 l 525 156 q 431 33 490 82 q 307 -17 372 -17 q 128 65 189 -17 q 68 282 68 146 q 117 485 68 390 q 249 638 165 581 q 435 694 333 694 z "},"á":{"ha":799,"x_min":68,"x_max":786,"o":"m 435 694 q 563 665 503 694 q 651 576 624 636 l 551 522 q 490 580 529 554 q 407 606 451 606 q 283 569 336 606 q 203 469 231 532 q 175 331 175 407 q 213 152 175 221 q 331 83 250 83 q 488 175 444 83 q 531 375 531 267 l 531 438 l 653 489 l 653 124 q 663 89 653 106 q 692 72 672 72 q 765 128 732 72 l 786 106 q 728 26 769 58 q 644 -7 686 -7 q 556 38 585 -7 q 528 156 528 82 l 525 156 q 431 33 490 82 q 307 -17 372 -17 q 128 65 189 -17 q 68 282 68 146 q 117 485 68 390 q 249 638 165 581 q 435 694 333 694 m 513 1018 l 343 824 l 364 796 l 597 917 l 513 1018 z "},"ă":{"ha":799,"x_min":68,"x_max":786,"o":"m 435 694 q 563 665 503 694 q 651 576 624 636 l 551 522 q 490 580 529 554 q 407 606 451 606 q 283 569 336 606 q 203 469 231 532 q 175 331 175 407 q 213 152 175 221 q 331 83 250 83 q 488 175 444 83 q 531 375 531 267 l 531 438 l 653 489 l 653 124 q 663 89 653 106 q 692 72 672 72 q 765 128 732 72 l 786 106 q 728 26 769 58 q 644 -7 686 -7 q 556 38 585 -7 q 528 156 528 82 l 525 156 q 431 33 490 82 q 307 -17 372 -17 q 128 65 189 -17 q 68 282 68 146 q 117 485 68 390 q 249 638 165 581 q 435 694 333 694 m 374 1047 q 331 989 347 1025 q 315 917 315 953 q 353 826 315 860 q 449 792 390 792 q 567 833 521 792 q 614 944 614 875 q 572 1050 614 1007 l 481 992 q 510 950 499 975 q 522 900 522 925 q 506 853 522 872 q 463 833 489 833 q 399 875 422 833 q 376 961 376 917 q 396 1029 376 1001 l 374 1047 z "},"â":{"ha":799,"x_min":68,"x_max":786,"o":"m 435 694 q 563 665 503 694 q 651 576 624 636 l 551 522 q 490 580 529 554 q 407 606 451 606 q 283 569 336 606 q 203 469 231 532 q 175 331 175 407 q 213 152 175 221 q 331 83 250 83 q 488 175 444 83 q 531 375 531 267 l 531 438 l 653 489 l 653 124 q 663 89 653 106 q 692 72 672 72 q 765 128 732 72 l 786 106 q 728 26 769 58 q 644 -7 686 -7 q 556 38 585 -7 q 528 156 528 82 l 525 156 q 431 33 490 82 q 307 -17 372 -17 q 128 65 189 -17 q 68 282 68 146 q 117 485 68 390 q 249 638 165 581 q 435 694 333 694 m 651 871 l 579 790 l 425 931 l 319 810 l 281 839 l 460 1044 l 651 871 z "},"ä":{"ha":799,"x_min":68,"x_max":786,"o":"m 435 694 q 563 665 503 694 q 651 576 624 636 l 551 522 q 490 580 529 554 q 407 606 451 606 q 283 569 336 606 q 203 469 231 532 q 175 331 175 407 q 213 152 175 221 q 331 83 250 83 q 488 175 444 83 q 531 375 531 267 l 531 438 l 653 489 l 653 124 q 663 89 653 106 q 692 72 672 72 q 765 128 732 72 l 786 106 q 728 26 769 58 q 644 -7 686 -7 q 556 38 585 -7 q 528 156 528 82 l 525 156 q 431 33 490 82 q 307 -17 372 -17 q 128 65 189 -17 q 68 282 68 146 q 117 485 68 390 q 249 638 165 581 q 435 694 333 694 m 342 1014 q 399 990 375 1014 q 424 932 424 965 q 400 874 424 897 q 342 851 376 851 q 285 875 308 851 q 261 932 261 899 q 285 989 261 964 q 342 1014 310 1014 m 588 1014 q 644 990 621 1014 q 668 932 668 965 q 645 874 668 897 q 588 851 622 851 q 530 875 554 851 q 506 932 506 899 q 530 989 506 964 q 588 1014 554 1014 z "},"à":{"ha":799,"x_min":68,"x_max":786,"o":"m 435 694 q 563 665 503 694 q 651 576 624 636 l 551 522 q 490 580 529 554 q 407 606 451 606 q 283 569 336 606 q 203 469 231 532 q 175 331 175 407 q 213 152 175 221 q 331 83 250 83 q 488 175 444 83 q 531 375 531 267 l 531 438 l 653 489 l 653 124 q 663 89 653 106 q 692 72 672 72 q 765 128 732 72 l 786 106 q 728 26 769 58 q 644 -7 686 -7 q 556 38 585 -7 q 528 156 528 82 l 525 156 q 431 33 490 82 q 307 -17 372 -17 q 128 65 189 -17 q 68 282 68 146 q 117 485 68 390 q 249 638 165 581 q 435 694 333 694 m 576 824 l 406 1018 l 322 917 l 556 794 l 576 824 z "},"ā":{"ha":799,"x_min":68,"x_max":786,"o":"m 435 694 q 563 665 503 694 q 651 576 624 636 l 551 522 q 490 580 529 554 q 407 606 451 606 q 283 569 336 606 q 203 469 231 532 q 175 331 175 407 q 213 152 175 221 q 331 83 250 83 q 488 175 444 83 q 531 375 531 267 l 531 438 l 653 489 l 653 124 q 663 89 653 106 q 692 72 672 72 q 765 128 732 72 l 786 106 q 728 26 769 58 q 644 -7 686 -7 q 556 38 585 -7 q 528 156 528 82 l 525 156 q 431 33 490 82 q 307 -17 372 -17 q 128 65 189 -17 q 68 282 68 146 q 117 485 68 390 q 249 638 165 581 q 435 694 333 694 m 638 978 l 344 978 l 294 882 l 589 882 l 638 978 z "},"ą":{"ha":799,"x_min":68,"x_max":786,"o":"m 689 -190 q 757 -154 729 -190 l 781 -175 q 722 -244 756 -218 q 650 -271 689 -271 q 574 -244 608 -271 q 540 -167 540 -218 q 631 -6 540 -82 q 553 44 578 0 q 528 156 528 88 l 525 156 q 431 33 490 82 q 307 -17 372 -17 q 128 65 189 -17 q 68 282 68 146 q 117 485 68 390 q 249 638 165 581 q 435 694 333 694 q 563 665 503 694 q 651 576 624 636 l 551 522 q 490 580 529 554 q 407 606 451 606 q 283 569 336 606 q 203 469 231 532 q 175 331 175 407 q 213 152 175 221 q 331 83 250 83 q 488 175 444 83 q 531 375 531 267 l 531 438 l 653 489 l 653 124 q 663 89 653 106 q 692 72 672 72 q 765 128 732 72 l 786 106 q 747 42 774 71 q 686 1 719 14 q 642 -59 658 -25 q 625 -124 625 -93 q 641 -172 625 -154 q 689 -190 657 -190 z "},"å":{"ha":799,"x_min":68,"x_max":786,"o":"m 435 694 q 563 665 503 694 q 651 576 624 636 l 551 522 q 490 580 529 554 q 407 606 451 606 q 283 569 336 606 q 203 469 231 532 q 175 331 175 407 q 213 152 175 221 q 331 83 250 83 q 488 175 444 83 q 531 375 531 267 l 531 438 l 653 489 l 653 124 q 663 89 653 106 q 692 72 672 72 q 765 128 732 72 l 786 106 q 728 26 769 58 q 644 -7 686 -7 q 556 38 585 -7 q 528 156 528 82 l 525 156 q 431 33 490 82 q 307 -17 372 -17 q 128 65 189 -17 q 68 282 68 146 q 117 485 68 390 q 249 638 165 581 q 435 694 333 694 m 464 1097 q 563 1058 522 1097 q 603 963 603 1019 q 562 867 603 907 q 464 826 521 826 q 368 867 408 826 q 328 963 328 907 q 368 1058 328 1018 q 464 1097 408 1097 m 442 1051 q 414 1035 424 1051 q 404 996 404 1019 q 431 911 404 947 q 488 875 458 875 q 515 892 506 875 q 525 931 525 908 q 512 990 525 963 q 479 1035 499 1018 q 442 1051 460 1051 z "},"ã":{"ha":799,"x_min":68,"x_max":786,"o":"m 435 694 q 563 665 503 694 q 651 576 624 636 l 551 522 q 490 580 529 554 q 407 606 451 606 q 283 569 336 606 q 203 469 231 532 q 175 331 175 407 q 213 152 175 221 q 331 83 250 83 q 488 175 444 83 q 531 375 531 267 l 531 438 l 653 489 l 653 124 q 663 89 653 106 q 692 72 672 72 q 765 128 732 72 l 786 106 q 728 26 769 58 q 644 -7 686 -7 q 556 38 585 -7 q 528 156 528 82 l 525 156 q 431 33 490 82 q 307 -17 372 -17 q 128 65 189 -17 q 68 282 68 146 q 117 485 68 390 q 249 638 165 581 q 435 694 333 694 m 593 1029 q 624 947 624 993 q 598 874 624 903 q 526 844 572 844 q 481 857 499 844 q 440 893 463 869 q 397 922 414 922 q 371 882 371 922 q 381 847 371 865 l 339 833 q 308 917 308 871 q 334 990 308 960 q 406 1019 360 1019 q 450 1007 432 1019 q 489 972 468 994 q 513 949 504 956 q 533 942 522 942 q 560 982 560 942 q 551 1017 560 1001 l 593 1029 z "},"æ":{"ha":1176,"x_min":61,"x_max":1142,"o":"m 1142 167 q 989 34 1078 85 q 807 -17 900 -17 q 640 37 713 -17 q 535 176 567 90 q 438 31 500 78 q 303 -17 376 -17 q 170 21 225 -17 q 88 122 115 58 q 61 261 61 185 q 109 470 61 369 q 240 633 157 571 q 424 694 324 694 q 542 665 479 694 q 653 594 606 636 q 776 677 708 647 q 917 707 844 707 q 1039 667 990 707 q 1088 547 1088 626 q 1020 405 1088 483 q 861 261 953 326 q 704 169 769 196 q 885 74 793 74 q 1002 109 943 74 q 1121 194 1061 144 l 1142 167 m 633 354 q 676 207 633 276 q 798 287 733 233 q 907 403 863 340 q 951 517 951 465 q 924 594 951 569 q 844 619 897 619 q 737 578 785 619 q 661 476 689 538 q 633 354 633 414 m 342 83 q 518 476 518 83 q 481 572 518 539 q 400 606 443 606 q 278 569 331 606 q 199 469 226 532 q 171 331 171 407 q 188 223 171 281 q 243 124 204 165 q 342 83 282 83 z "},"ǽ":{"ha":1176,"x_min":61,"x_max":1142,"o":"m 1142 167 q 989 34 1078 85 q 807 -17 900 -17 q 640 37 713 -17 q 535 176 567 90 q 438 31 500 78 q 303 -17 376 -17 q 170 21 225 -17 q 88 122 115 58 q 61 261 61 185 q 109 470 61 369 q 240 633 157 571 q 424 694 324 694 q 542 665 479 694 q 653 594 606 636 q 776 677 708 647 q 917 707 844 707 q 1039 667 990 707 q 1088 547 1088 626 q 1020 405 1088 483 q 861 261 953 326 q 704 169 769 196 q 885 74 793 74 q 1002 109 943 74 q 1121 194 1061 144 l 1142 167 m 633 354 q 676 207 633 276 q 798 287 733 233 q 907 403 863 340 q 951 517 951 465 q 924 594 951 569 q 844 619 897 619 q 737 578 785 619 q 661 476 689 538 q 633 354 633 414 m 342 83 q 518 476 518 83 q 481 572 518 539 q 400 606 443 606 q 278 569 331 606 q 199 469 226 532 q 171 331 171 407 q 188 223 171 281 q 243 124 204 165 q 342 83 282 83 m 631 1018 l 461 824 l 482 796 l 715 917 l 631 1018 z "},"b":{"ha":756,"x_min":110,"x_max":692,"o":"m 692 367 q 638 192 692 282 q 503 42 583 101 q 353 -17 424 -17 q 174 60 239 -17 q 110 257 110 138 l 110 1231 l 236 1283 l 236 226 q 276 110 236 160 q 390 60 317 60 q 497 94 451 60 q 565 180 542 129 q 588 276 588 231 q 551 419 588 346 q 458 540 515 493 q 338 588 400 588 l 461 690 q 574 616 521 671 q 660 492 628 561 q 692 367 692 424 z "},"c":{"ha":722,"x_min":57,"x_max":686,"o":"m 453 703 q 558 671 510 703 q 635 569 607 639 l 521 511 q 466 588 507 560 q 379 615 425 615 q 261 581 313 615 q 182 492 210 546 q 154 382 154 438 q 186 215 154 285 q 274 108 218 144 q 399 71 329 71 q 544 112 482 71 q 663 217 607 153 l 686 194 q 542 37 618 90 q 357 -17 467 -17 q 203 24 271 -17 q 96 138 135 64 q 57 310 57 213 q 101 508 57 418 q 235 650 146 597 q 453 703 324 703 z "},"ć":{"ha":722,"x_min":57,"x_max":686,"o":"m 453 703 q 558 671 510 703 q 635 569 607 639 l 521 511 q 466 588 507 560 q 379 615 425 615 q 261 581 313 615 q 182 492 210 546 q 154 382 154 438 q 186 215 154 285 q 274 108 218 144 q 399 71 329 71 q 544 112 482 71 q 663 217 607 153 l 686 194 q 542 37 618 90 q 357 -17 467 -17 q 203 24 271 -17 q 96 138 135 64 q 57 310 57 213 q 101 508 57 418 q 235 650 146 597 q 453 703 324 703 m 425 1018 l 256 824 l 276 796 l 510 917 l 425 1018 z "},"č":{"ha":722,"x_min":57,"x_max":686,"o":"m 453 703 q 558 671 510 703 q 635 569 607 639 l 521 511 q 466 588 507 560 q 379 615 425 615 q 261 581 313 615 q 182 492 210 546 q 154 382 154 438 q 186 215 154 285 q 274 108 218 144 q 399 71 329 71 q 544 112 482 71 q 663 217 607 153 l 686 194 q 542 37 618 90 q 357 -17 467 -17 q 203 24 271 -17 q 96 138 135 64 q 57 310 57 213 q 101 508 57 418 q 235 650 146 597 q 453 703 324 703 m 419 918 l 526 1039 l 564 1008 l 385 804 l 193 976 l 267 1057 l 419 918 z "},"ç":{"ha":722,"x_min":57,"x_max":686,"o":"m 357 -17 q 328 -15 338 -17 l 297 -68 q 367 -50 333 -50 q 442 -80 411 -50 q 472 -161 472 -110 q 435 -244 472 -212 q 351 -275 399 -275 q 288 -258 318 -275 q 242 -208 258 -240 l 268 -193 q 321 -222 289 -222 q 360 -205 344 -222 q 375 -161 375 -187 q 358 -115 375 -133 q 315 -97 340 -97 q 272 -111 293 -97 l 249 -92 l 296 -11 q 122 94 188 8 q 57 310 57 181 q 101 508 57 418 q 235 650 146 597 q 453 703 324 703 q 558 671 510 703 q 635 569 607 639 l 521 511 q 466 588 507 560 q 379 615 425 615 q 261 581 313 615 q 182 492 210 546 q 154 382 154 438 q 186 215 154 285 q 274 108 218 144 q 399 71 329 71 q 544 112 482 71 q 663 217 607 153 l 686 194 q 542 37 618 90 q 357 -17 467 -17 z "},"ĉ":{"ha":722,"x_min":57,"x_max":686,"o":"m 453 703 q 558 671 510 703 q 635 569 607 639 l 521 511 q 466 588 507 560 q 379 615 425 615 q 261 581 313 615 q 182 492 210 546 q 154 382 154 438 q 186 215 154 285 q 274 108 218 144 q 399 71 329 71 q 544 112 482 71 q 663 217 607 153 l 686 194 q 542 37 618 90 q 357 -17 467 -17 q 203 24 271 -17 q 96 138 135 64 q 57 310 57 213 q 101 508 57 418 q 235 650 146 597 q 453 703 324 703 m 564 871 l 492 790 l 338 931 l 232 810 l 193 839 l 372 1044 l 564 871 z "},"ċ":{"ha":722,"x_min":57,"x_max":686,"o":"m 453 703 q 558 671 510 703 q 635 569 607 639 l 521 511 q 466 588 507 560 q 379 615 425 615 q 261 581 313 615 q 182 492 210 546 q 154 382 154 438 q 186 215 154 285 q 274 108 218 144 q 399 71 329 71 q 544 112 482 71 q 663 217 607 153 l 686 194 q 542 37 618 90 q 357 -17 467 -17 q 203 24 271 -17 q 96 138 135 64 q 57 310 57 213 q 101 508 57 418 q 235 650 146 597 q 453 703 324 703 m 378 1017 q 435 992 411 1017 q 460 932 460 967 q 435 874 460 899 q 378 850 410 850 q 319 874 343 850 q 294 932 294 899 q 319 992 294 968 q 378 1017 343 1017 z "},"d":{"ha":813,"x_min":67,"x_max":793,"o":"m 661 124 q 670 88 661 104 q 699 72 679 72 q 738 90 718 72 q 767 128 757 107 l 793 106 q 730 26 771 58 q 650 -7 689 -7 q 557 29 586 -7 q 529 154 528 65 l 524 154 q 317 -17 439 -17 q 131 67 196 -17 q 67 278 67 151 q 110 476 67 378 q 233 639 153 575 q 417 703 313 703 q 531 669 482 703 l 531 1231 l 661 1283 l 661 124 m 408 621 q 280 572 331 621 q 206 455 229 524 q 182 326 182 386 q 199 222 182 279 q 253 124 215 165 q 349 83 290 83 q 492 174 454 83 q 531 375 531 265 l 531 565 q 476 606 507 590 q 408 621 444 621 z "},"ð":{"ha":814,"x_min":51,"x_max":722,"o":"m 511 975 q 669 706 617 857 q 722 385 722 554 q 675 188 722 281 q 547 38 628 94 q 374 -19 467 -19 q 215 24 289 -19 q 97 156 142 67 q 51 376 51 246 q 95 539 51 461 q 214 667 139 617 q 375 724 289 717 l 419 690 q 522 606 486 642 q 309 551 399 607 q 174 416 219 496 q 128 268 128 336 q 183 121 128 181 q 340 61 238 61 q 474 110 417 61 q 563 238 532 158 q 594 408 594 318 q 550 689 594 553 q 414 942 506 825 l 189 864 l 189 953 l 354 1010 q 129 1182 254 1111 l 156 1208 q 443 1042 322 1149 l 661 1118 l 661 1026 l 511 975 z "},"ď":{"ha":813,"x_min":67,"x_max":836,"o":"m 661 124 q 670 88 661 104 q 699 72 679 72 q 738 90 718 72 q 767 128 757 107 l 793 106 q 730 26 771 58 q 650 -7 689 -7 q 557 29 586 -7 q 529 154 528 65 l 524 154 q 317 -17 439 -17 q 131 67 196 -17 q 67 278 67 151 q 110 476 67 378 q 233 639 153 575 q 417 703 313 703 q 531 669 482 703 l 531 1231 l 661 1283 l 661 124 m 408 621 q 280 572 331 621 q 206 455 229 524 q 182 326 182 386 q 199 222 182 279 q 253 124 215 165 q 349 83 290 83 q 492 174 454 83 q 531 375 531 265 l 531 565 q 476 606 507 590 q 408 621 444 621 m 836 958 q 813 1015 836 990 q 760 1039 790 1039 q 703 1015 726 1039 q 681 958 681 992 q 698 912 681 933 q 740 882 715 890 q 728 851 739 868 q 704 821 717 833 l 728 800 q 806 869 776 829 q 836 958 836 910 z "},"đ":{"ha":813,"x_min":67,"x_max":793,"o":"m 793 106 q 730 26 771 58 q 650 -7 689 -7 q 557 29 586 -7 q 529 154 528 65 l 524 154 q 317 -17 439 -17 q 131 67 196 -17 q 67 278 67 151 q 110 476 67 378 q 233 639 153 575 q 417 703 313 703 q 531 669 482 703 l 531 821 l 356 821 l 392 911 l 531 911 l 531 1231 l 661 1283 l 661 911 l 782 911 l 746 821 l 661 821 l 661 124 q 670 88 661 104 q 699 72 679 72 q 738 90 718 72 q 767 128 757 107 l 793 106 m 531 565 q 476 606 507 590 q 408 621 444 621 q 280 572 331 621 q 206 455 229 524 q 182 326 182 386 q 199 222 182 279 q 253 124 215 165 q 349 83 290 83 q 492 174 454 83 q 531 375 531 265 l 531 565 z "},"e":{"ha":725,"x_min":63,"x_max":688,"o":"m 458 707 q 583 667 533 707 q 633 547 633 626 q 565 405 633 483 q 403 261 496 326 q 246 169 311 196 q 325 92 281 114 q 429 71 369 71 q 562 105 496 71 q 671 193 628 139 l 688 164 q 543 30 619 76 q 356 -17 467 -17 q 204 25 271 -17 q 100 137 138 67 q 63 289 63 207 q 118 489 63 392 q 265 647 174 586 q 458 707 357 707 m 386 619 q 277 581 325 619 q 202 481 229 542 q 175 354 175 419 q 215 207 175 268 q 342 287 274 233 q 457 403 410 340 q 504 517 504 465 q 386 619 504 619 z "},"é":{"ha":725,"x_min":63,"x_max":688,"o":"m 458 707 q 583 667 533 707 q 633 547 633 626 q 565 405 633 483 q 403 261 496 326 q 246 169 311 196 q 325 92 281 114 q 429 71 369 71 q 562 105 496 71 q 671 193 628 139 l 688 164 q 543 30 619 76 q 356 -17 467 -17 q 204 25 271 -17 q 100 137 138 67 q 63 289 63 207 q 118 489 63 392 q 265 647 174 586 q 458 707 357 707 m 386 619 q 277 581 325 619 q 202 481 229 542 q 175 354 175 419 q 215 207 175 268 q 342 287 274 233 q 457 403 410 340 q 504 517 504 465 q 386 619 504 619 m 438 1018 l 268 824 l 289 796 l 522 917 l 438 1018 z "},"ĕ":{"ha":725,"x_min":63,"x_max":688,"o":"m 458 707 q 583 667 533 707 q 633 547 633 626 q 565 405 633 483 q 403 261 496 326 q 246 169 311 196 q 325 92 281 114 q 429 71 369 71 q 562 105 496 71 q 671 193 628 139 l 688 164 q 543 30 619 76 q 356 -17 467 -17 q 204 25 271 -17 q 100 137 138 67 q 63 289 63 207 q 118 489 63 392 q 265 647 174 586 q 458 707 357 707 m 386 619 q 277 581 325 619 q 202 481 229 542 q 175 354 175 419 q 215 207 175 268 q 342 287 274 233 q 457 403 410 340 q 504 517 504 465 q 386 619 504 619 m 299 1047 q 256 989 272 1025 q 240 917 240 953 q 278 826 240 860 q 374 792 315 792 q 492 833 446 792 q 539 944 539 875 q 497 1050 539 1007 l 406 992 q 435 950 424 975 q 447 900 447 925 q 431 853 447 872 q 388 833 414 833 q 324 875 347 833 q 301 961 301 917 q 321 1029 301 1001 l 299 1047 z "},"ě":{"ha":725,"x_min":63,"x_max":688,"o":"m 458 707 q 583 667 533 707 q 633 547 633 626 q 565 405 633 483 q 403 261 496 326 q 246 169 311 196 q 325 92 281 114 q 429 71 369 71 q 562 105 496 71 q 671 193 628 139 l 688 164 q 543 30 619 76 q 356 -17 467 -17 q 204 25 271 -17 q 100 137 138 67 q 63 289 63 207 q 118 489 63 392 q 265 647 174 586 q 458 707 357 707 m 386 619 q 277 581 325 619 q 202 481 229 542 q 175 354 175 419 q 215 207 175 268 q 342 287 274 233 q 457 403 410 340 q 504 517 504 465 q 386 619 504 619 m 432 918 l 539 1039 l 576 1008 l 397 804 l 206 976 l 279 1057 l 432 918 z "},"ê":{"ha":725,"x_min":63,"x_max":688,"o":"m 458 707 q 583 667 533 707 q 633 547 633 626 q 565 405 633 483 q 403 261 496 326 q 246 169 311 196 q 325 92 281 114 q 429 71 369 71 q 562 105 496 71 q 671 193 628 139 l 688 164 q 543 30 619 76 q 356 -17 467 -17 q 204 25 271 -17 q 100 137 138 67 q 63 289 63 207 q 118 489 63 392 q 265 647 174 586 q 458 707 357 707 m 386 619 q 277 581 325 619 q 202 481 229 542 q 175 354 175 419 q 215 207 175 268 q 342 287 274 233 q 457 403 410 340 q 504 517 504 465 q 386 619 504 619 m 576 871 l 504 790 l 350 931 l 244 810 l 206 839 l 385 1044 l 576 871 z "},"ë":{"ha":725,"x_min":63,"x_max":688,"o":"m 458 707 q 583 667 533 707 q 633 547 633 626 q 565 405 633 483 q 403 261 496 326 q 246 169 311 196 q 325 92 281 114 q 429 71 369 71 q 562 105 496 71 q 671 193 628 139 l 688 164 q 543 30 619 76 q 356 -17 467 -17 q 204 25 271 -17 q 100 137 138 67 q 63 289 63 207 q 118 489 63 392 q 265 647 174 586 q 458 707 357 707 m 386 619 q 277 581 325 619 q 202 481 229 542 q 175 354 175 419 q 215 207 175 268 q 342 287 274 233 q 457 403 410 340 q 504 517 504 465 q 386 619 504 619 m 267 1014 q 324 990 300 1014 q 349 932 349 965 q 325 874 349 897 q 267 851 301 851 q 210 875 233 851 q 186 932 186 899 q 210 989 186 964 q 267 1014 235 1014 m 513 1014 q 569 990 546 1014 q 593 932 593 965 q 570 874 593 897 q 513 851 547 851 q 455 875 479 851 q 431 932 431 899 q 455 989 431 964 q 513 1014 479 1014 z "},"ė":{"ha":725,"x_min":63,"x_max":688,"o":"m 458 707 q 583 667 533 707 q 633 547 633 626 q 565 405 633 483 q 403 261 496 326 q 246 169 311 196 q 325 92 281 114 q 429 71 369 71 q 562 105 496 71 q 671 193 628 139 l 688 164 q 543 30 619 76 q 356 -17 467 -17 q 204 25 271 -17 q 100 137 138 67 q 63 289 63 207 q 118 489 63 392 q 265 647 174 586 q 458 707 357 707 m 386 619 q 277 581 325 619 q 202 481 229 542 q 175 354 175 419 q 215 207 175 268 q 342 287 274 233 q 457 403 410 340 q 504 517 504 465 q 386 619 504 619 m 390 1017 q 448 992 424 1017 q 472 932 472 967 q 447 874 472 899 q 390 850 422 850 q 331 874 356 850 q 307 932 307 899 q 331 992 307 968 q 390 1017 356 1017 z "},"è":{"ha":725,"x_min":63,"x_max":688,"o":"m 458 707 q 583 667 533 707 q 633 547 633 626 q 565 405 633 483 q 403 261 496 326 q 246 169 311 196 q 325 92 281 114 q 429 71 369 71 q 562 105 496 71 q 671 193 628 139 l 688 164 q 543 30 619 76 q 356 -17 467 -17 q 204 25 271 -17 q 100 137 138 67 q 63 289 63 207 q 118 489 63 392 q 265 647 174 586 q 458 707 357 707 m 386 619 q 277 581 325 619 q 202 481 229 542 q 175 354 175 419 q 215 207 175 268 q 342 287 274 233 q 457 403 410 340 q 504 517 504 465 q 386 619 504 619 m 503 824 l 332 1018 l 249 917 l 482 794 l 503 824 z "},"ē":{"ha":725,"x_min":63,"x_max":688,"o":"m 458 707 q 583 667 533 707 q 633 547 633 626 q 565 405 633 483 q 403 261 496 326 q 246 169 311 196 q 325 92 281 114 q 429 71 369 71 q 562 105 496 71 q 671 193 628 139 l 688 164 q 543 30 619 76 q 356 -17 467 -17 q 204 25 271 -17 q 100 137 138 67 q 63 289 63 207 q 118 489 63 392 q 265 647 174 586 q 458 707 357 707 m 386 619 q 277 581 325 619 q 202 481 229 542 q 175 354 175 419 q 215 207 175 268 q 342 287 274 233 q 457 403 410 340 q 504 517 504 465 q 386 619 504 619 m 564 978 l 271 978 l 221 882 l 515 882 l 564 978 z "},"ę":{"ha":725,"x_min":63,"x_max":688,"o":"m 688 164 q 602 72 646 110 q 506 11 558 33 l 511 6 q 463 -57 481 -22 q 446 -124 446 -92 q 462 -172 446 -154 q 510 -190 478 -190 q 578 -154 550 -190 l 601 -175 q 543 -244 576 -218 q 471 -271 510 -271 q 395 -244 429 -271 q 361 -167 361 -218 q 451 -6 361 -82 q 356 -17 404 -17 q 204 25 271 -17 q 100 137 138 67 q 63 289 63 207 q 118 489 63 392 q 265 647 174 586 q 458 707 357 707 q 583 667 533 707 q 633 547 633 626 q 565 405 633 483 q 403 261 496 326 q 246 169 311 196 q 325 92 281 114 q 429 71 369 71 q 562 105 496 71 q 671 193 628 139 l 688 164 m 175 354 q 215 207 175 268 q 342 287 274 233 q 457 403 410 340 q 504 517 504 465 q 386 619 504 619 q 277 581 325 619 q 202 481 229 542 q 175 354 175 419 z "},"f":{"ha":511,"x_min":39,"x_max":640,"o":"m 454 1294 q 549 1263 494 1294 q 640 1185 604 1232 l 547 1133 q 486 1211 525 1179 q 393 1243 447 1243 q 288 1194 319 1243 q 257 1079 257 1144 l 257 694 l 550 694 l 507 606 l 257 606 l 257 -186 l 129 -247 l 129 606 l 39 606 l 75 694 l 129 694 l 129 882 q 161 1083 129 990 q 265 1235 193 1176 q 454 1294 338 1294 z "},"g":{"ha":757,"x_min":67,"x_max":653,"o":"m 431 713 q 558 676 497 713 q 651 576 619 639 l 551 522 q 492 599 531 571 q 406 626 453 626 q 284 579 336 626 q 203 463 232 532 q 175 331 175 393 q 216 158 175 233 q 347 83 257 83 q 489 176 450 83 q 528 375 528 268 l 528 438 l 653 489 l 653 64 q 604 -151 653 -40 q 470 -336 556 -262 q 278 -410 385 -410 q 157 -357 201 -410 l 275 -257 q 308 -297 285 -282 q 365 -312 331 -312 q 501 -235 469 -312 q 532 -42 532 -158 l 528 72 q 538 156 528 124 l 528 156 q 428 29 476 75 q 314 -17 381 -17 q 131 62 194 -17 q 67 261 67 140 q 115 483 67 379 q 247 649 163 586 q 431 713 331 713 z "},"ğ":{"ha":757,"x_min":67,"x_max":653,"o":"m 431 713 q 558 676 497 713 q 651 576 619 639 l 551 522 q 492 599 531 571 q 406 626 453 626 q 284 579 336 626 q 203 463 232 532 q 175 331 175 393 q 216 158 175 233 q 347 83 257 83 q 489 176 450 83 q 528 375 528 268 l 528 438 l 653 489 l 653 64 q 604 -151 653 -40 q 470 -336 556 -262 q 278 -410 385 -410 q 157 -357 201 -410 l 275 -257 q 308 -297 285 -282 q 365 -312 331 -312 q 501 -235 469 -312 q 532 -42 532 -158 l 528 72 q 538 156 528 124 l 528 156 q 428 29 476 75 q 314 -17 381 -17 q 131 62 194 -17 q 67 261 67 140 q 115 483 67 379 q 247 649 163 586 q 431 713 331 713 m 319 1047 q 277 989 293 1025 q 261 917 261 953 q 299 826 261 860 q 394 792 336 792 q 513 833 467 792 q 560 944 560 875 q 518 1050 560 1007 l 426 992 q 456 950 444 975 q 468 900 468 925 q 451 853 468 872 q 408 833 435 833 q 345 875 368 833 q 322 961 322 917 q 342 1029 322 1001 l 319 1047 z "},"ĝ":{"ha":757,"x_min":67,"x_max":653,"o":"m 431 713 q 558 676 497 713 q 651 576 619 639 l 551 522 q 492 599 531 571 q 406 626 453 626 q 284 579 336 626 q 203 463 232 532 q 175 331 175 393 q 216 158 175 233 q 347 83 257 83 q 489 176 450 83 q 528 375 528 268 l 528 438 l 653 489 l 653 64 q 604 -151 653 -40 q 470 -336 556 -262 q 278 -410 385 -410 q 157 -357 201 -410 l 275 -257 q 308 -297 285 -282 q 365 -312 331 -312 q 501 -235 469 -312 q 532 -42 532 -158 l 528 72 q 538 156 528 124 l 528 156 q 428 29 476 75 q 314 -17 381 -17 q 131 62 194 -17 q 67 261 67 140 q 115 483 67 379 q 247 649 163 586 q 431 713 331 713 m 597 871 l 525 790 l 371 931 l 265 810 l 226 839 l 406 1044 l 597 871 z "},"ģ":{"ha":757,"x_min":67,"x_max":653,"o":"m 431 713 q 558 676 497 713 q 651 576 619 639 l 551 522 q 492 599 531 571 q 406 626 453 626 q 284 579 336 626 q 203 463 232 532 q 175 331 175 393 q 216 158 175 233 q 347 83 257 83 q 489 176 450 83 q 528 375 528 268 l 528 438 l 653 489 l 653 64 q 604 -151 653 -40 q 470 -336 556 -262 q 278 -410 385 -410 q 157 -357 201 -410 l 275 -257 q 308 -297 285 -282 q 365 -312 331 -312 q 501 -235 469 -312 q 532 -42 532 -158 l 528 72 q 538 156 528 124 l 528 156 q 428 29 476 75 q 314 -17 381 -17 q 131 62 194 -17 q 67 261 67 140 q 115 483 67 379 q 247 649 163 586 q 431 713 331 713 m 468 1026 q 443 997 454 1014 q 431 964 432 981 q 472 938 457 958 q 488 889 488 917 q 465 835 488 857 q 411 813 443 813 q 357 835 379 813 q 335 889 335 857 q 365 979 335 939 q 442 1049 394 1019 l 468 1026 z "},"ġ":{"ha":757,"x_min":67,"x_max":653,"o":"m 431 713 q 558 676 497 713 q 651 576 619 639 l 551 522 q 492 599 531 571 q 406 626 453 626 q 284 579 336 626 q 203 463 232 532 q 175 331 175 393 q 216 158 175 233 q 347 83 257 83 q 489 176 450 83 q 528 375 528 268 l 528 438 l 653 489 l 653 64 q 604 -151 653 -40 q 470 -336 556 -262 q 278 -410 385 -410 q 157 -357 201 -410 l 275 -257 q 308 -297 285 -282 q 365 -312 331 -312 q 501 -235 469 -312 q 532 -42 532 -158 l 528 72 q 538 156 528 124 l 528 156 q 428 29 476 75 q 314 -17 381 -17 q 131 62 194 -17 q 67 261 67 140 q 115 483 67 379 q 247 649 163 586 q 431 713 331 713 m 411 1017 q 469 992 444 1017 q 493 932 493 967 q 468 874 493 899 q 411 850 443 850 q 352 874 376 850 q 328 932 328 899 q 352 992 328 968 q 411 1017 376 1017 z "},"h":{"ha":785,"x_min":118,"x_max":760,"o":"m 246 296 l 251 296 q 301 467 265 372 q 396 635 336 563 q 536 707 456 707 q 599 676 579 707 q 623 606 619 644 q 626 503 626 567 l 626 117 q 637 85 626 100 q 669 69 647 69 q 743 124 706 69 l 760 103 q 698 25 740 57 q 613 -7 656 -7 q 504 133 504 -7 l 504 501 q 497 535 504 519 q 471 550 489 550 q 349 440 400 550 q 269 197 297 329 q 242 17 242 64 l 118 -19 l 118 1231 l 246 1283 l 246 296 z "},"ħ":{"ha":785,"x_min":-8,"x_max":760,"o":"m 760 103 q 698 25 740 57 q 613 -7 656 -7 q 504 133 504 -7 l 504 501 q 497 535 504 519 q 471 550 489 550 q 349 440 400 550 q 269 197 297 329 q 242 17 242 64 l 118 -19 l 118 821 l -8 821 l 29 911 l 118 911 l 118 1231 l 246 1283 l 246 911 l 424 911 l 389 821 l 246 821 l 246 296 l 251 296 q 301 467 265 372 q 396 635 336 563 q 536 707 456 707 q 599 676 579 707 q 623 606 619 644 q 626 503 626 567 l 626 117 q 637 85 626 100 q 669 69 647 69 q 743 124 706 69 l 760 103 z "},"ĥ":{"ha":785,"x_min":11,"x_max":760,"o":"m 246 296 l 251 296 q 301 467 265 372 q 396 635 336 563 q 536 707 456 707 q 599 676 579 707 q 623 606 619 644 q 626 503 626 567 l 626 117 q 637 85 626 100 q 669 69 647 69 q 743 124 706 69 l 760 103 q 698 25 740 57 q 613 -7 656 -7 q 504 133 504 -7 l 504 501 q 497 535 504 519 q 471 550 489 550 q 349 440 400 550 q 269 197 297 329 q 242 17 242 64 l 118 -19 l 118 1231 l 246 1283 l 246 296 m 382 1378 l 310 1297 l 156 1438 l 50 1317 l 11 1346 l 190 1551 l 382 1378 z "},"i":{"ha":411,"x_min":104,"x_max":388,"o":"m 207 835 l 161 818 l 104 1107 l 254 1158 l 207 835 m 253 117 q 263 83 253 96 q 293 69 274 69 q 327 83 308 69 q 365 124 346 97 l 388 103 q 310 18 356 43 q 228 -7 265 -7 q 151 25 178 -7 q 124 133 124 57 l 124 639 l 253 689 l 253 117 z "},"ı":{"ha":413,"x_min":125,"x_max":389,"o":"m 253 117 q 264 83 253 96 q 294 69 275 69 q 367 124 326 69 l 389 103 q 311 18 357 43 q 228 -7 265 -7 q 151 24 176 -7 q 125 133 125 56 l 125 639 l 253 689 l 253 117 z "},"í":{"ha":413,"x_min":53,"x_max":389,"o":"m 253 117 q 264 83 253 96 q 294 69 275 69 q 367 124 326 69 l 389 103 q 311 18 357 43 q 228 -7 265 -7 q 151 24 176 -7 q 125 133 125 56 l 125 639 l 253 689 l 253 117 m 222 1018 l 53 824 l 74 796 l 307 917 l 222 1018 z "},"ĭ":{"ha":413,"x_min":25,"x_max":389,"o":"m 253 117 q 264 83 253 96 q 294 69 275 69 q 367 124 326 69 l 389 103 q 311 18 357 43 q 228 -7 265 -7 q 151 24 176 -7 q 125 133 125 56 l 125 639 l 253 689 l 253 117 m 83 1047 q 41 989 57 1025 q 25 917 25 953 q 63 826 25 860 q 158 792 100 792 q 277 833 231 792 q 324 944 324 875 q 282 1050 324 1007 l 190 992 q 220 950 208 975 q 232 900 232 925 q 215 853 232 872 q 172 833 199 833 q 109 875 132 833 q 86 961 86 917 q 106 1029 86 1001 l 83 1047 z "},"î":{"ha":413,"x_min":-10,"x_max":389,"o":"m 253 117 q 264 83 253 96 q 294 69 275 69 q 367 124 326 69 l 389 103 q 311 18 357 43 q 228 -7 265 -7 q 151 24 176 -7 q 125 133 125 56 l 125 639 l 253 689 l 253 117 m 361 871 l 289 790 l 135 931 l 29 810 l -10 839 l 169 1044 l 361 871 z "},"ï":{"ha":413,"x_min":-29,"x_max":389,"o":"m 253 117 q 264 83 253 96 q 294 69 275 69 q 367 124 326 69 l 389 103 q 311 18 357 43 q 228 -7 265 -7 q 151 24 176 -7 q 125 133 125 56 l 125 639 l 253 689 l 253 117 m 51 1014 q 109 990 85 1014 q 133 932 133 965 q 110 874 133 897 q 51 851 86 851 q -6 875 18 851 q -29 932 -29 899 q -5 989 -29 964 q 51 1014 19 1014 m 297 1014 q 354 990 331 1014 q 378 932 378 965 q 355 874 378 897 q 297 851 332 851 q 240 875 264 851 q 215 932 215 899 q 240 989 215 964 q 297 1014 264 1014 z "},"ì":{"ha":413,"x_min":33,"x_max":389,"o":"m 253 117 q 264 83 253 96 q 294 69 275 69 q 367 124 326 69 l 389 103 q 311 18 357 43 q 228 -7 265 -7 q 151 24 176 -7 q 125 133 125 56 l 125 639 l 253 689 l 253 117 m 288 824 l 117 1018 l 33 917 l 267 794 l 288 824 z "},"ĳ":{"ha":793,"x_min":104,"x_max":682,"o":"m 207 835 l 161 818 l 104 1107 l 254 1158 l 207 835 m 253 117 q 263 83 253 96 q 293 69 274 69 q 327 83 308 69 q 365 124 346 97 l 388 103 q 310 18 356 43 q 228 -7 265 -7 q 151 25 178 -7 q 124 133 124 57 l 124 639 l 253 689 l 253 117 m 582 818 l 631 835 l 682 1158 l 528 1107 l 582 818 m 549 638 l 549 -17 q 504 -238 549 -181 q 389 -296 460 -296 q 253 -247 307 -296 l 153 -371 q 271 -408 208 -408 q 464 -341 371 -408 q 615 -162 557 -274 q 672 75 672 -51 l 672 689 l 549 638 z "},"ī":{"ha":413,"x_min":6,"x_max":389,"o":"m 253 117 q 264 83 253 96 q 294 69 275 69 q 367 124 326 69 l 389 103 q 311 18 357 43 q 228 -7 265 -7 q 151 24 176 -7 q 125 133 125 56 l 125 639 l 253 689 l 253 117 m 349 978 l 56 978 l 6 882 l 300 882 l 349 978 z "},"į":{"ha":411,"x_min":72,"x_max":388,"o":"m 161 818 l 104 1107 l 254 1158 l 207 835 l 161 818 m 228 -7 q 214 -6 218 -7 q 172 -65 188 -32 q 157 -126 157 -97 q 173 -175 157 -157 q 221 -193 189 -193 q 289 -157 261 -193 l 313 -178 q 254 -247 288 -221 q 182 -274 221 -274 q 106 -247 140 -274 q 72 -169 72 -221 q 178 3 72 -78 q 124 133 124 31 l 124 639 l 253 689 l 253 117 q 263 83 253 96 q 293 69 274 69 q 327 83 308 69 q 365 124 346 97 l 388 103 q 310 18 356 43 q 228 -7 265 -7 z "},"ĩ":{"ha":413,"x_min":19,"x_max":389,"o":"m 253 117 q 264 83 253 96 q 294 69 275 69 q 367 124 326 69 l 389 103 q 311 18 357 43 q 228 -7 265 -7 q 151 24 176 -7 q 125 133 125 56 l 125 639 l 253 689 l 253 117 m 304 1029 q 335 947 335 993 q 309 874 335 903 q 238 844 283 844 q 192 857 210 844 q 151 893 174 869 q 108 922 125 922 q 82 882 82 922 q 92 847 82 865 l 50 833 q 19 917 19 871 q 45 990 19 960 q 117 1019 71 1019 q 161 1007 143 1019 q 200 972 179 994 q 224 949 215 956 q 244 942 233 942 q 271 982 271 942 q 263 1017 271 1001 l 304 1029 z "},"j":{"ha":382,"x_min":-258,"x_max":271,"o":"m 171 818 l 219 835 l 271 1158 l 117 1107 l 171 818 m 138 638 l 138 -17 q 93 -238 138 -181 q -22 -296 49 -296 q -158 -247 -104 -296 l -258 -371 q -140 -408 -203 -408 q 53 -341 -40 -408 q 203 -162 146 -274 q 261 75 261 -51 l 261 689 l 138 638 z "},"ȷ":{"ha":381,"x_min":-258,"x_max":261,"o":"m 138 638 l 138 -17 q 93 -238 138 -181 q -22 -296 49 -296 q -94 -285 -61 -296 q -158 -247 -128 -275 l -258 -371 q -144 -408 -203 -408 q 51 -341 -43 -408 q 203 -162 146 -274 q 261 75 261 -51 l 261 689 l 138 638 z "},"ĵ":{"ha":381,"x_min":-258,"x_max":390,"o":"m 138 638 l 138 -17 q 93 -238 138 -181 q -22 -296 49 -296 q -94 -285 -61 -296 q -158 -247 -128 -275 l -258 -371 q -144 -408 -203 -408 q 51 -341 -43 -408 q 203 -162 146 -274 q 261 75 261 -51 l 261 689 l 138 638 m 390 871 l 318 790 l 164 931 l 58 810 l 19 839 l 199 1044 l 390 871 z "},"k":{"ha":769,"x_min":119,"x_max":751,"o":"m 244 269 l 254 269 q 372 567 294 428 q 558 707 449 707 q 629 672 603 707 q 656 588 656 638 q 583 425 656 503 q 418 292 511 347 q 466 222 425 282 q 556 114 507 161 q 639 67 604 67 q 729 114 689 67 l 751 90 q 667 15 721 43 q 563 -14 614 -14 q 455 31 503 -14 q 351 153 407 75 q 285 232 307 214 l 272 222 q 256 128 263 190 q 247 17 249 65 l 119 -19 l 119 1231 l 244 1283 l 244 269 m 472 557 q 389 487 431 557 q 303 311 347 417 q 278 257 281 260 q 446 364 371 296 q 521 501 521 432 q 508 538 521 519 q 472 557 494 557 z "},"ķ":{"ha":769,"x_min":119,"x_max":751,"o":"m 244 269 l 254 269 q 372 567 294 428 q 558 707 449 707 q 629 672 603 707 q 656 588 656 638 q 583 425 656 503 q 418 292 511 347 q 466 222 425 282 q 556 114 507 161 q 639 67 604 67 q 729 114 689 67 l 751 90 q 667 15 721 43 q 563 -14 614 -14 q 455 31 503 -14 q 351 153 407 75 q 285 232 307 214 l 272 222 q 256 128 263 190 q 247 17 249 65 l 119 -19 l 119 1231 l 244 1283 l 244 269 m 472 557 q 389 487 431 557 q 303 311 347 417 q 278 257 281 260 q 446 364 371 296 q 521 501 521 432 q 508 538 521 519 q 472 557 494 557 m 458 -137 q 435 -82 458 -106 q 381 -58 413 -58 q 327 -82 350 -58 q 304 -137 304 -106 q 320 -185 304 -164 q 363 -214 336 -207 q 325 -276 353 -249 l 350 -297 q 428 -228 397 -269 q 458 -137 458 -186 z "},"ĸ":{"ha":769,"x_min":119,"x_max":733,"o":"m 246 733 l 246 269 l 257 269 q 320 458 279 358 q 424 633 361 558 q 564 707 486 707 q 635 672 607 707 q 663 588 663 636 q 578 408 663 493 q 389 267 494 322 q 415 247 397 265 q 451 204 432 228 q 544 104 504 142 q 619 67 585 67 q 704 114 671 67 l 733 90 q 660 15 708 43 q 567 -14 611 -14 q 479 31 528 -14 q 364 153 431 75 q 288 232 308 218 l 275 232 q 254 111 260 193 q 247 17 249 29 l 119 -19 l 119 681 l 246 733 m 475 557 q 318 329 408 557 q 300 290 301 292 q 369 342 311 293 q 476 444 428 392 q 524 521 524 496 q 510 544 524 531 q 475 557 497 557 z "},"l":{"ha":415,"x_min":128,"x_max":393,"o":"m 253 117 q 263 85 253 100 q 296 69 272 69 q 337 87 315 69 q 369 124 358 104 l 393 103 q 328 25 369 57 q 244 -7 286 -7 q 128 133 128 -7 l 128 1231 l 253 1283 l 253 117 z "},"ĺ":{"ha":415,"x_min":83,"x_max":393,"o":"m 253 117 q 263 85 253 100 q 296 69 272 69 q 337 87 315 69 q 369 124 358 104 l 393 103 q 328 25 369 57 q 244 -7 286 -7 q 128 133 128 -7 l 128 1231 l 253 1283 l 253 117 m 253 1525 l 83 1331 l 104 1303 l 338 1424 l 253 1525 z "},"ľ":{"ha":415,"x_min":128,"x_max":469,"o":"m 253 117 q 263 85 253 100 q 296 69 272 69 q 337 87 315 69 q 369 124 358 104 l 393 103 q 328 25 369 57 q 244 -7 286 -7 q 128 133 128 -7 l 128 1231 l 253 1283 l 253 117 m 469 958 q 447 1015 469 990 q 393 1039 424 1039 q 337 1015 360 1039 q 314 958 314 992 q 331 912 314 933 q 374 882 349 890 q 361 851 372 868 q 338 821 350 833 l 361 800 q 440 869 410 829 q 469 958 469 910 z "},"ļ":{"ha":415,"x_min":128,"x_max":393,"o":"m 253 117 q 263 85 253 100 q 296 69 272 69 q 337 87 315 69 q 369 124 358 104 l 393 103 q 328 25 369 57 q 244 -7 286 -7 q 128 133 128 -7 l 128 1231 l 253 1283 l 253 117 m 283 -137 q 260 -82 283 -106 q 206 -58 238 -58 q 152 -82 175 -58 q 129 -137 129 -106 q 145 -185 129 -164 q 188 -214 161 -207 q 150 -276 178 -249 l 175 -297 q 253 -228 222 -269 q 283 -137 283 -186 z "},"ŀ":{"ha":415,"x_min":128,"x_max":486,"o":"m 253 117 q 263 85 253 100 q 296 69 272 69 q 337 87 315 69 q 369 124 358 104 l 393 103 q 328 25 369 57 q 244 -7 286 -7 q 128 133 128 -7 l 128 1231 l 253 1283 l 253 117 m 486 504 q 460 563 486 538 q 401 588 435 588 q 342 563 367 588 q 318 504 318 539 q 342 444 318 468 q 401 421 367 421 q 461 444 436 421 q 486 504 486 468 z "},"ł":{"ha":415,"x_min":1,"x_max":415,"o":"m 253 594 l 253 117 q 263 85 253 100 q 296 69 272 69 q 337 87 315 69 q 369 124 358 104 l 393 103 q 328 25 369 57 q 244 -7 286 -7 q 128 133 128 -7 l 128 540 l 1 486 l 1 582 l 128 638 l 128 1231 l 253 1283 l 253 692 l 415 763 l 415 665 l 253 594 z "},"m":{"ha":1082,"x_min":44,"x_max":1042,"o":"m 822 707 q 887 680 864 707 q 910 589 910 653 l 910 117 q 919 83 910 96 q 946 69 929 69 q 982 83 963 69 q 1019 124 1001 97 l 1042 103 q 972 16 1013 40 q 957 -8 932 -8 q 897 -7 982 -7 q 782 133 782 -7 l 782 517 q 775 540 782 531 q 757 550 768 550 q 690 483 726 550 q 629 295 654 417 q 604 17 604 174 l 478 -19 l 478 517 q 471 540 478 531 q 454 550 464 550 q 390 483 426 550 q 326 294 353 415 q 299 17 299 172 l 179 -19 l 179 575 q 167 613 179 599 q 138 626 156 626 q 67 567 103 626 l 44 589 q 114 678 74 651 q 163 706 154 706 q 190 707 172 707 q 281 678 257 707 q 304 603 304 650 l 304 371 l 308 371 q 402 615 343 522 q 519 707 461 707 q 584 681 563 707 q 606 589 606 654 l 606 371 l 614 371 q 706 615 649 522 q 822 707 764 707 z "},"n":{"ha":844,"x_min":24,"x_max":822,"o":"m 601 707 q 674 666 657 707 q 690 553 690 625 l 690 510 l 690 117 q 700 85 690 101 q 728 69 710 69 q 768 85 751 69 q 801 124 785 100 l 822 103 q 760 26 801 58 q 681 -7 718 -7 q 594 28 625 -7 q 564 133 564 63 l 564 501 q 560 536 564 522 q 539 550 556 550 q 422 440 482 550 q 320 195 363 331 q 278 17 278 60 l 157 -19 l 157 575 q 147 610 157 594 q 117 626 136 626 q 44 567 83 626 l 24 589 q 83 673 42 639 q 167 707 125 707 q 253 679 225 707 q 282 603 282 651 l 282 238 l 288 238 q 360 453 325 361 q 457 626 394 544 q 601 707 519 707 z "},"ń":{"ha":844,"x_min":24,"x_max":822,"o":"m 601 707 q 674 666 657 707 q 690 553 690 625 l 690 510 l 690 117 q 700 85 690 101 q 728 69 710 69 q 768 85 751 69 q 801 124 785 100 l 822 103 q 760 26 801 58 q 681 -7 718 -7 q 594 28 625 -7 q 564 133 564 63 l 564 501 q 560 536 564 522 q 539 550 556 550 q 422 440 482 550 q 320 195 363 331 q 278 17 278 60 l 157 -19 l 157 575 q 147 610 157 594 q 117 626 136 626 q 44 567 83 626 l 24 589 q 83 673 42 639 q 167 707 125 707 q 253 679 225 707 q 282 603 282 651 l 282 238 l 288 238 q 360 453 325 361 q 457 626 394 544 q 601 707 519 707 m 489 1018 l 319 824 l 340 796 l 574 917 l 489 1018 z "},"ŉ":{"ha":844,"x_min":24,"x_max":822,"o":"m 601 707 q 674 666 657 707 q 690 553 690 625 l 690 510 l 690 117 q 700 85 690 101 q 728 69 710 69 q 768 85 751 69 q 801 124 785 100 l 822 103 q 760 26 801 58 q 681 -7 718 -7 q 594 28 625 -7 q 564 133 564 63 l 564 501 q 560 536 564 522 q 539 550 556 550 q 422 440 482 550 q 320 195 363 331 q 278 17 278 60 l 157 -19 l 157 575 q 147 610 157 594 q 117 626 136 626 q 44 567 83 626 l 24 589 q 83 673 42 639 q 167 707 125 707 q 253 679 225 707 q 282 603 282 651 l 282 238 l 288 238 q 360 453 325 361 q 457 626 394 544 q 601 707 519 707 m 278 958 q 255 1015 278 990 q 201 1039 232 1039 q 145 1015 168 1039 q 122 958 122 992 q 140 912 122 933 q 182 882 157 890 q 169 851 181 868 q 146 821 158 833 l 169 800 q 248 869 218 829 q 278 958 278 910 z "},"ň":{"ha":844,"x_min":24,"x_max":822,"o":"m 601 707 q 674 666 657 707 q 690 553 690 625 l 690 510 l 690 117 q 700 85 690 101 q 728 69 710 69 q 768 85 751 69 q 801 124 785 100 l 822 103 q 760 26 801 58 q 681 -7 718 -7 q 594 28 625 -7 q 564 133 564 63 l 564 501 q 560 536 564 522 q 539 550 556 550 q 422 440 482 550 q 320 195 363 331 q 278 17 278 60 l 157 -19 l 157 575 q 147 610 157 594 q 117 626 136 626 q 44 567 83 626 l 24 589 q 83 673 42 639 q 167 707 125 707 q 253 679 225 707 q 282 603 282 651 l 282 238 l 288 238 q 360 453 325 361 q 457 626 394 544 q 601 707 519 707 m 483 918 l 590 1039 l 628 1008 l 449 804 l 257 976 l 331 1057 l 483 918 z "},"ņ":{"ha":844,"x_min":24,"x_max":822,"o":"m 601 707 q 674 666 657 707 q 690 553 690 625 l 690 510 l 690 117 q 700 85 690 101 q 728 69 710 69 q 768 85 751 69 q 801 124 785 100 l 822 103 q 760 26 801 58 q 681 -7 718 -7 q 594 28 625 -7 q 564 133 564 63 l 564 501 q 560 536 564 522 q 539 550 556 550 q 422 440 482 550 q 320 195 363 331 q 278 17 278 60 l 157 -19 l 157 575 q 147 610 157 594 q 117 626 136 626 q 44 567 83 626 l 24 589 q 83 673 42 639 q 167 707 125 707 q 253 679 225 707 q 282 603 282 651 l 282 238 l 288 238 q 360 453 325 361 q 457 626 394 544 q 601 707 519 707 m 501 -137 q 478 -82 501 -106 q 424 -58 456 -58 q 370 -82 393 -58 q 347 -137 347 -106 q 363 -185 347 -164 q 406 -214 379 -207 q 368 -276 396 -249 l 393 -297 q 471 -228 440 -269 q 501 -137 501 -186 z "},"ŋ":{"ha":817,"x_min":24,"x_max":689,"o":"m 594 707 q 660 676 639 707 q 685 605 681 644 q 689 503 689 565 l 689 75 q 635 -150 689 -37 q 491 -335 582 -262 q 293 -408 400 -408 q 178 -371 228 -408 l 274 -247 q 407 -296 329 -296 q 513 -257 479 -296 q 556 -149 547 -218 q 564 51 564 -79 l 564 110 l 564 501 q 538 550 564 550 q 423 437 482 550 q 321 186 364 324 q 278 17 278 49 l 157 -19 l 157 575 q 147 610 157 594 q 117 626 136 626 q 44 567 83 626 l 24 589 q 82 674 42 640 q 165 707 122 707 q 253 679 225 707 q 282 603 282 651 l 282 224 l 283 224 q 405 553 328 400 q 594 707 482 707 z "},"ñ":{"ha":844,"x_min":24,"x_max":822,"o":"m 601 707 q 674 666 657 707 q 690 553 690 625 l 690 510 l 690 117 q 700 85 690 101 q 728 69 710 69 q 768 85 751 69 q 801 124 785 100 l 822 103 q 760 26 801 58 q 681 -7 718 -7 q 594 28 625 -7 q 564 133 564 63 l 564 501 q 560 536 564 522 q 539 550 556 550 q 422 440 482 550 q 320 195 363 331 q 278 17 278 60 l 157 -19 l 157 575 q 147 610 157 594 q 117 626 136 626 q 44 567 83 626 l 24 589 q 83 673 42 639 q 167 707 125 707 q 253 679 225 707 q 282 603 282 651 l 282 238 l 288 238 q 360 453 325 361 q 457 626 394 544 q 601 707 519 707 m 571 1029 q 601 947 601 993 q 576 874 601 903 q 504 844 550 844 q 458 857 476 844 q 418 893 440 869 q 375 922 392 922 q 349 882 349 922 q 358 847 349 865 l 317 833 q 286 917 286 871 q 312 990 286 960 q 383 1019 338 1019 q 428 1007 410 1019 q 467 972 446 994 q 491 949 482 956 q 511 942 500 942 q 538 982 538 942 q 529 1017 538 1001 l 571 1029 z "},"o":{"ha":764,"x_min":63,"x_max":703,"o":"m 411 678 q 247 529 307 611 q 188 336 188 447 q 214 210 188 274 q 293 106 240 147 q 419 64 346 64 q 526 92 479 64 q 598 167 572 119 q 624 271 624 214 q 584 404 624 336 q 481 519 544 472 q 350 572 417 567 q 417 631 378 600 q 496 690 456 661 q 647 569 592 658 q 703 369 703 479 q 663 183 703 272 q 547 37 624 93 q 367 -19 471 -19 q 213 22 283 -19 q 103 133 143 63 q 63 290 63 204 q 152 553 63 442 q 386 707 242 664 l 411 678 z "},"ó":{"ha":764,"x_min":63,"x_max":703,"o":"m 411 678 q 247 529 307 611 q 188 336 188 447 q 214 210 188 274 q 293 106 240 147 q 419 64 346 64 q 526 92 479 64 q 598 167 572 119 q 624 271 624 214 q 584 404 624 336 q 481 519 544 472 q 350 572 417 567 q 417 631 378 600 q 496 690 456 661 q 647 569 592 658 q 703 369 703 479 q 663 183 703 272 q 547 37 624 93 q 367 -19 471 -19 q 213 22 283 -19 q 103 133 143 63 q 63 290 63 204 q 152 553 63 442 q 386 707 242 664 l 411 678 m 443 1018 l 274 824 l 294 796 l 528 917 l 443 1018 z "},"ŏ":{"ha":764,"x_min":63,"x_max":703,"o":"m 411 678 q 247 529 307 611 q 188 336 188 447 q 214 210 188 274 q 293 106 240 147 q 419 64 346 64 q 526 92 479 64 q 598 167 572 119 q 624 271 624 214 q 584 404 624 336 q 481 519 544 472 q 350 572 417 567 q 417 631 378 600 q 496 690 456 661 q 647 569 592 658 q 703 369 703 479 q 663 183 703 272 q 547 37 624 93 q 367 -19 471 -19 q 213 22 283 -19 q 103 133 143 63 q 63 290 63 204 q 152 553 63 442 q 386 707 242 664 l 411 678 m 304 1047 q 262 989 278 1025 q 246 917 246 953 q 283 826 246 860 q 379 792 321 792 q 498 833 451 792 q 544 944 544 875 q 503 1050 544 1007 l 411 992 q 441 950 429 975 q 453 900 453 925 q 436 853 453 872 q 393 833 419 833 q 330 875 353 833 q 307 961 307 917 q 326 1029 307 1001 l 304 1047 z "},"ô":{"ha":764,"x_min":63,"x_max":703,"o":"m 411 678 q 247 529 307 611 q 188 336 188 447 q 214 210 188 274 q 293 106 240 147 q 419 64 346 64 q 526 92 479 64 q 598 167 572 119 q 624 271 624 214 q 584 404 624 336 q 481 519 544 472 q 350 572 417 567 q 417 631 378 600 q 496 690 456 661 q 647 569 592 658 q 703 369 703 479 q 663 183 703 272 q 547 37 624 93 q 367 -19 471 -19 q 213 22 283 -19 q 103 133 143 63 q 63 290 63 204 q 152 553 63 442 q 386 707 242 664 l 411 678 m 582 871 l 510 790 l 356 931 l 250 810 l 211 839 l 390 1044 l 582 871 z "},"ö":{"ha":764,"x_min":63,"x_max":703,"o":"m 411 678 q 247 529 307 611 q 188 336 188 447 q 214 210 188 274 q 293 106 240 147 q 419 64 346 64 q 526 92 479 64 q 598 167 572 119 q 624 271 624 214 q 584 404 624 336 q 481 519 544 472 q 350 572 417 567 q 417 631 378 600 q 496 690 456 661 q 647 569 592 658 q 703 369 703 479 q 663 183 703 272 q 547 37 624 93 q 367 -19 471 -19 q 213 22 283 -19 q 103 133 143 63 q 63 290 63 204 q 152 553 63 442 q 386 707 242 664 l 411 678 m 272 1014 q 330 990 306 1014 q 354 932 354 965 q 331 874 354 897 q 272 851 307 851 q 215 875 239 851 q 192 932 192 899 q 216 989 192 964 q 272 1014 240 1014 m 518 1014 q 575 990 551 1014 q 599 932 599 965 q 576 874 599 897 q 518 851 553 851 q 460 875 485 851 q 436 932 436 899 q 460 989 436 964 q 518 1014 485 1014 z "},"ò":{"ha":764,"x_min":63,"x_max":703,"o":"m 411 678 q 247 529 307 611 q 188 336 188 447 q 214 210 188 274 q 293 106 240 147 q 419 64 346 64 q 526 92 479 64 q 598 167 572 119 q 624 271 624 214 q 584 404 624 336 q 481 519 544 472 q 350 572 417 567 q 417 631 378 600 q 496 690 456 661 q 647 569 592 658 q 703 369 703 479 q 663 183 703 272 q 547 37 624 93 q 367 -19 471 -19 q 213 22 283 -19 q 103 133 143 63 q 63 290 63 204 q 152 553 63 442 q 386 707 242 664 l 411 678 m 508 824 l 338 1018 l 254 917 l 488 794 l 508 824 z "},"ő":{"ha":764,"x_min":63,"x_max":703,"o":"m 411 678 q 247 529 307 611 q 188 336 188 447 q 214 210 188 274 q 293 106 240 147 q 419 64 346 64 q 526 92 479 64 q 598 167 572 119 q 624 271 624 214 q 584 404 624 336 q 481 519 544 472 q 350 572 417 567 q 417 631 378 600 q 496 690 456 661 q 647 569 592 658 q 703 369 703 479 q 663 183 703 272 q 547 37 624 93 q 367 -19 471 -19 q 213 22 283 -19 q 103 133 143 63 q 63 290 63 204 q 152 553 63 442 q 386 707 242 664 l 411 678 m 335 1018 l 172 824 l 194 796 l 418 917 l 335 1018 m 536 1018 l 372 824 l 394 796 l 619 917 l 536 1018 z "},"ō":{"ha":764,"x_min":63,"x_max":703,"o":"m 411 678 q 247 529 307 611 q 188 336 188 447 q 214 210 188 274 q 293 106 240 147 q 419 64 346 64 q 526 92 479 64 q 598 167 572 119 q 624 271 624 214 q 584 404 624 336 q 481 519 544 472 q 350 572 417 567 q 417 631 378 600 q 496 690 456 661 q 647 569 592 658 q 703 369 703 479 q 663 183 703 272 q 547 37 624 93 q 367 -19 471 -19 q 213 22 283 -19 q 103 133 143 63 q 63 290 63 204 q 152 553 63 442 q 386 707 242 664 l 411 678 m 569 978 l 276 978 l 226 882 l 521 882 l 569 978 z "},"ø":{"ha":764,"x_min":63,"x_max":703,"o":"m 496 690 q 647 569 592 658 q 703 369 703 479 q 663 183 703 272 q 547 37 624 93 q 367 -19 471 -19 q 213 22 283 -19 q 103 133 143 63 q 63 290 63 204 q 152 553 63 442 q 386 707 242 664 l 411 678 q 247 529 307 611 q 188 336 188 447 q 214 210 188 274 q 293 106 240 147 q 419 64 346 64 q 526 92 479 64 q 598 167 572 119 q 624 271 624 214 q 584 404 624 336 q 481 519 544 472 q 350 572 417 567 q 417 631 378 600 q 496 690 456 661 z "},"ǿ":{"ha":764,"x_min":63,"x_max":703,"o":"m 294 796 l 274 824 l 443 1018 l 528 917 l 294 796 m 496 690 q 647 569 592 658 q 703 369 703 479 q 663 183 703 272 q 547 37 624 93 q 367 -19 471 -19 q 213 22 283 -19 q 103 133 143 63 q 63 290 63 204 q 152 553 63 442 q 386 707 242 664 l 411 678 q 247 529 307 611 q 188 336 188 447 q 214 210 188 274 q 293 106 240 147 q 419 64 346 64 q 526 92 479 64 q 598 167 572 119 q 624 271 624 214 q 584 404 624 336 q 481 519 544 472 q 350 572 417 567 q 417 631 378 600 q 496 690 456 661 z "},"õ":{"ha":764,"x_min":63,"x_max":703,"o":"m 411 678 q 247 529 307 611 q 188 336 188 447 q 214 210 188 274 q 293 106 240 147 q 419 64 346 64 q 526 92 479 64 q 598 167 572 119 q 624 271 624 214 q 584 404 624 336 q 481 519 544 472 q 350 572 417 567 q 417 631 378 600 q 496 690 456 661 q 647 569 592 658 q 703 369 703 479 q 663 183 703 272 q 547 37 624 93 q 367 -19 471 -19 q 213 22 283 -19 q 103 133 143 63 q 63 290 63 204 q 152 553 63 442 q 386 707 242 664 l 411 678 m 525 1029 q 556 947 556 993 q 530 874 556 903 q 458 844 504 844 q 413 857 431 844 q 372 893 394 869 q 329 922 346 922 q 303 882 303 922 q 313 847 303 865 l 271 833 q 240 917 240 871 q 266 990 240 960 q 338 1019 292 1019 q 382 1007 364 1019 q 421 972 400 994 q 445 949 436 956 q 465 942 454 942 q 492 982 492 942 q 483 1017 492 1001 l 525 1029 z "},"œ":{"ha":1290,"x_min":63,"x_max":1253,"o":"m 1253 164 q 1107 30 1183 76 q 919 -17 1031 -17 q 756 32 826 -17 q 653 161 686 81 q 537 30 610 79 q 367 -19 464 -19 q 213 22 283 -19 q 103 133 143 63 q 63 290 63 204 q 152 553 63 442 q 386 707 242 664 l 411 678 q 247 529 307 611 q 188 336 188 447 q 214 210 188 274 q 293 106 240 147 q 419 64 346 64 q 526 92 479 64 q 598 167 572 119 q 624 271 624 214 q 584 404 624 336 q 481 519 544 472 q 350 572 417 567 q 417 631 378 600 q 496 690 456 661 q 611 614 563 667 q 683 490 660 561 q 830 647 739 586 q 1024 707 921 707 q 1148 667 1099 707 q 1197 547 1197 626 q 1129 405 1197 483 q 968 261 1061 326 q 811 169 875 196 q 890 92 846 114 q 993 71 935 71 q 1125 105 1060 71 q 1235 193 1190 139 l 1253 164 m 740 354 q 781 207 740 268 q 907 288 839 233 q 1022 403 975 342 q 1069 517 1069 465 q 1038 594 1069 569 q 950 619 1007 619 q 841 581 889 619 q 767 481 793 542 q 740 354 740 419 z "},"p":{"ha":811,"x_min":24,"x_max":746,"o":"m 475 701 q 611 659 549 701 q 710 544 674 617 q 746 385 746 471 q 712 173 746 263 q 614 35 678 83 q 464 -14 550 -14 q 423 -8 443 -14 q 372 14 403 -1 l 408 93 q 508 71 443 71 q 603 148 567 71 q 640 346 640 225 q 613 473 640 415 q 536 563 585 531 q 428 596 488 596 q 317 518 356 596 q 278 297 278 440 l 278 -401 l 157 -453 l 157 571 q 146 611 157 596 q 117 626 135 626 q 86 613 103 626 q 44 568 69 599 l 24 589 q 82 669 40 636 q 165 701 124 701 q 256 665 228 701 q 283 546 283 628 l 289 546 q 372 658 321 615 q 475 701 422 701 z "},"þ":{"ha":775,"x_min":-15,"x_max":710,"o":"m 440 701 q 574 659 513 701 q 673 544 636 617 q 710 385 710 471 q 675 172 710 261 q 576 34 640 82 q 426 -14 513 -14 q 388 -8 410 -14 q 339 8 365 -1 l 364 94 q 468 71 403 71 q 567 147 529 71 q 604 346 604 224 q 574 473 604 415 q 496 563 544 531 q 393 596 447 596 q 269 503 297 596 q 242 297 242 411 l 242 -401 l 117 -453 l 117 1119 q 107 1153 117 1139 q 78 1168 97 1168 q 36 1151 54 1168 q 6 1108 18 1133 l -15 1136 q 44 1214 1 1181 q 125 1247 88 1247 q 214 1214 186 1247 q 242 1114 242 1181 l 242 546 l 249 546 q 322 656 268 610 q 440 701 376 701 z "},"q":{"ha":757,"x_min":67,"x_max":783,"o":"m 431 708 q 560 672 500 708 q 651 576 621 636 l 550 522 q 476 599 515 571 q 401 626 438 626 q 288 586 340 626 q 206 478 236 546 q 175 331 175 410 q 197 205 175 261 q 259 116 219 149 q 347 83 299 83 q 441 120 400 83 q 505 223 482 157 q 528 374 528 289 l 528 438 l 650 489 l 650 -281 q 661 -314 650 -301 q 690 -326 672 -326 q 733 -312 711 -326 q 764 -276 754 -297 l 783 -297 q 724 -377 767 -344 q 640 -410 682 -410 q 556 -376 583 -410 q 528 -271 528 -342 l 528 29 q 528 119 528 90 q 533 161 529 149 l 531 161 q 447 31 504 79 q 314 -17 389 -17 q 133 59 200 -17 q 67 261 67 135 q 115 488 67 386 q 246 649 163 590 q 431 708 329 708 z "},"r":{"ha":611,"x_min":32,"x_max":571,"o":"m 383 525 q 276 355 321 460 q 231 164 231 250 q 263 38 231 89 q 368 -12 296 -12 q 480 18 426 -12 q 571 97 533 49 l 556 118 q 471 89 513 89 q 372 135 406 89 q 339 246 339 181 q 393 446 339 351 q 531 629 447 540 l 508 649 q 331 588 411 588 q 244 630 283 588 q 185 724 206 672 l 72 597 q 125 533 82 569 l 32 339 l 83 315 l 174 514 q 213 501 197 504 q 254 499 228 499 q 379 529 322 499 l 383 525 z "},"ŕ":{"ha":611,"x_min":32,"x_max":571,"o":"m 383 525 q 276 355 321 460 q 231 164 231 250 q 263 38 231 89 q 368 -12 296 -12 q 480 18 426 -12 q 571 97 533 49 l 556 118 q 471 89 513 89 q 372 135 406 89 q 339 246 339 181 q 393 446 339 351 q 531 629 447 540 l 508 649 q 331 588 411 588 q 244 630 283 588 q 185 724 206 672 l 72 597 q 125 533 82 569 l 32 339 l 83 315 l 174 514 q 213 501 197 504 q 254 499 228 499 q 379 529 322 499 l 383 525 m 386 1018 l 217 824 l 238 796 l 471 917 l 386 1018 z "},"ř":{"ha":611,"x_min":32,"x_max":571,"o":"m 383 525 q 276 355 321 460 q 231 164 231 250 q 263 38 231 89 q 368 -12 296 -12 q 480 18 426 -12 q 571 97 533 49 l 556 118 q 471 89 513 89 q 372 135 406 89 q 339 246 339 181 q 393 446 339 351 q 531 629 447 540 l 508 649 q 331 588 411 588 q 244 630 283 588 q 185 724 206 672 l 72 597 q 125 533 82 569 l 32 339 l 83 315 l 174 514 q 213 501 197 504 q 254 499 228 499 q 379 529 322 499 l 383 525 m 382 918 l 489 1039 l 526 1008 l 347 804 l 156 976 l 229 1057 l 382 918 z "},"ŗ":{"ha":611,"x_min":32,"x_max":571,"o":"m 383 525 q 276 355 321 460 q 231 164 231 250 q 263 38 231 89 q 368 -12 296 -12 q 480 18 426 -12 q 571 97 533 49 l 556 118 q 471 89 513 89 q 372 135 406 89 q 339 246 339 181 q 393 446 339 351 q 531 629 447 540 l 508 649 q 331 588 411 588 q 244 630 283 588 q 185 724 206 672 l 72 597 q 125 533 82 569 l 32 339 l 83 315 l 174 514 q 213 501 197 504 q 254 499 228 499 q 379 529 322 499 l 383 525 m 385 -137 q 362 -82 385 -106 q 307 -58 339 -58 q 253 -82 276 -58 q 231 -137 231 -106 q 247 -185 231 -164 q 289 -214 263 -207 q 251 -276 279 -249 l 276 -297 q 354 -228 324 -269 q 385 -137 385 -186 z "},"s":{"ha":533,"x_min":42,"x_max":469,"o":"m 271 751 q 340 735 318 751 q 361 683 361 718 q 347 617 361 646 q 315 567 332 588 q 293 538 299 546 q 356 472 310 510 q 415 415 393 440 q 453 348 438 390 q 469 244 469 306 q 437 113 469 172 q 347 18 404 53 q 217 -17 289 -17 q 119 2 172 -17 q 42 56 67 21 l 135 179 q 205 106 168 136 q 285 75 242 75 q 387 115 344 75 q 429 210 429 154 q 392 298 429 254 q 289 401 356 342 q 257 430 281 408 q 222 465 233 451 l 125 322 l 81 351 l 192 506 q 172 613 172 560 q 199 712 172 672 q 271 751 225 751 m 271 697 q 248 688 253 697 q 243 658 243 678 q 250 615 243 633 q 260 590 257 597 q 288 626 275 600 q 301 669 301 651 q 294 690 301 682 q 271 697 286 697 z "},"ś":{"ha":533,"x_min":42,"x_max":469,"o":"m 271 751 q 340 735 318 751 q 361 683 361 718 q 347 617 361 646 q 315 567 332 588 q 293 538 299 546 q 356 472 310 510 q 415 415 393 440 q 453 348 438 390 q 469 244 469 306 q 437 113 469 172 q 347 18 404 53 q 217 -17 289 -17 q 119 2 172 -17 q 42 56 67 21 l 135 179 q 205 106 168 136 q 285 75 242 75 q 387 115 344 75 q 429 210 429 154 q 392 298 429 254 q 289 401 356 342 q 257 430 281 408 q 222 465 233 451 l 125 322 l 81 351 l 192 506 q 172 613 172 560 q 199 712 172 672 q 271 751 225 751 m 271 697 q 248 688 253 697 q 243 658 243 678 q 250 615 243 633 q 260 590 257 597 q 288 626 275 600 q 301 669 301 651 q 294 690 301 682 q 271 697 286 697 m 321 1018 l 151 824 l 172 796 l 406 917 l 321 1018 z "},"š":{"ha":533,"x_min":42,"x_max":469,"o":"m 271 751 q 340 735 318 751 q 361 683 361 718 q 347 617 361 646 q 315 567 332 588 q 293 538 299 546 q 356 472 310 510 q 415 415 393 440 q 453 348 438 390 q 469 244 469 306 q 437 113 469 172 q 347 18 404 53 q 217 -17 289 -17 q 119 2 172 -17 q 42 56 67 21 l 135 179 q 205 106 168 136 q 285 75 242 75 q 387 115 344 75 q 429 210 429 154 q 392 298 429 254 q 289 401 356 342 q 257 430 281 408 q 222 465 233 451 l 125 322 l 81 351 l 192 506 q 172 613 172 560 q 199 712 172 672 q 271 751 225 751 m 271 697 q 248 688 253 697 q 243 658 243 678 q 250 615 243 633 q 260 590 257 597 q 288 626 275 600 q 301 669 301 651 q 294 690 301 682 q 271 697 286 697 m 315 918 l 422 1039 l 460 1008 l 281 804 l 89 976 l 163 1057 l 315 918 z "},"ş":{"ha":533,"x_min":42,"x_max":469,"o":"m 469 244 q 440 119 469 176 q 358 26 411 63 q 240 -15 306 -10 l 210 -68 q 279 -50 246 -50 q 354 -80 324 -50 q 385 -161 385 -110 q 348 -244 385 -212 q 264 -275 311 -275 q 201 -258 231 -275 q 154 -208 171 -240 l 181 -193 q 233 -222 201 -222 q 272 -205 257 -222 q 288 -161 288 -187 q 270 -115 288 -133 q 228 -97 253 -97 q 185 -111 206 -97 l 161 -92 l 206 -17 q 114 5 163 -14 q 42 56 65 24 l 135 179 q 205 106 168 136 q 285 75 242 75 q 387 115 344 75 q 429 210 429 154 q 392 298 429 254 q 289 401 356 342 q 257 430 281 408 q 222 465 233 451 l 125 322 l 81 351 l 192 506 q 172 613 172 560 q 199 712 172 672 q 271 751 225 751 q 340 735 318 751 q 361 683 361 718 q 347 617 361 646 q 315 567 332 588 q 293 538 299 546 q 356 472 310 510 q 415 415 393 440 q 453 348 438 390 q 469 244 469 306 m 260 590 q 288 626 275 600 q 301 669 301 651 q 294 690 301 682 q 271 697 286 697 q 248 688 253 697 q 243 658 243 678 q 250 615 243 633 q 260 590 257 597 z "},"ŝ":{"ha":533,"x_min":42,"x_max":469,"o":"m 271 751 q 340 735 318 751 q 361 683 361 718 q 347 617 361 646 q 315 567 332 588 q 293 538 299 546 q 356 472 310 510 q 415 415 393 440 q 453 348 438 390 q 469 244 469 306 q 437 113 469 172 q 347 18 404 53 q 217 -17 289 -17 q 119 2 172 -17 q 42 56 67 21 l 135 179 q 205 106 168 136 q 285 75 242 75 q 387 115 344 75 q 429 210 429 154 q 392 298 429 254 q 289 401 356 342 q 257 430 281 408 q 222 465 233 451 l 125 322 l 81 351 l 192 506 q 172 613 172 560 q 199 712 172 672 q 271 751 225 751 m 271 697 q 248 688 253 697 q 243 658 243 678 q 250 615 243 633 q 260 590 257 597 q 288 626 275 600 q 301 669 301 651 q 294 690 301 682 q 271 697 286 697 m 460 871 l 388 790 l 233 931 l 128 810 l 89 839 l 268 1044 l 460 871 z "},"ș":{"ha":533,"x_min":42,"x_max":469,"o":"m 271 751 q 340 735 318 751 q 361 683 361 718 q 347 617 361 646 q 315 567 332 588 q 293 538 299 546 q 356 472 310 510 q 415 415 393 440 q 453 348 438 390 q 469 244 469 306 q 437 113 469 172 q 347 18 404 53 q 217 -17 289 -17 q 119 2 172 -17 q 42 56 67 21 l 135 179 q 205 106 168 136 q 285 75 242 75 q 387 115 344 75 q 429 210 429 154 q 392 298 429 254 q 289 401 356 342 q 257 430 281 408 q 222 465 233 451 l 125 322 l 81 351 l 192 506 q 172 613 172 560 q 199 712 172 672 q 271 751 225 751 m 271 697 q 248 688 253 697 q 243 658 243 678 q 250 615 243 633 q 260 590 257 597 q 288 626 275 600 q 301 669 301 651 q 294 690 301 682 q 271 697 286 697 m 347 -137 q 324 -82 347 -106 q 269 -58 301 -58 q 216 -82 239 -58 q 193 -137 193 -106 q 209 -185 193 -164 q 251 -214 225 -207 q 214 -276 242 -249 l 239 -297 q 317 -228 286 -269 q 347 -137 347 -186 z "},"ß":{"ha":882,"x_min":60,"x_max":807,"o":"m 446 1299 q 578 1247 528 1299 q 629 1101 629 1194 q 611 1016 629 1056 q 556 922 593 976 q 499 825 518 865 q 481 736 481 785 q 501 646 481 686 q 553 576 522 606 q 636 506 583 547 q 726 428 693 461 q 783 348 760 394 q 807 242 807 301 q 772 108 807 171 q 675 8 736 46 q 542 -29 614 -29 q 450 -12 501 -29 q 367 44 399 6 l 482 160 q 549 94 507 125 q 625 63 590 63 q 735 101 693 63 q 778 197 778 140 q 750 270 778 239 q 660 349 722 301 q 546 448 590 403 q 469 565 501 493 q 436 739 436 638 q 447 799 436 765 q 485 893 458 832 q 531 1010 515 961 q 547 1100 547 1058 q 528 1166 547 1133 q 475 1219 508 1199 q 403 1240 442 1240 q 260 1046 260 1240 l 260 -189 l 128 -253 l 128 588 l 60 588 l 92 657 l 128 657 q 144 958 128 826 q 230 1194 160 1089 q 446 1299 300 1299 z "},"t":{"ha":481,"x_min":35,"x_max":461,"o":"m 268 694 l 461 694 l 419 606 l 268 606 l 268 117 q 281 83 268 96 q 314 69 293 69 q 394 124 343 69 l 414 103 q 351 24 388 50 q 281 -8 314 -1 q 249 -8 249 -14 q 253 -8 250 -8 q 261 -7 256 -7 q 139 133 139 -7 l 139 606 l 35 606 l 78 694 l 139 694 l 139 1014 l 268 1064 l 268 694 z "},"ŧ":{"ha":479,"x_min":26,"x_max":461,"o":"m 268 428 l 446 428 l 414 364 l 268 364 l 268 117 q 281 83 268 96 q 314 69 293 69 q 394 124 343 69 l 414 103 q 351 24 388 50 q 281 -8 314 -1 q 249 -8 249 -14 q 253 -8 250 -8 q 261 -7 256 -7 q 139 133 139 -7 l 139 364 l 26 364 l 61 428 l 139 428 l 139 606 l 35 606 l 78 694 l 139 694 l 139 1014 l 268 1064 l 268 694 l 461 694 l 419 606 l 268 606 l 268 428 z "},"ť":{"ha":481,"x_min":35,"x_max":529,"o":"m 268 694 l 461 694 l 419 606 l 268 606 l 268 117 q 281 83 268 96 q 314 69 293 69 q 394 124 343 69 l 414 103 q 351 24 388 50 q 281 -8 314 -1 q 249 -8 249 -14 q 253 -8 250 -8 q 261 -7 256 -7 q 139 133 139 -7 l 139 606 l 35 606 l 78 694 l 139 694 l 139 1014 l 268 1064 l 268 694 m 529 958 q 506 1015 529 990 q 453 1039 483 1039 q 397 1015 419 1039 q 374 958 374 992 q 391 912 374 933 q 433 882 408 890 q 421 851 432 868 q 397 821 410 833 l 421 800 q 499 869 469 829 q 529 958 529 910 z "},"ț":{"ha":481,"x_min":35,"x_max":461,"o":"m 268 694 l 461 694 l 419 606 l 268 606 l 268 117 q 281 83 268 96 q 314 69 293 69 q 394 124 343 69 l 414 103 q 351 24 388 50 q 281 -8 314 -1 q 249 -8 249 -14 q 253 -8 250 -8 q 261 -7 256 -7 q 139 133 139 -7 l 139 606 l 35 606 l 78 694 l 139 694 l 139 1014 l 268 1064 l 268 694 m 322 -137 q 299 -82 322 -106 q 244 -58 276 -58 q 191 -82 214 -58 q 168 -137 168 -106 q 184 -185 168 -164 q 226 -214 200 -207 q 189 -276 217 -249 l 214 -297 q 292 -228 261 -269 q 322 -137 322 -186 z "},"u":{"ha":824,"x_min":25,"x_max":804,"o":"m 672 121 q 683 87 672 100 q 713 74 693 74 q 783 128 742 74 l 804 107 q 734 19 775 44 q 693 -7 693 -7 q 657 -7 693 -7 q 590 18 613 -7 q 557 108 567 43 q 547 300 547 172 q 549 422 547 376 l 538 450 l 533 450 q 433 131 497 279 q 249 -17 368 -17 q 184 6 204 -17 q 160 66 164 28 q 156 183 156 104 l 156 575 q 145 613 156 599 q 117 626 135 626 q 42 571 83 626 l 25 593 q 81 672 47 646 q 145 703 115 697 q 175 706 175 710 q 171 705 174 706 q 163 704 168 704 q 282 567 282 704 l 282 167 q 289 123 282 136 q 306 110 296 110 q 417 226 365 110 q 501 483 468 343 q 533 651 533 624 l 672 714 l 672 121 z "},"ú":{"ha":824,"x_min":25,"x_max":804,"o":"m 672 121 q 683 87 672 100 q 713 74 693 74 q 783 128 742 74 l 804 107 q 734 19 775 44 q 693 -7 693 -7 q 657 -7 693 -7 q 590 18 613 -7 q 557 108 567 43 q 547 300 547 172 q 549 422 547 376 l 538 450 l 533 450 q 433 131 497 279 q 249 -17 368 -17 q 184 6 204 -17 q 160 66 164 28 q 156 183 156 104 l 156 575 q 145 613 156 599 q 117 626 135 626 q 42 571 83 626 l 25 593 q 81 672 47 646 q 145 703 115 697 q 175 706 175 710 q 171 705 174 706 q 163 704 168 704 q 282 567 282 704 l 282 167 q 289 123 282 136 q 306 110 296 110 q 417 226 365 110 q 501 483 468 343 q 533 651 533 624 l 672 714 l 672 121 m 461 1018 l 292 824 l 313 796 l 546 917 l 461 1018 z "},"ŭ":{"ha":824,"x_min":25,"x_max":804,"o":"m 672 121 q 683 87 672 100 q 713 74 693 74 q 783 128 742 74 l 804 107 q 734 19 775 44 q 693 -7 693 -7 q 657 -7 693 -7 q 590 18 613 -7 q 557 108 567 43 q 547 300 547 172 q 549 422 547 376 l 538 450 l 533 450 q 433 131 497 279 q 249 -17 368 -17 q 184 6 204 -17 q 160 66 164 28 q 156 183 156 104 l 156 575 q 145 613 156 599 q 117 626 135 626 q 42 571 83 626 l 25 593 q 81 672 47 646 q 145 703 115 697 q 175 706 175 710 q 171 705 174 706 q 163 704 168 704 q 282 567 282 704 l 282 167 q 289 123 282 136 q 306 110 296 110 q 417 226 365 110 q 501 483 468 343 q 533 651 533 624 l 672 714 l 672 121 m 322 1047 q 280 989 296 1025 q 264 917 264 953 q 301 826 264 860 q 397 792 339 792 q 516 833 469 792 q 563 944 563 875 q 521 1050 563 1007 l 429 992 q 459 950 447 975 q 471 900 471 925 q 454 853 471 872 q 411 833 438 833 q 348 875 371 833 q 325 961 325 917 q 344 1029 325 1001 l 322 1047 z "},"û":{"ha":824,"x_min":25,"x_max":804,"o":"m 672 121 q 683 87 672 100 q 713 74 693 74 q 783 128 742 74 l 804 107 q 734 19 775 44 q 693 -7 693 -7 q 657 -7 693 -7 q 590 18 613 -7 q 557 108 567 43 q 547 300 547 172 q 549 422 547 376 l 538 450 l 533 450 q 433 131 497 279 q 249 -17 368 -17 q 184 6 204 -17 q 160 66 164 28 q 156 183 156 104 l 156 575 q 145 613 156 599 q 117 626 135 626 q 42 571 83 626 l 25 593 q 81 672 47 646 q 145 703 115 697 q 175 706 175 710 q 171 705 174 706 q 163 704 168 704 q 282 567 282 704 l 282 167 q 289 123 282 136 q 306 110 296 110 q 417 226 365 110 q 501 483 468 343 q 533 651 533 624 l 672 714 l 672 121 m 600 871 l 528 790 l 374 931 l 268 810 l 229 839 l 408 1044 l 600 871 z "},"ü":{"ha":824,"x_min":25,"x_max":804,"o":"m 672 121 q 683 87 672 100 q 713 74 693 74 q 783 128 742 74 l 804 107 q 734 19 775 44 q 693 -7 693 -7 q 657 -7 693 -7 q 590 18 613 -7 q 557 108 567 43 q 547 300 547 172 q 549 422 547 376 l 538 450 l 533 450 q 433 131 497 279 q 249 -17 368 -17 q 184 6 204 -17 q 160 66 164 28 q 156 183 156 104 l 156 575 q 145 613 156 599 q 117 626 135 626 q 42 571 83 626 l 25 593 q 81 672 47 646 q 145 703 115 697 q 175 706 175 710 q 171 705 174 706 q 163 704 168 704 q 282 567 282 704 l 282 167 q 289 123 282 136 q 306 110 296 110 q 417 226 365 110 q 501 483 468 343 q 533 651 533 624 l 672 714 l 672 121 m 290 1014 q 348 990 324 1014 q 372 932 372 965 q 349 874 372 897 q 290 851 325 851 q 233 875 257 851 q 210 932 210 899 q 234 989 210 964 q 290 1014 258 1014 m 536 1014 q 593 990 569 1014 q 617 932 617 965 q 594 874 617 897 q 536 851 571 851 q 478 875 503 851 q 454 932 454 899 q 478 989 454 964 q 536 1014 503 1014 z "},"ù":{"ha":824,"x_min":25,"x_max":804,"o":"m 672 121 q 683 87 672 100 q 713 74 693 74 q 783 128 742 74 l 804 107 q 734 19 775 44 q 693 -7 693 -7 q 657 -7 693 -7 q 590 18 613 -7 q 557 108 567 43 q 547 300 547 172 q 549 422 547 376 l 538 450 l 533 450 q 433 131 497 279 q 249 -17 368 -17 q 184 6 204 -17 q 160 66 164 28 q 156 183 156 104 l 156 575 q 145 613 156 599 q 117 626 135 626 q 42 571 83 626 l 25 593 q 81 672 47 646 q 145 703 115 697 q 175 706 175 710 q 171 705 174 706 q 163 704 168 704 q 282 567 282 704 l 282 167 q 289 123 282 136 q 306 110 296 110 q 417 226 365 110 q 501 483 468 343 q 533 651 533 624 l 672 714 l 672 121 m 526 824 l 356 1018 l 272 917 l 506 794 l 526 824 z "},"ű":{"ha":824,"x_min":25,"x_max":804,"o":"m 672 121 q 683 87 672 100 q 713 74 693 74 q 783 128 742 74 l 804 107 q 734 19 775 44 q 693 -7 693 -7 q 657 -7 693 -7 q 590 18 613 -7 q 557 108 567 43 q 547 300 547 172 q 549 422 547 376 l 538 450 l 533 450 q 433 131 497 279 q 249 -17 368 -17 q 184 6 204 -17 q 160 66 164 28 q 156 183 156 104 l 156 575 q 145 613 156 599 q 117 626 135 626 q 42 571 83 626 l 25 593 q 81 672 47 646 q 145 703 115 697 q 175 706 175 710 q 171 705 174 706 q 163 704 168 704 q 282 567 282 704 l 282 167 q 289 123 282 136 q 306 110 296 110 q 417 226 365 110 q 501 483 468 343 q 533 651 533 624 l 672 714 l 672 121 m 353 1018 l 190 824 l 213 796 l 436 917 l 353 1018 m 554 1018 l 390 824 l 413 796 l 638 917 l 554 1018 z "},"ū":{"ha":824,"x_min":25,"x_max":804,"o":"m 672 121 q 683 87 672 100 q 713 74 693 74 q 783 128 742 74 l 804 107 q 734 19 775 44 q 693 -7 693 -7 q 657 -7 693 -7 q 590 18 613 -7 q 557 108 567 43 q 547 300 547 172 q 549 422 547 376 l 538 450 l 533 450 q 433 131 497 279 q 249 -17 368 -17 q 184 6 204 -17 q 160 66 164 28 q 156 183 156 104 l 156 575 q 145 613 156 599 q 117 626 135 626 q 42 571 83 626 l 25 593 q 81 672 47 646 q 145 703 115 697 q 175 706 175 710 q 171 705 174 706 q 163 704 168 704 q 282 567 282 704 l 282 167 q 289 123 282 136 q 306 110 296 110 q 417 226 365 110 q 501 483 468 343 q 533 651 533 624 l 672 714 l 672 121 m 588 978 l 294 978 l 244 882 l 539 882 l 588 978 z "},"ų":{"ha":824,"x_min":25,"x_max":807,"o":"m 807 -175 q 749 -244 782 -218 q 676 -271 715 -271 q 601 -244 635 -271 q 567 -167 567 -218 q 654 -10 567 -82 q 647 -8 646 -10 q 657 -7 647 -7 q 590 18 613 -7 q 557 108 567 43 q 547 300 547 172 q 549 422 547 376 l 538 450 l 533 450 q 433 131 497 279 q 249 -17 368 -17 q 184 6 204 -17 q 160 66 164 28 q 156 183 156 104 l 156 575 q 145 613 156 599 q 117 626 135 626 q 42 571 83 626 l 25 593 q 81 672 47 646 q 145 703 115 697 q 175 706 175 710 q 171 705 174 706 q 163 704 168 704 q 282 567 282 704 l 282 167 q 289 123 282 136 q 306 110 296 110 q 417 226 365 110 q 501 483 468 343 q 533 651 533 624 l 672 714 l 672 121 q 683 87 672 100 q 713 74 693 74 q 783 128 742 74 l 804 107 q 714 8 769 36 l 717 6 q 669 -57 686 -22 q 651 -124 651 -92 q 667 -172 651 -154 q 715 -190 683 -190 q 783 -154 756 -190 l 807 -175 z "},"ů":{"ha":824,"x_min":25,"x_max":804,"o":"m 672 121 q 683 87 672 100 q 713 74 693 74 q 783 128 742 74 l 804 107 q 734 19 775 44 q 693 -7 693 -7 q 657 -7 693 -7 q 590 18 613 -7 q 557 108 567 43 q 547 300 547 172 q 549 422 547 376 l 538 450 l 533 450 q 433 131 497 279 q 249 -17 368 -17 q 184 6 204 -17 q 160 66 164 28 q 156 183 156 104 l 156 575 q 145 613 156 599 q 117 626 135 626 q 42 571 83 626 l 25 593 q 81 672 47 646 q 145 703 115 697 q 175 706 175 710 q 171 705 174 706 q 163 704 168 704 q 282 567 282 704 l 282 167 q 289 123 282 136 q 306 110 296 110 q 417 226 365 110 q 501 483 468 343 q 533 651 533 624 l 672 714 l 672 121 m 413 1097 q 511 1058 471 1097 q 551 963 551 1019 q 510 867 551 907 q 413 826 469 826 q 317 867 357 826 q 276 963 276 907 q 317 1058 276 1018 q 413 1097 357 1097 m 390 1051 q 363 1035 372 1051 q 353 996 353 1019 q 380 911 353 947 q 436 875 407 875 q 464 892 454 875 q 474 931 474 908 q 460 990 474 963 q 428 1035 447 1018 q 390 1051 408 1051 z "},"ũ":{"ha":824,"x_min":25,"x_max":804,"o":"m 672 121 q 683 87 672 100 q 713 74 693 74 q 783 128 742 74 l 804 107 q 734 19 775 44 q 693 -7 693 -7 q 657 -7 693 -7 q 590 18 613 -7 q 557 108 567 43 q 547 300 547 172 q 549 422 547 376 l 538 450 l 533 450 q 433 131 497 279 q 249 -17 368 -17 q 184 6 204 -17 q 160 66 164 28 q 156 183 156 104 l 156 575 q 145 613 156 599 q 117 626 135 626 q 42 571 83 626 l 25 593 q 81 672 47 646 q 145 703 115 697 q 175 706 175 710 q 171 705 174 706 q 163 704 168 704 q 282 567 282 704 l 282 167 q 289 123 282 136 q 306 110 296 110 q 417 226 365 110 q 501 483 468 343 q 533 651 533 624 l 672 714 l 672 121 m 543 1029 q 574 947 574 993 q 548 874 574 903 q 476 844 522 844 q 431 857 449 844 q 390 893 413 869 q 347 922 364 922 q 321 882 321 922 q 331 847 321 865 l 289 833 q 258 917 258 871 q 284 990 258 960 q 356 1019 310 1019 q 400 1007 382 1019 q 439 972 418 994 q 463 949 454 956 q 483 942 472 942 q 510 982 510 942 q 501 1017 510 1001 l 543 1029 z "},"v":{"ha":715,"x_min":-1,"x_max":696,"o":"m 579 742 q 665 682 635 724 q 696 586 696 640 q 688 522 696 557 q 668 463 681 488 l 426 -15 q 415 -21 424 -18 q 399 -24 406 -24 q 377 -19 388 -24 q 365 -11 367 -15 l 125 514 q 53 578 90 578 q 27 569 39 578 q 11 557 15 560 l -1 572 q 60 660 15 625 q 151 694 106 694 q 198 660 178 694 q 231 592 218 625 q 247 550 243 560 l 442 118 l 565 369 q 577 400 567 374 q 588 451 588 426 q 476 606 588 554 l 579 742 z "},"w":{"ha":993,"x_min":18,"x_max":950,"o":"m 851 746 q 950 582 950 700 q 944 520 950 554 q 928 461 938 486 l 743 24 q 704 -1 736 -1 q 660 25 668 -1 l 546 421 l 397 28 q 381 2 389 10 q 357 -6 374 -6 q 332 1 340 -6 q 318 21 324 8 l 163 508 q 136 563 151 547 q 93 578 121 578 q 33 550 61 578 l 18 572 q 91 661 49 628 q 186 694 133 694 q 229 676 213 694 q 256 635 246 658 q 283 557 265 613 l 401 189 l 522 507 l 478 660 l 607 708 l 754 186 l 836 385 q 847 451 847 407 q 822 542 847 503 q 750 606 796 582 l 851 746 z "},"ẃ":{"ha":993,"x_min":18,"x_max":950,"o":"m 851 746 q 950 582 950 700 q 944 520 950 554 q 928 461 938 486 l 743 24 q 704 -1 736 -1 q 660 25 668 -1 l 546 421 l 397 28 q 381 2 389 10 q 357 -6 374 -6 q 332 1 340 -6 q 318 21 324 8 l 163 508 q 136 563 151 547 q 93 578 121 578 q 33 550 61 578 l 18 572 q 91 661 49 628 q 186 694 133 694 q 229 676 213 694 q 256 635 246 658 q 283 557 265 613 l 401 189 l 522 507 l 478 660 l 607 708 l 754 186 l 836 385 q 847 451 847 407 q 822 542 847 503 q 750 606 796 582 l 851 746 m 582 1018 l 413 824 l 433 796 l 667 917 l 582 1018 z "},"ŵ":{"ha":993,"x_min":18,"x_max":950,"o":"m 851 746 q 950 582 950 700 q 944 520 950 554 q 928 461 938 486 l 743 24 q 704 -1 736 -1 q 660 25 668 -1 l 546 421 l 397 28 q 381 2 389 10 q 357 -6 374 -6 q 332 1 340 -6 q 318 21 324 8 l 163 508 q 136 563 151 547 q 93 578 121 578 q 33 550 61 578 l 18 572 q 91 661 49 628 q 186 694 133 694 q 229 676 213 694 q 256 635 246 658 q 283 557 265 613 l 401 189 l 522 507 l 478 660 l 607 708 l 754 186 l 836 385 q 847 451 847 407 q 822 542 847 503 q 750 606 796 582 l 851 746 m 721 871 l 649 790 l 494 931 l 389 810 l 350 839 l 529 1044 l 721 871 z "},"ẅ":{"ha":993,"x_min":18,"x_max":950,"o":"m 851 746 q 950 582 950 700 q 944 520 950 554 q 928 461 938 486 l 743 24 q 704 -1 736 -1 q 660 25 668 -1 l 546 421 l 397 28 q 381 2 389 10 q 357 -6 374 -6 q 332 1 340 -6 q 318 21 324 8 l 163 508 q 136 563 151 547 q 93 578 121 578 q 33 550 61 578 l 18 572 q 91 661 49 628 q 186 694 133 694 q 229 676 213 694 q 256 635 246 658 q 283 557 265 613 l 401 189 l 522 507 l 478 660 l 607 708 l 754 186 l 836 385 q 847 451 847 407 q 822 542 847 503 q 750 606 796 582 l 851 746 m 411 1014 q 469 990 444 1014 q 493 932 493 965 q 469 874 493 897 q 411 851 446 851 q 354 875 378 851 q 331 932 331 899 q 355 989 331 964 q 411 1014 379 1014 m 657 1014 q 714 990 690 1014 q 738 932 738 965 q 715 874 738 897 q 657 851 692 851 q 599 875 624 851 q 575 932 575 899 q 599 989 575 964 q 657 1014 624 1014 z "},"ẁ":{"ha":993,"x_min":18,"x_max":950,"o":"m 851 746 q 950 582 950 700 q 944 520 950 554 q 928 461 938 486 l 743 24 q 704 -1 736 -1 q 660 25 668 -1 l 546 421 l 397 28 q 381 2 389 10 q 357 -6 374 -6 q 332 1 340 -6 q 318 21 324 8 l 163 508 q 136 563 151 547 q 93 578 121 578 q 33 550 61 578 l 18 572 q 91 661 49 628 q 186 694 133 694 q 229 676 213 694 q 256 635 246 658 q 283 557 265 613 l 401 189 l 522 507 l 478 660 l 607 708 l 754 186 l 836 385 q 847 451 847 407 q 822 542 847 503 q 750 606 796 582 l 851 746 m 647 824 l 476 1018 l 393 917 l 626 794 l 647 824 z "},"x":{"ha":782,"x_min":35,"x_max":732,"o":"m 732 90 q 671 20 706 50 q 611 -10 636 -10 q 507 61 564 -10 q 371 264 450 132 q 322 121 347 178 q 250 27 296 64 q 133 -10 204 -10 q 35 32 75 -10 l 106 183 q 137 163 114 174 q 176 151 160 151 q 273 196 238 151 q 335 322 308 240 q 198 531 253 460 q 99 601 143 601 q 53 586 72 601 l 36 610 q 98 678 64 650 q 161 707 132 707 q 256 644 204 707 q 378 468 308 582 q 465 657 414 590 q 617 724 517 724 q 718 679 682 724 l 654 533 q 617 553 640 544 q 574 563 594 563 q 476 523 513 563 q 413 408 440 483 q 516 242 478 300 q 595 141 554 183 q 671 99 636 99 q 714 114 685 99 l 732 90 z "},"y":{"ha":786,"x_min":21,"x_max":672,"o":"m 672 75 q 620 -169 672 -56 q 482 -351 568 -283 q 299 -419 396 -419 q 228 -408 261 -419 q 158 -371 194 -397 l 256 -247 q 324 -294 285 -276 q 399 -312 364 -312 q 476 -261 442 -312 q 531 -119 511 -210 q 551 85 551 -29 q 553 417 551 343 l 553 500 l 544 500 q 249 -17 431 -17 q 189 -1 208 -17 q 163 57 169 15 q 156 183 156 99 l 156 575 q 144 613 156 597 q 117 628 133 628 q 43 571 82 628 l 21 593 q 81 682 51 658 q 168 706 111 706 q 251 670 224 706 q 279 567 279 635 l 279 188 q 308 136 279 136 q 397 231 343 136 q 493 449 451 325 q 535 651 535 574 l 672 714 l 672 75 z "},"ý":{"ha":786,"x_min":21,"x_max":672,"o":"m 672 75 q 620 -169 672 -56 q 482 -351 568 -283 q 299 -419 396 -419 q 228 -408 261 -419 q 158 -371 194 -397 l 256 -247 q 324 -294 285 -276 q 399 -312 364 -312 q 476 -261 442 -312 q 531 -119 511 -210 q 551 85 551 -29 q 553 417 551 343 l 553 500 l 544 500 q 249 -17 431 -17 q 189 -1 208 -17 q 163 57 169 15 q 156 183 156 99 l 156 575 q 144 613 156 597 q 117 628 133 628 q 43 571 82 628 l 21 593 q 81 682 51 658 q 168 706 111 706 q 251 670 224 706 q 279 567 279 635 l 279 188 q 308 136 279 136 q 397 231 343 136 q 493 449 451 325 q 535 651 535 574 l 672 714 l 672 75 m 461 1018 l 292 824 l 313 796 l 546 917 l 461 1018 z "},"ŷ":{"ha":786,"x_min":21,"x_max":672,"o":"m 672 75 q 620 -169 672 -56 q 482 -351 568 -283 q 299 -419 396 -419 q 228 -408 261 -419 q 158 -371 194 -397 l 256 -247 q 324 -294 285 -276 q 399 -312 364 -312 q 476 -261 442 -312 q 531 -119 511 -210 q 551 85 551 -29 q 553 417 551 343 l 553 500 l 544 500 q 249 -17 431 -17 q 189 -1 208 -17 q 163 57 169 15 q 156 183 156 99 l 156 575 q 144 613 156 597 q 117 628 133 628 q 43 571 82 628 l 21 593 q 81 682 51 658 q 168 706 111 706 q 251 670 224 706 q 279 567 279 635 l 279 188 q 308 136 279 136 q 397 231 343 136 q 493 449 451 325 q 535 651 535 574 l 672 714 l 672 75 m 601 871 l 529 790 l 375 931 l 269 810 l 231 839 l 410 1044 l 601 871 z "},"ÿ":{"ha":786,"x_min":21,"x_max":672,"o":"m 672 75 q 620 -169 672 -56 q 482 -351 568 -283 q 299 -419 396 -419 q 228 -408 261 -419 q 158 -371 194 -397 l 256 -247 q 324 -294 285 -276 q 399 -312 364 -312 q 476 -261 442 -312 q 531 -119 511 -210 q 551 85 551 -29 q 553 417 551 343 l 553 500 l 544 500 q 249 -17 431 -17 q 189 -1 208 -17 q 163 57 169 15 q 156 183 156 99 l 156 575 q 144 613 156 597 q 117 628 133 628 q 43 571 82 628 l 21 593 q 81 682 51 658 q 168 706 111 706 q 251 670 224 706 q 279 567 279 635 l 279 188 q 308 136 279 136 q 397 231 343 136 q 493 449 451 325 q 535 651 535 574 l 672 714 l 672 75 m 292 1014 q 349 990 325 1014 q 374 932 374 965 q 350 874 374 897 q 292 851 326 851 q 235 875 258 851 q 211 932 211 899 q 235 989 211 964 q 292 1014 260 1014 m 538 1014 q 594 990 571 1014 q 618 932 618 965 q 595 874 618 897 q 538 851 572 851 q 480 875 504 851 q 456 932 456 899 q 480 989 456 964 q 538 1014 504 1014 z "},"ỳ":{"ha":786,"x_min":21,"x_max":672,"o":"m 672 75 q 620 -169 672 -56 q 482 -351 568 -283 q 299 -419 396 -419 q 228 -408 261 -419 q 158 -371 194 -397 l 256 -247 q 324 -294 285 -276 q 399 -312 364 -312 q 476 -261 442 -312 q 531 -119 511 -210 q 551 85 551 -29 q 553 417 551 343 l 553 500 l 544 500 q 249 -17 431 -17 q 189 -1 208 -17 q 163 57 169 15 q 156 183 156 99 l 156 575 q 144 613 156 597 q 117 628 133 628 q 43 571 82 628 l 21 593 q 81 682 51 658 q 168 706 111 706 q 251 670 224 706 q 279 567 279 635 l 279 188 q 308 136 279 136 q 397 231 343 136 q 493 449 451 325 q 535 651 535 574 l 672 714 l 672 75 m 526 824 l 356 1018 l 272 917 l 506 794 l 526 824 z "},"z":{"ha":690,"x_min":43,"x_max":656,"o":"m 197 110 q 274 132 231 125 q 356 139 317 139 q 426 136 376 139 q 500 132 467 132 q 656 157 589 132 l 546 4 q 500 -10 526 -10 q 435 -3 472 -10 q 388 6 399 4 q 269 22 304 22 q 61 -12 175 22 l 43 11 l 472 568 l 465 579 q 314 554 418 554 q 232 557 285 554 q 133 561 186 561 q 88 556 121 561 q 43 547 54 550 l 156 694 q 271 688 201 696 q 361 681 319 681 q 619 711 526 681 l 629 686 l 190 117 l 197 110 z "},"ź":{"ha":690,"x_min":43,"x_max":656,"o":"m 197 110 q 274 132 231 125 q 356 139 317 139 q 426 136 376 139 q 500 132 467 132 q 656 157 589 132 l 546 4 q 500 -10 526 -10 q 435 -3 472 -10 q 388 6 399 4 q 269 22 304 22 q 61 -12 175 22 l 43 11 l 472 568 l 465 579 q 314 554 418 554 q 232 557 285 554 q 133 561 186 561 q 88 556 121 561 q 43 547 54 550 l 156 694 q 271 688 201 696 q 361 681 319 681 q 619 711 526 681 l 629 686 l 190 117 l 197 110 m 456 1018 l 286 824 l 307 796 l 540 917 l 456 1018 z "},"ž":{"ha":690,"x_min":43,"x_max":656,"o":"m 197 110 q 274 132 231 125 q 356 139 317 139 q 426 136 376 139 q 500 132 467 132 q 656 157 589 132 l 546 4 q 500 -10 526 -10 q 435 -3 472 -10 q 388 6 399 4 q 269 22 304 22 q 61 -12 175 22 l 43 11 l 472 568 l 465 579 q 314 554 418 554 q 232 557 285 554 q 133 561 186 561 q 88 556 121 561 q 43 547 54 550 l 156 694 q 271 688 201 696 q 361 681 319 681 q 619 711 526 681 l 629 686 l 190 117 l 197 110 m 450 918 l 557 1039 l 594 1008 l 415 804 l 224 976 l 297 1057 l 450 918 z "},"ż":{"ha":690,"x_min":43,"x_max":656,"o":"m 197 110 q 274 132 231 125 q 356 139 317 139 q 426 136 376 139 q 500 132 467 132 q 656 157 589 132 l 546 4 q 500 -10 526 -10 q 435 -3 472 -10 q 388 6 399 4 q 269 22 304 22 q 61 -12 175 22 l 43 11 l 472 568 l 465 579 q 314 554 418 554 q 232 557 285 554 q 133 561 186 561 q 88 556 121 561 q 43 547 54 550 l 156 694 q 271 688 201 696 q 361 681 319 681 q 619 711 526 681 l 629 686 l 190 117 l 197 110 m 408 1017 q 466 992 442 1017 q 490 932 490 967 q 465 874 490 899 q 408 850 440 850 q 349 874 374 850 q 325 932 325 899 q 349 992 325 968 q 408 1017 374 1017 z "},"ﬀ":{"ha":789,"x_min":28,"x_max":906,"o":"m 750 997 q 834 972 790 997 q 906 907 878 947 l 811 856 q 773 923 799 896 q 711 950 747 950 q 644 913 663 950 q 625 826 625 876 l 625 533 l 818 533 l 788 465 l 625 465 l 625 -142 l 504 -193 l 504 465 l 218 465 l 218 -142 l 96 -193 l 96 465 l 28 465 l 56 533 l 96 533 l 96 681 q 160 903 96 810 q 360 997 224 997 q 460 971 407 997 q 557 899 513 944 q 750 997 624 997 m 335 950 q 218 803 218 950 l 218 533 l 504 533 l 504 681 q 515 779 504 735 q 446 903 490 857 q 335 950 401 950 z "},"ﬁ":{"ha":724,"x_min":33,"x_max":707,"o":"m 707 81 q 650 15 685 38 q 582 -7 615 -7 q 514 22 542 -7 q 486 104 486 50 l 486 465 l 222 465 l 222 -142 l 103 -193 l 103 465 l 33 465 l 64 533 l 103 533 l 103 681 q 165 903 103 810 q 360 997 228 997 q 484 958 419 997 q 586 856 549 919 l 471 814 q 419 911 454 872 q 335 950 385 950 q 222 803 222 950 l 222 533 l 486 533 l 606 572 l 606 99 q 614 71 606 81 q 638 61 622 61 q 689 99 663 61 l 707 81 z "},"ﬂ":{"ha":726,"x_min":33,"x_max":708,"o":"m 708 81 q 660 19 693 44 q 590 -7 628 -7 q 490 104 490 -7 l 490 807 q 431 910 469 871 q 335 950 392 950 q 222 803 222 950 l 222 533 l 410 533 l 381 465 l 222 465 l 222 -142 l 103 -193 l 103 465 l 33 465 l 64 533 l 103 533 l 103 681 q 165 903 103 810 q 360 997 228 997 q 431 984 393 997 q 500 946 468 971 l 611 988 l 611 99 q 618 72 611 83 q 639 61 625 61 q 692 99 661 61 l 708 81 z "},"ª":{"ha":581,"x_min":76,"x_max":672,"o":"m 390 1113 q 494 1089 446 1113 q 564 1018 542 1065 l 485 975 q 435 1022 467 1001 q 369 1042 404 1042 q 233 979 283 1042 q 183 822 183 917 q 213 678 183 733 q 307 624 243 624 q 433 697 399 624 q 468 857 468 771 l 468 907 l 565 949 l 565 656 q 573 628 565 642 q 596 615 581 615 q 656 660 631 615 l 672 642 q 625 578 658 604 q 558 551 592 551 q 488 588 511 551 q 465 682 465 624 l 464 682 q 388 583 435 622 q 289 544 340 544 q 147 610 194 544 q 99 783 99 675 q 138 946 99 869 q 243 1067 176 1022 q 390 1113 310 1113 m 76 349 l 463 349 l 496 443 l 110 443 l 76 349 z "},"º":{"ha":564,"x_min":76,"x_max":613,"o":"m 381 1100 q 249 981 297 1047 q 201 826 201 915 q 222 726 201 776 q 285 642 243 675 q 386 608 328 608 q 504 656 458 608 q 550 774 550 704 q 518 880 550 825 q 435 972 486 935 q 331 1015 383 1010 q 417 1086 358 1043 l 447 1110 q 568 1012 524 1083 q 613 853 613 940 q 581 703 613 775 q 489 587 550 632 q 344 542 428 542 q 222 574 278 542 q 133 664 165 607 q 100 790 100 721 q 172 999 100 910 q 360 1122 244 1088 l 381 1100 m 76 349 l 463 349 l 496 443 l 110 443 l 76 349 z "},"Ω":{"ha":1306,"x_min":89,"x_max":1218,"o":"m 654 1015 q 906 962 790 1015 q 1092 799 1021 908 q 1163 528 1163 689 q 1122 349 1163 436 q 1019 197 1082 261 q 888 104 956 132 l 1171 104 l 1218 0 l 744 0 l 744 97 q 869 194 808 131 q 971 345 931 258 q 1011 529 1011 432 q 965 757 1011 663 q 839 899 919 851 q 654 946 758 946 q 468 899 549 946 q 342 757 388 851 q 296 529 296 663 q 335 345 296 432 q 436 194 375 258 q 561 97 497 131 l 561 0 l 89 0 l 135 104 l 421 104 q 289 197 353 132 q 185 349 225 261 q 144 528 144 436 q 215 799 144 689 q 402 962 286 908 q 654 1015 518 1015 z "},"µ":{"ha":932,"x_min":69,"x_max":875,"o":"m 736 121 q 750 88 736 103 q 779 74 764 74 q 815 86 794 74 q 857 128 836 99 l 875 107 q 798 20 843 47 q 715 -7 753 -7 q 644 17 675 -7 q 613 97 613 40 l 613 500 l 610 500 q 510 176 571 326 q 335 -18 449 26 l 335 -268 l 211 -333 l 211 575 q 198 613 211 599 q 163 628 185 628 q 132 613 151 628 q 90 571 113 599 l 69 593 q 148 678 101 651 q 229 706 194 706 q 276 692 251 706 q 317 647 300 678 q 335 567 335 615 l 335 188 q 364 136 335 136 q 498 294 435 136 q 610 651 561 451 l 736 714 l 736 121 z "},"π":{"ha":872,"x_min":74,"x_max":847,"o":"m 847 103 q 774 19 817 44 q 697 -7 731 -7 q 621 26 656 -7 q 586 133 586 60 l 586 582 l 288 582 l 288 0 l 160 -37 l 160 582 l 74 582 l 110 668 l 586 668 l 714 718 l 714 119 q 726 83 714 97 q 758 69 739 69 q 825 124 788 69 l 847 103 z "},"ऄ":{"ha":1076,"x_min":39,"x_max":1363,"o":"m 85 508 q 240 242 144 344 q 435 139 336 139 q 525 166 485 139 q 588 239 565 193 q 611 338 611 285 q 547 507 611 419 q 472 457 510 475 q 404 439 435 439 q 327 463 368 439 q 258 524 286 488 q 231 594 231 560 q 274 672 231 638 q 371 707 318 707 q 440 686 404 707 q 507 626 475 665 q 546 687 532 650 q 560 761 560 724 q 522 854 560 815 q 432 893 485 893 q 315 861 374 893 q 210 775 257 829 l 124 861 q 231 945 165 915 q 368 975 297 975 q 504 936 439 975 q 610 836 569 897 q 650 714 650 775 q 613 585 650 644 q 658 555 631 565 q 713 544 685 544 q 772 557 743 544 q 821 596 801 569 l 821 846 l 689 846 l 592 957 l 829 957 l 935 846 l 935 154 q 980 83 935 124 q 1086 12 1025 42 q 1189 -18 1147 -18 q 1228 -8 1208 -18 q 1260 24 1247 3 l 1363 -42 q 1274 -85 1319 -85 q 1086 -30 1194 -85 q 899 101 978 25 q 821 231 821 176 l 821 472 q 767 461 790 461 q 588 550 683 461 l 576 538 q 665 392 633 464 q 696 260 696 321 q 669 147 696 199 q 594 66 642 96 q 490 36 547 36 q 319 93 406 36 q 160 253 233 150 q 39 489 86 356 l 85 508 m 892 957 l 1097 957 l 1097 846 l 999 846 l 892 957 m 343 515 q 403 535 367 515 q 481 593 439 556 q 417 629 451 629 q 350 601 386 629 q 314 547 314 572 q 322 526 314 536 q 343 515 331 515 m 246 1408 q 340 1300 258 1342 q 535 1258 421 1258 q 711 1223 632 1258 q 836 1119 790 1188 q 882 957 882 1051 l 836 957 q 797 1052 836 1008 q 692 1122 758 1096 q 543 1147 625 1147 q 388 1176 461 1147 q 264 1265 314 1206 q 203 1408 214 1324 l 246 1408 z "},"ॲ":{"ha":1076,"x_min":39,"x_max":1363,"o":"m 85 508 q 240 242 144 344 q 435 139 336 139 q 525 166 485 139 q 588 239 565 193 q 611 338 611 285 q 547 507 611 419 q 472 457 510 475 q 404 439 435 439 q 327 463 368 439 q 258 524 286 488 q 231 594 231 560 q 274 672 231 638 q 371 707 318 707 q 440 686 404 707 q 507 626 475 665 q 546 687 532 650 q 560 761 560 724 q 522 854 560 815 q 432 893 485 893 q 315 861 374 893 q 210 775 257 829 l 124 861 q 231 945 165 915 q 368 975 297 975 q 504 936 439 975 q 610 836 569 897 q 650 714 650 775 q 613 585 650 644 q 658 555 631 565 q 713 544 685 544 q 772 557 743 544 q 821 596 801 569 l 821 846 l 689 846 l 592 957 l 829 957 l 935 846 l 935 154 q 980 83 935 124 q 1086 12 1025 42 q 1189 -18 1147 -18 q 1228 -8 1208 -18 q 1260 24 1247 3 l 1363 -42 q 1274 -85 1319 -85 q 1086 -30 1194 -85 q 899 101 978 25 q 821 231 821 176 l 821 472 q 767 461 790 461 q 588 550 683 461 l 576 538 q 665 392 633 464 q 696 260 696 321 q 669 147 696 199 q 594 66 642 96 q 490 36 547 36 q 319 93 406 36 q 160 253 233 150 q 39 489 86 356 l 85 508 m 892 957 l 1097 957 l 1097 846 l 999 846 l 892 957 m 343 515 q 403 535 367 515 q 481 593 439 556 q 417 629 451 629 q 350 601 386 629 q 314 547 314 572 q 322 526 314 536 q 343 515 331 515 m 607 1325 q 698 1200 640 1247 q 822 1153 756 1153 q 960 1202 897 1153 q 1054 1335 1022 1251 l 1144 1274 q 1033 1117 1111 1176 q 860 1057 954 1057 q 694 1125 774 1057 q 568 1306 614 1193 l 607 1325 z "},"अ":{"ha":1076,"x_min":39,"x_max":1363,"o":"m 85 508 q 240 242 144 344 q 435 139 336 139 q 525 166 485 139 q 588 239 565 193 q 611 338 611 285 q 547 507 611 419 q 472 457 510 475 q 404 439 435 439 q 327 463 368 439 q 258 524 286 488 q 231 594 231 560 q 274 672 231 638 q 371 707 318 707 q 440 686 404 707 q 507 626 475 665 q 546 687 532 650 q 560 761 560 724 q 522 854 560 815 q 432 893 485 893 q 315 861 374 893 q 210 775 257 829 l 124 861 q 231 945 165 915 q 368 975 297 975 q 504 936 439 975 q 610 836 569 897 q 650 714 650 775 q 613 585 650 644 q 658 555 631 565 q 713 544 685 544 q 772 557 743 544 q 821 596 801 569 l 821 846 l 689 846 l 592 957 l 829 957 l 935 846 l 935 154 q 980 83 935 124 q 1086 12 1025 42 q 1189 -18 1147 -18 q 1228 -8 1208 -18 q 1260 24 1247 3 l 1363 -42 q 1274 -85 1319 -85 q 1086 -30 1194 -85 q 899 101 978 25 q 821 231 821 176 l 821 472 q 767 461 790 461 q 588 550 683 461 l 576 538 q 665 392 633 464 q 696 260 696 321 q 669 147 696 199 q 594 66 642 96 q 490 36 547 36 q 319 93 406 36 q 160 253 233 150 q 39 489 86 356 l 85 508 m 892 957 l 1097 957 l 1097 846 l 999 846 l 892 957 m 343 515 q 403 535 367 515 q 481 593 439 556 q 417 629 451 629 q 350 601 386 629 q 314 547 314 572 q 322 526 314 536 q 343 515 331 515 z "},"आ":{"ha":1472,"x_min":39,"x_max":1758,"o":"m 1189 -18 q 1228 -8 1208 -18 q 1260 24 1247 3 l 1363 -42 q 1274 -85 1319 -85 q 1086 -30 1194 -85 q 899 101 978 25 q 821 231 821 176 l 821 472 q 767 461 790 461 q 588 550 683 461 l 576 538 q 665 392 633 464 q 696 260 696 321 q 669 147 696 199 q 594 66 642 96 q 490 36 547 36 q 319 93 406 36 q 160 253 233 150 q 39 489 86 356 l 85 508 q 240 242 144 344 q 435 139 336 139 q 525 166 485 139 q 588 239 565 193 q 611 338 611 285 q 547 507 611 419 q 472 457 510 475 q 404 439 435 439 q 327 463 368 439 q 258 524 286 488 q 231 594 231 560 q 274 672 231 638 q 371 707 318 707 q 440 686 404 707 q 507 626 475 665 q 546 687 532 650 q 560 761 560 724 q 522 854 560 815 q 432 893 485 893 q 315 861 374 893 q 210 775 257 829 l 124 861 q 231 945 165 915 q 368 975 297 975 q 504 936 439 975 q 610 836 569 897 q 650 714 650 775 q 613 585 650 644 q 658 555 631 565 q 713 544 685 544 q 772 557 743 544 q 821 596 801 569 l 821 846 l 689 846 l 592 957 l 829 957 l 935 846 l 935 154 q 980 83 935 124 q 1086 12 1025 42 q 1189 -18 1147 -18 m 1758 -42 q 1671 -85 1719 -85 q 1483 -29 1590 -85 q 1297 102 1375 26 q 1218 233 1218 178 l 1218 846 l 1097 846 l 999 846 l 892 957 l 1221 957 l 1332 846 l 1332 154 q 1376 83 1332 124 q 1481 12 1421 42 q 1583 -18 1542 -18 q 1623 -7 1603 -18 q 1657 24 1643 4 l 1758 -42 m 1394 846 l 1285 957 l 1493 957 l 1493 846 l 1394 846 m 343 515 q 403 535 367 515 q 481 593 439 556 q 417 629 451 629 q 350 601 386 629 q 314 547 314 572 q 322 526 314 536 q 343 515 331 515 z "},"इ":{"ha":692,"x_min":-19,"x_max":788,"o":"m -19 957 l 369 957 l 479 846 q 531 767 513 807 q 550 692 550 726 q 526 640 550 661 q 469 618 503 618 l 292 615 q 224 599 257 615 q 172 558 192 583 q 151 508 151 533 q 181 454 151 478 q 249 431 210 431 q 295 441 272 431 q 353 474 318 451 q 403 503 383 493 q 443 513 424 513 q 535 481 490 513 q 607 399 579 449 q 635 304 635 350 q 597 204 635 253 q 491 120 558 156 q 340 71 424 85 q 475 -45 404 -4 q 607 -86 546 -86 q 656 -76 632 -86 q 699 -46 681 -65 l 788 -128 q 688 -167 754 -167 q 492 -107 594 -167 q 292 63 389 -47 q 182 81 232 63 q 102 130 132 99 q 72 197 72 161 q 94 240 72 222 q 144 258 117 258 q 290 172 208 258 q 409 202 346 172 q 515 276 472 232 q 558 363 558 321 q 539 415 558 393 q 494 436 519 436 q 470 428 485 436 q 447 415 456 421 q 433 407 438 410 q 369 369 399 383 q 308 356 340 356 q 194 390 253 356 q 98 475 136 425 q 60 567 60 525 q 85 637 60 603 q 151 692 111 671 q 229 714 190 714 l 411 714 q 450 727 433 714 q 467 758 467 740 q 454 802 467 779 q 421 846 442 825 l -19 846 l -19 957 m 433 957 l 711 957 l 711 846 l 543 846 l 433 957 z "},"ई":{"ha":692,"x_min":-19,"x_max":788,"o":"m -19 957 l 369 957 l 479 846 q 531 767 513 807 q 550 692 550 726 q 526 640 550 661 q 469 618 503 618 l 292 615 q 224 599 257 615 q 172 558 192 583 q 151 508 151 533 q 181 454 151 478 q 249 431 210 431 q 295 441 272 431 q 353 474 318 451 q 403 503 383 493 q 443 513 424 513 q 535 481 490 513 q 607 399 579 449 q 635 304 635 350 q 597 204 635 253 q 491 120 558 156 q 340 71 424 85 q 475 -45 404 -4 q 607 -86 546 -86 q 656 -76 632 -86 q 699 -46 681 -65 l 788 -128 q 688 -167 754 -167 q 492 -107 594 -167 q 292 63 389 -47 q 182 81 232 63 q 102 130 132 99 q 72 197 72 161 q 94 240 72 222 q 144 258 117 258 q 290 172 208 258 q 409 202 346 172 q 515 276 472 232 q 558 363 558 321 q 539 415 558 393 q 494 436 519 436 q 470 428 485 436 q 447 415 456 421 q 433 407 438 410 q 369 369 399 383 q 308 356 340 356 q 194 390 253 356 q 98 475 136 425 q 60 567 60 525 q 85 637 60 603 q 151 692 111 671 q 229 714 190 714 l 411 714 q 450 727 433 714 q 467 758 467 740 q 454 802 467 779 q 421 846 442 825 l -19 846 l -19 957 m 433 957 l 711 957 l 711 846 l 543 846 l 433 957 m 199 1218 q 224 1302 199 1260 q 290 1372 250 1344 q 371 1400 331 1400 q 450 1371 407 1400 q 536 1289 493 1342 l 503 1260 q 438 1293 472 1293 q 378 1272 407 1293 q 332 1215 350 1250 q 314 1146 314 1181 q 342 1058 314 1103 q 426 957 369 1013 l 375 957 q 247 1094 294 1024 q 199 1218 199 1164 z "},"उ":{"ha":797,"x_min":-19,"x_max":817,"o":"m -19 957 l 463 957 l 569 846 q 640 740 617 796 q 664 636 664 683 q 644 563 664 596 q 593 513 624 529 q 689 385 656 451 q 722 256 722 319 q 695 162 722 206 q 622 92 668 118 q 519 65 575 65 q 335 128 428 65 q 162 303 242 190 q 29 563 82 417 l 68 578 q 240 281 140 393 q 456 168 340 168 q 547 190 504 168 q 615 249 589 211 q 640 332 640 286 q 619 411 640 369 q 560 492 599 453 q 464 471 511 471 q 404 478 418 471 q 314 597 347 524 q 433 586 363 586 q 540 620 494 586 q 586 704 586 654 q 562 781 586 743 q 497 846 538 819 l -19 846 l -19 957 m 526 957 l 817 957 l 817 846 l 633 846 l 526 957 z "},"ऊ":{"ha":1121,"x_min":-19,"x_max":1140,"o":"m -19 957 l 463 957 l 569 846 q 640 740 617 796 q 664 636 664 683 q 644 563 664 596 q 593 513 624 529 l 619 483 q 719 570 663 539 q 832 601 775 601 q 940 563 883 601 q 1033 464 996 524 q 1069 350 1069 404 q 1030 221 1069 279 q 928 143 990 163 l 851 233 q 953 309 914 256 q 992 428 992 363 q 968 488 992 463 q 914 513 944 513 q 790 481 849 513 q 686 393 731 449 q 722 256 722 318 q 695 162 722 206 q 622 92 668 118 q 519 65 575 65 q 335 128 428 65 q 162 303 242 190 q 29 563 82 417 l 68 578 q 240 281 140 393 q 456 168 340 168 q 547 190 504 168 q 615 249 589 211 q 640 332 640 286 q 619 411 640 369 q 560 492 599 453 q 464 471 511 471 q 404 478 418 471 q 314 597 347 524 q 433 586 363 586 q 540 620 494 586 q 586 704 586 654 q 562 781 586 743 q 497 846 538 819 l -19 846 l -19 957 m 526 957 l 1140 957 l 1140 846 l 633 846 l 526 957 z "},"ऋ":{"ha":1142,"x_min":-19,"x_max":1163,"o":"m 617 846 l 617 560 q 669 528 638 539 q 736 517 700 517 q 829 543 785 517 q 790 638 790 586 q 814 691 790 668 q 868 714 838 714 q 938 692 901 714 q 998 635 974 669 q 1022 572 1022 601 q 996 517 1022 546 q 929 469 969 488 q 1051 342 1013 394 q 1090 249 1090 289 q 1070 178 1090 211 q 1018 126 1050 146 q 951 107 986 107 q 847 135 901 107 q 743 214 793 164 l 772 246 q 824 208 796 222 q 878 193 851 193 q 957 226 924 193 q 990 306 990 260 q 962 367 990 329 q 885 446 933 404 q 804 436 851 436 q 617 504 706 436 l 617 154 q 662 83 617 124 q 767 12 707 42 q 869 -18 828 -18 q 942 24 911 -18 l 1043 -42 q 956 -85 1004 -85 q 767 -30 875 -85 q 580 101 658 25 q 501 231 501 176 l 501 390 q 263 229 406 294 l 156 321 q 483 528 363 386 q 392 615 439 583 q 310 646 344 646 q 201 620 257 646 q 99 547 146 594 l 21 650 q 122 716 64 693 q 244 739 179 739 q 369 696 303 739 q 501 572 435 653 l 501 846 l -19 846 l -19 957 l 504 957 l 617 846 m 1163 846 l 681 846 l 568 957 l 1163 957 l 1163 846 z "},"ॠ":{"ha":1179,"x_min":-19,"x_max":1197,"o":"m 617 846 l 617 565 q 736 521 661 521 q 829 547 781 521 q 790 642 790 594 q 813 696 790 674 q 868 718 835 718 q 938 694 901 718 q 998 635 974 671 q 1022 569 1022 600 q 1006 526 1022 550 q 958 481 989 503 q 1026 415 1001 449 q 1051 357 1051 382 q 1023 308 1051 325 q 940 272 994 290 q 873 245 896 258 q 850 211 850 232 q 874 174 850 190 q 935 158 899 158 q 1074 217 1006 158 l 1158 149 q 1075 101 1121 118 q 983 85 1029 85 q 879 112 933 85 q 788 180 825 139 q 751 257 751 221 q 788 321 751 300 q 888 358 825 342 q 947 377 929 369 q 964 399 964 385 q 947 428 964 410 q 910 461 931 447 q 806 442 858 442 q 617 508 707 442 l 617 154 q 660 83 617 125 q 765 12 704 42 q 869 -18 825 -18 q 942 24 908 -18 l 1043 -42 q 956 -85 1006 -85 q 769 -29 878 -85 q 581 102 661 26 q 501 229 501 178 l 501 390 q 263 229 406 294 l 156 321 q 483 528 363 386 q 390 615 436 583 q 310 646 344 646 q 201 620 256 646 q 99 547 146 594 l 21 650 q 121 716 63 693 q 244 739 179 739 q 369 694 301 739 q 501 572 436 650 l 501 846 l -19 846 l -19 957 l 504 957 l 617 846 m 1197 846 l 681 846 l 568 957 l 1197 957 l 1197 846 z "},"ऌ":{"ha":1108,"x_min":-19,"x_max":1147,"o":"m -19 957 l 703 957 l 807 846 l 807 681 q 977 559 913 642 q 1042 383 1042 476 q 1020 303 1042 338 q 968 244 999 268 q 886 190 938 221 q 789 120 821 150 q 757 44 757 90 q 798 -25 757 3 q 897 -53 839 -53 q 1065 28 989 -53 l 1147 -47 q 967 -122 1079 -122 q 828 -87 897 -122 q 714 2 758 -51 q 669 104 669 56 q 689 172 669 143 q 735 222 708 201 q 811 272 763 243 q 921 353 883 315 q 958 450 958 390 q 935 533 958 494 q 874 596 913 572 q 793 619 836 619 q 658 549 713 619 q 603 342 603 479 l 488 393 q 499 492 488 432 q 433 567 471 539 q 360 594 396 594 q 265 560 310 594 q 194 472 221 526 q 167 357 167 417 q 208 238 167 306 q 309 121 250 169 q 413 72 368 72 q 494 113 453 72 l 576 29 q 479 -10 538 -10 q 296 67 390 -10 q 138 253 201 143 q 75 454 75 364 q 107 564 75 510 q 188 652 139 618 q 289 686 238 686 q 408 648 349 686 q 518 542 467 610 q 595 649 549 607 q 692 693 642 690 l 692 846 l -19 846 l -19 957 m 767 957 l 1126 957 l 1126 846 l 871 846 l 767 957 z "},"ॡ":{"ha":1103,"x_min":-19,"x_max":1175,"o":"m 692 846 l 692 693 q 594 647 640 688 q 518 542 547 607 q 408 648 468 610 q 289 686 349 686 q 186 653 236 686 q 106 566 136 619 q 75 454 75 513 q 141 251 75 361 q 303 66 207 142 q 479 -10 399 -10 q 576 29 538 -10 l 501 113 q 413 72 461 72 q 308 120 367 72 q 208 236 250 168 q 167 357 167 304 q 194 473 167 418 q 265 561 221 528 q 360 594 310 594 q 433 567 396 594 q 499 492 471 539 q 488 393 488 432 l 603 342 q 656 547 603 474 q 794 619 708 619 q 913 575 864 619 q 961 468 961 531 q 923 383 961 418 q 810 306 885 349 q 706 235 740 267 q 671 161 671 204 q 710 88 671 121 q 808 50 749 54 q 772 19 786 36 q 758 -14 758 1 q 791 -77 758 -46 q 876 -128 824 -108 q 983 -147 928 -147 q 1088 -126 1039 -147 q 1175 -69 1138 -106 l 1097 -4 q 1013 -73 1058 -49 q 921 -97 967 -97 q 865 -84 888 -97 q 842 -49 842 -71 q 883 9 842 -19 q 975 50 924 38 l 925 121 q 821 83 863 83 q 785 92 799 83 q 771 118 771 101 q 801 181 771 156 q 896 243 832 207 q 1006 320 969 286 q 1043 404 1043 354 q 978 567 1043 492 q 807 681 914 642 l 807 846 l 703 957 l -19 957 l -19 846 l 692 846 m 1122 846 l 1122 957 l 767 957 l 871 846 l 1122 846 z "},"ऍ":{"ha":763,"x_min":-19,"x_max":1015,"o":"m -19 957 l 478 957 l 565 846 q 667 672 635 758 q 699 508 699 586 q 674 413 699 458 q 609 341 650 368 q 524 314 568 314 q 419 353 471 314 q 331 458 367 392 l 351 483 q 397 438 372 454 q 443 421 421 421 q 531 447 492 421 q 592 516 569 472 q 615 611 615 560 q 590 721 615 658 q 514 846 564 783 l 363 846 q 231 637 278 760 q 185 376 185 514 q 287 154 185 271 q 540 -40 389 38 q 824 -118 690 -118 q 881 -106 854 -118 q 926 -75 908 -94 l 1015 -158 q 917 -192 964 -192 q 356 28 633 -192 q 149 247 218 135 q 79 472 79 360 q 224 846 79 669 l -19 846 l -19 957 m 542 957 l 782 957 l 782 846 l 631 846 l 542 957 m 257 1325 q 348 1200 290 1247 q 472 1153 406 1153 q 610 1202 547 1153 q 704 1335 672 1251 l 794 1274 q 683 1117 761 1176 q 510 1057 604 1057 q 344 1125 424 1057 q 218 1306 264 1193 l 257 1325 z "},"ऎ":{"ha":763,"x_min":-147,"x_max":1015,"o":"m -19 957 l 478 957 l 565 846 q 667 672 635 758 q 699 508 699 586 q 674 413 699 458 q 609 341 650 368 q 524 314 568 314 q 419 353 471 314 q 331 458 367 392 l 351 483 q 397 438 372 454 q 443 421 421 421 q 531 447 492 421 q 592 516 569 472 q 615 611 615 560 q 590 721 615 658 q 514 846 564 783 l 363 846 q 231 637 278 760 q 185 376 185 514 q 287 154 185 271 q 540 -40 389 38 q 824 -118 690 -118 q 881 -106 854 -118 q 926 -75 908 -94 l 1015 -158 q 917 -192 964 -192 q 356 28 633 -192 q 149 247 218 135 q 79 472 79 360 q 224 846 79 669 l -19 846 l -19 957 m 542 957 l 782 957 l 782 846 l 631 846 l 542 957 m -104 1408 q -10 1300 -92 1342 q 185 1258 71 1258 q 361 1223 282 1258 q 486 1119 440 1188 q 532 957 532 1051 l 486 957 q 447 1052 486 1008 q 342 1122 408 1096 q 193 1147 275 1147 q 38 1176 111 1147 q -86 1265 -36 1206 q -147 1408 -136 1324 l -104 1408 z "},"ए":{"ha":763,"x_min":-19,"x_max":1015,"o":"m -19 957 l 478 957 l 565 846 q 667 672 635 758 q 699 508 699 586 q 674 413 699 458 q 609 341 650 368 q 524 314 568 314 q 419 353 471 314 q 331 458 367 392 l 351 483 q 397 438 372 454 q 443 421 421 421 q 531 447 492 421 q 592 516 569 472 q 615 611 615 560 q 590 721 615 658 q 514 846 564 783 l 363 846 q 231 637 278 760 q 185 376 185 514 q 287 154 185 271 q 540 -40 389 38 q 824 -118 690 -118 q 881 -106 854 -118 q 926 -75 908 -94 l 1015 -158 q 917 -192 964 -192 q 356 28 633 -192 q 149 247 218 135 q 79 472 79 360 q 224 846 79 669 l -19 846 l -19 957 m 542 957 l 782 957 l 782 846 l 631 846 l 542 957 z "},"ऐ":{"ha":763,"x_min":-114,"x_max":1015,"o":"m -19 957 l 478 957 l 565 846 q 667 672 635 758 q 699 508 699 586 q 674 413 699 458 q 609 341 650 368 q 524 314 568 314 q 419 353 471 314 q 331 458 367 392 l 351 483 q 397 438 372 454 q 443 421 421 421 q 531 447 492 421 q 592 516 569 472 q 615 611 615 560 q 590 721 615 658 q 514 846 564 783 l 363 846 q 231 637 278 760 q 185 376 185 514 q 287 154 185 271 q 540 -40 389 38 q 824 -118 690 -118 q 881 -106 854 -118 q 926 -75 908 -94 l 1015 -158 q 917 -192 964 -192 q 356 28 633 -192 q 149 247 218 135 q 79 472 79 360 q 224 846 79 669 l -19 846 l -19 957 m 542 957 l 782 957 l 782 846 l 631 846 l 542 957 m -82 1393 q -40 1340 -64 1360 q 4 1319 -17 1319 q 41 1326 24 1319 q 83 1343 58 1332 q 149 1364 125 1364 q 213 1338 176 1364 q 288 1264 249 1311 l 538 957 l 485 957 l 322 1144 q 203 1240 244 1240 q 138 1222 183 1240 q 75 1206 88 1206 q -13 1248 36 1206 q -114 1364 -62 1290 l -82 1393 z "},"ऑ":{"ha":1472,"x_min":39,"x_max":1758,"o":"m 1189 -18 q 1228 -8 1208 -18 q 1260 24 1247 3 l 1363 -42 q 1274 -85 1319 -85 q 1086 -30 1194 -85 q 899 101 978 25 q 821 231 821 176 l 821 472 q 767 461 790 461 q 588 550 683 461 l 576 538 q 665 392 633 464 q 696 260 696 321 q 669 147 696 199 q 594 66 642 96 q 490 36 547 36 q 319 93 406 36 q 160 253 233 150 q 39 489 86 356 l 85 508 q 240 242 144 344 q 435 139 336 139 q 525 166 485 139 q 588 239 565 193 q 611 338 611 285 q 547 507 611 419 q 472 457 510 475 q 404 439 435 439 q 327 463 368 439 q 258 524 286 488 q 231 594 231 560 q 274 672 231 638 q 371 707 318 707 q 440 686 404 707 q 507 626 475 665 q 546 687 532 650 q 560 761 560 724 q 522 854 560 815 q 432 893 485 893 q 315 861 374 893 q 210 775 257 829 l 124 861 q 231 945 165 915 q 368 975 297 975 q 504 936 439 975 q 610 836 569 897 q 650 714 650 775 q 613 585 650 644 q 658 555 631 565 q 713 544 685 544 q 772 557 743 544 q 821 596 801 569 l 821 846 l 689 846 l 592 957 l 829 957 l 935 846 l 935 154 q 980 83 935 124 q 1086 12 1025 42 q 1189 -18 1147 -18 m 1758 -42 q 1671 -85 1719 -85 q 1483 -29 1590 -85 q 1297 102 1375 26 q 1218 233 1218 178 l 1218 846 l 1097 846 l 999 846 l 892 957 l 1221 957 l 1332 846 l 1332 154 q 1376 83 1332 124 q 1481 12 1421 42 q 1583 -18 1542 -18 q 1623 -7 1603 -18 q 1657 24 1643 4 l 1758 -42 m 1394 846 l 1285 957 l 1493 957 l 1493 846 l 1394 846 m 343 515 q 403 535 367 515 q 481 593 439 556 q 417 629 451 629 q 350 601 386 629 q 314 547 314 572 q 322 526 314 536 q 343 515 331 515 m 1001 1325 q 1092 1200 1035 1247 q 1217 1153 1150 1153 q 1354 1202 1292 1153 q 1449 1335 1417 1251 l 1539 1274 q 1427 1117 1506 1176 q 1254 1057 1349 1057 q 1088 1125 1168 1057 q 963 1306 1008 1193 l 1001 1325 z "},"ऒ":{"ha":1472,"x_min":39,"x_max":1758,"o":"m 935 1147 q 779 1176 853 1147 q 656 1265 706 1206 q 594 1408 606 1324 l 638 1408 q 731 1300 650 1342 q 926 1258 813 1258 q 1103 1223 1024 1258 q 1228 1119 1182 1188 q 1274 957 1274 1051 l 1228 957 q 1189 1052 1228 1008 q 1083 1122 1150 1096 q 935 1147 1017 1147 m 1189 -18 q 1228 -8 1208 -18 q 1260 24 1247 3 l 1363 -42 q 1274 -85 1319 -85 q 1086 -30 1194 -85 q 899 101 978 25 q 821 231 821 176 l 821 472 q 767 461 790 461 q 588 550 683 461 l 576 538 q 665 392 633 464 q 696 260 696 321 q 669 147 696 199 q 594 66 642 96 q 490 36 547 36 q 319 93 406 36 q 160 253 233 150 q 39 489 86 356 l 85 508 q 240 242 144 344 q 435 139 336 139 q 525 166 485 139 q 588 239 565 193 q 611 338 611 285 q 547 507 611 419 q 472 457 510 475 q 404 439 435 439 q 327 463 368 439 q 258 524 286 488 q 231 594 231 560 q 274 672 231 638 q 371 707 318 707 q 440 686 404 707 q 507 626 475 665 q 546 687 532 650 q 560 761 560 724 q 522 854 560 815 q 432 893 485 893 q 315 861 374 893 q 210 775 257 829 l 124 861 q 231 945 165 915 q 368 975 297 975 q 504 936 439 975 q 610 836 569 897 q 650 714 650 775 q 613 585 650 644 q 658 555 631 565 q 713 544 685 544 q 772 557 743 544 q 821 596 801 569 l 821 846 l 689 846 l 592 957 l 829 957 l 935 846 l 935 154 q 980 83 935 124 q 1086 12 1025 42 q 1189 -18 1147 -18 m 1758 -42 q 1671 -85 1719 -85 q 1483 -29 1590 -85 q 1297 102 1375 26 q 1218 233 1218 178 l 1218 846 l 1097 846 l 999 846 l 892 957 l 1221 957 l 1332 846 l 1332 154 q 1376 83 1332 124 q 1481 12 1421 42 q 1583 -18 1542 -18 q 1623 -7 1603 -18 q 1657 24 1643 4 l 1758 -42 m 1394 846 l 1285 957 l 1493 957 l 1493 846 l 1394 846 m 343 515 q 403 535 367 515 q 481 593 439 556 q 417 629 451 629 q 350 601 386 629 q 314 547 314 572 q 322 526 314 536 q 343 515 331 515 z "},"ओ":{"ha":1472,"x_min":39,"x_max":1758,"o":"m 1189 -18 q 1228 -8 1208 -18 q 1260 24 1247 3 l 1363 -42 q 1274 -85 1319 -85 q 1086 -30 1194 -85 q 899 101 978 25 q 821 231 821 176 l 821 472 q 767 461 790 461 q 588 550 683 461 l 576 538 q 665 392 633 464 q 696 260 696 321 q 669 147 696 199 q 594 66 642 96 q 490 36 547 36 q 319 93 406 36 q 160 253 233 150 q 39 489 86 356 l 85 508 q 240 242 144 344 q 435 139 336 139 q 525 166 485 139 q 588 239 565 193 q 611 338 611 285 q 547 507 611 419 q 472 457 510 475 q 404 439 435 439 q 327 463 368 439 q 258 524 286 488 q 231 594 231 560 q 274 672 231 638 q 371 707 318 707 q 440 686 404 707 q 507 626 475 665 q 546 687 532 650 q 560 761 560 724 q 522 854 560 815 q 432 893 485 893 q 315 861 374 893 q 210 775 257 829 l 124 861 q 231 945 165 915 q 368 975 297 975 q 504 936 439 975 q 610 836 569 897 q 650 714 650 775 q 613 585 650 644 q 658 555 631 565 q 713 544 685 544 q 772 557 743 544 q 821 596 801 569 l 821 846 l 689 846 l 592 957 l 829 957 l 935 846 l 935 154 q 980 83 935 124 q 1086 12 1025 42 q 1189 -18 1147 -18 m 1758 -42 q 1671 -85 1719 -85 q 1483 -29 1590 -85 q 1297 102 1375 26 q 1218 233 1218 178 l 1218 846 l 1097 846 l 999 846 l 892 957 l 1221 957 l 1332 846 l 1332 154 q 1376 83 1332 124 q 1481 12 1421 42 q 1583 -18 1542 -18 q 1623 -7 1603 -18 q 1657 24 1643 4 l 1758 -42 m 1394 846 l 1285 957 l 1493 957 l 1493 846 l 1394 846 m 343 515 q 403 535 367 515 q 481 593 439 556 q 417 629 451 629 q 350 601 386 629 q 314 547 314 572 q 322 526 314 536 q 343 515 331 515 m 663 1393 q 704 1340 681 1360 q 749 1319 728 1319 q 785 1326 768 1319 q 828 1343 803 1332 q 893 1364 869 1364 q 957 1338 921 1364 q 1032 1264 993 1311 l 1282 957 l 1229 957 l 1067 1144 q 947 1240 989 1240 q 882 1222 928 1240 q 819 1206 832 1206 q 731 1248 781 1206 q 631 1364 682 1290 l 663 1393 z "},"औ":{"ha":1472,"x_min":39,"x_max":1758,"o":"m 1758 -42 q 1671 -85 1719 -85 q 1483 -29 1590 -85 q 1297 102 1375 26 q 1218 233 1218 178 l 1218 846 l 1097 846 l 999 846 l 892 957 l 1215 957 l 985 1118 q 875 1163 924 1163 q 847 1158 867 1163 q 819 1150 828 1153 q 761 1136 775 1136 q 685 1168 729 1136 q 594 1256 642 1200 l 622 1285 q 654 1256 635 1267 q 688 1244 674 1244 q 761 1261 703 1244 q 824 1276 810 1276 q 947 1214 863 1276 l 1235 992 l 1153 1199 q 1113 1269 1138 1240 q 1065 1297 1089 1297 q 1038 1294 1053 1297 q 1011 1290 1024 1292 q 956 1282 967 1282 q 875 1317 921 1282 q 789 1413 829 1353 l 824 1438 q 863 1407 838 1418 q 918 1396 889 1396 q 982 1404 932 1396 q 1043 1413 1032 1413 q 1116 1377 1081 1413 q 1174 1283 1151 1342 l 1294 957 l 1493 957 l 1493 846 l 1394 846 l 1285 957 l 1221 957 l 1332 846 l 1332 154 q 1376 83 1332 124 q 1481 12 1421 42 q 1583 -18 1542 -18 q 1623 -7 1603 -18 q 1657 24 1643 4 l 1758 -42 m 1189 -18 q 1228 -8 1208 -18 q 1260 24 1247 3 l 1363 -42 q 1274 -85 1319 -85 q 1086 -30 1194 -85 q 899 101 978 25 q 821 231 821 176 l 821 472 q 767 461 790 461 q 588 550 683 461 l 576 538 q 665 392 633 464 q 696 260 696 321 q 669 147 696 199 q 594 66 642 96 q 490 36 547 36 q 319 93 406 36 q 160 253 233 150 q 39 489 86 356 l 85 508 q 240 242 144 344 q 435 139 336 139 q 525 166 485 139 q 588 239 565 193 q 611 338 611 285 q 547 507 611 419 q 472 457 510 475 q 404 439 435 439 q 327 463 368 439 q 258 524 286 488 q 231 594 231 560 q 274 672 231 638 q 371 707 318 707 q 440 686 404 707 q 507 626 475 665 q 546 687 532 650 q 560 761 560 724 q 522 854 560 815 q 432 893 485 893 q 315 861 374 893 q 210 775 257 829 l 124 861 q 231 945 165 915 q 368 975 297 975 q 504 936 439 975 q 610 836 569 897 q 650 714 650 775 q 613 585 650 644 q 658 555 631 565 q 713 544 685 544 q 772 557 743 544 q 821 596 801 569 l 821 846 l 689 846 l 592 957 l 829 957 l 935 846 l 935 154 q 980 83 935 124 q 1086 12 1025 42 q 1189 -18 1147 -18 m 343 515 q 403 535 367 515 q 481 593 439 556 q 417 629 451 629 q 350 601 386 629 q 314 547 314 572 q 322 526 314 536 q 343 515 331 515 z "},"ॳ":{"ha":1076,"x_min":39,"x_max":1363,"o":"m 1363 -42 q 1274 -85 1319 -85 q 1086 -30 1194 -85 q 899 101 978 25 q 821 231 821 176 l 821 472 q 767 461 790 461 q 588 550 683 461 l 576 538 q 665 392 633 464 q 696 260 696 321 q 669 147 696 199 q 594 66 642 96 q 490 36 547 36 q 319 93 406 36 q 160 253 233 150 q 39 489 86 356 l 85 508 q 240 242 144 344 q 435 139 336 139 q 525 166 485 139 q 588 239 565 193 q 611 338 611 285 q 547 507 611 419 q 472 457 510 475 q 404 439 435 439 q 327 463 368 439 q 258 524 286 488 q 231 594 231 560 q 274 672 231 638 q 371 707 318 707 q 440 686 404 707 q 507 626 475 665 q 546 687 532 650 q 560 761 560 724 q 522 854 560 815 q 432 893 485 893 q 315 861 374 893 q 210 775 257 829 l 124 861 q 231 945 165 915 q 368 975 297 975 q 504 936 439 975 q 610 836 569 897 q 650 714 650 775 q 613 585 650 644 q 658 555 631 565 q 713 544 685 544 q 772 557 743 544 q 821 596 801 569 l 821 846 l 689 846 l 592 957 l 803 957 l 803 1317 l 917 1317 l 917 957 l 1097 957 l 1097 846 l 999 846 l 892 957 l 829 957 l 935 846 l 935 154 q 980 83 935 124 q 1086 12 1025 42 q 1189 -18 1147 -18 q 1228 -8 1208 -18 q 1260 24 1247 3 l 1363 -42 m 343 515 q 403 535 367 515 q 481 593 439 556 q 417 629 451 629 q 350 601 386 629 q 314 547 314 572 q 322 526 314 536 q 343 515 331 515 z "},"ॴ":{"ha":1472,"x_min":39,"x_max":1758,"o":"m 1758 -42 q 1671 -85 1719 -85 q 1483 -29 1590 -85 q 1297 102 1375 26 q 1218 233 1218 178 l 1218 846 l 1097 846 l 999 846 l 892 957 l 1197 957 l 1197 1317 l 1311 1317 l 1311 957 l 1493 957 l 1493 846 l 1394 846 l 1285 957 l 1221 957 l 1332 846 l 1332 154 q 1376 83 1332 124 q 1481 12 1421 42 q 1583 -18 1542 -18 q 1623 -7 1603 -18 q 1657 24 1643 4 l 1758 -42 m 1189 -18 q 1228 -8 1208 -18 q 1260 24 1247 3 l 1363 -42 q 1274 -85 1319 -85 q 1086 -30 1194 -85 q 899 101 978 25 q 821 231 821 176 l 821 472 q 767 461 790 461 q 588 550 683 461 l 576 538 q 665 392 633 464 q 696 260 696 321 q 669 147 696 199 q 594 66 642 96 q 490 36 547 36 q 319 93 406 36 q 160 253 233 150 q 39 489 86 356 l 85 508 q 240 242 144 344 q 435 139 336 139 q 525 166 485 139 q 588 239 565 193 q 611 338 611 285 q 547 507 611 419 q 472 457 510 475 q 404 439 435 439 q 327 463 368 439 q 258 524 286 488 q 231 594 231 560 q 274 672 231 638 q 371 707 318 707 q 440 686 404 707 q 507 626 475 665 q 546 687 532 650 q 560 761 560 724 q 522 854 560 815 q 432 893 485 893 q 315 861 374 893 q 210 775 257 829 l 124 861 q 231 945 165 915 q 368 975 297 975 q 504 936 439 975 q 610 836 569 897 q 650 714 650 775 q 613 585 650 644 q 658 555 631 565 q 713 544 685 544 q 772 557 743 544 q 821 596 801 569 l 821 846 l 689 846 l 592 957 l 829 957 l 935 846 l 935 154 q 980 83 935 124 q 1086 12 1025 42 q 1189 -18 1147 -18 m 343 515 q 403 535 367 515 q 481 593 439 556 q 417 629 451 629 q 350 601 386 629 q 314 547 314 572 q 322 526 314 536 q 343 515 331 515 z "},"ॶ":{"ha":1076,"x_min":39,"x_max":1363,"o":"m 85 508 q 240 242 144 344 q 435 139 336 139 q 525 166 485 139 q 588 239 565 193 q 611 338 611 285 q 547 507 611 419 q 472 457 510 475 q 404 439 435 439 q 327 463 368 439 q 258 524 286 488 q 231 594 231 560 q 274 672 231 638 q 371 707 318 707 q 440 686 404 707 q 507 626 475 665 q 546 687 532 650 q 560 761 560 724 q 522 854 560 815 q 432 893 485 893 q 315 861 374 893 q 210 775 257 829 l 124 861 q 231 945 165 915 q 368 975 297 975 q 504 936 439 975 q 610 836 569 897 q 650 714 650 775 q 613 585 650 644 q 658 555 631 565 q 713 544 685 544 q 772 557 743 544 q 821 596 801 569 l 821 846 l 689 846 l 592 957 l 829 957 l 935 846 l 935 154 q 980 83 935 124 q 1086 12 1025 42 q 1189 -18 1147 -18 q 1228 -8 1208 -18 q 1260 24 1247 3 l 1363 -42 q 1274 -85 1319 -85 q 1086 -30 1194 -85 q 899 101 978 25 q 821 231 821 176 l 821 472 q 767 461 790 461 q 588 550 683 461 l 576 538 q 665 392 633 464 q 696 260 696 321 q 669 147 696 199 q 594 66 642 96 q 490 36 547 36 q 319 93 406 36 q 160 253 233 150 q 39 489 86 356 l 85 508 m 892 957 l 1097 957 l 1097 846 l 999 846 l 892 957 m 343 515 q 403 535 367 515 q 481 593 439 556 q 417 629 451 629 q 350 601 386 629 q 314 547 314 572 q 322 526 314 536 q 343 515 331 515 m 328 -147 q 432 -240 369 -207 q 568 -272 494 -272 q 734 -236 657 -272 q 857 -136 811 -200 l 963 -200 q 831 -312 917 -271 q 644 -353 746 -353 q 453 -306 547 -353 q 296 -175 360 -258 l 328 -147 z "},"ॷ":{"ha":1076,"x_min":39,"x_max":1363,"o":"m 85 508 q 240 242 144 344 q 435 139 336 139 q 525 166 485 139 q 588 239 565 193 q 611 338 611 285 q 547 507 611 419 q 472 457 510 475 q 404 439 435 439 q 327 463 368 439 q 258 524 286 488 q 231 594 231 560 q 274 672 231 638 q 371 707 318 707 q 440 686 404 707 q 507 626 475 665 q 546 687 532 650 q 560 761 560 724 q 522 854 560 815 q 432 893 485 893 q 315 861 374 893 q 210 775 257 829 l 124 861 q 231 945 165 915 q 368 975 297 975 q 504 936 439 975 q 610 836 569 897 q 650 714 650 775 q 613 585 650 644 q 658 555 631 565 q 713 544 685 544 q 772 557 743 544 q 821 596 801 569 l 821 846 l 689 846 l 592 957 l 829 957 l 935 846 l 935 154 q 980 83 935 124 q 1086 12 1025 42 q 1189 -18 1147 -18 q 1228 -8 1208 -18 q 1260 24 1247 3 l 1363 -42 q 1274 -85 1319 -85 q 1086 -30 1194 -85 q 899 101 978 25 q 821 231 821 176 l 821 472 q 767 461 790 461 q 588 550 683 461 l 576 538 q 665 392 633 464 q 696 260 696 321 q 669 147 696 199 q 594 66 642 96 q 490 36 547 36 q 319 93 406 36 q 160 253 233 150 q 39 489 86 356 l 85 508 m 892 957 l 1097 957 l 1097 846 l 999 846 l 892 957 m 343 515 q 403 535 367 515 q 481 593 439 556 q 417 629 451 629 q 350 601 386 629 q 314 547 314 572 q 322 526 314 536 q 343 515 331 515 m 335 -144 q 447 -228 379 -199 q 593 -258 514 -258 q 747 -222 675 -258 q 856 -125 818 -186 l 969 -182 q 846 -287 935 -247 q 644 -328 757 -328 q 458 -284 547 -328 q 304 -164 369 -240 l 335 -144 m 647 -517 q 460 -475 547 -517 q 308 -357 372 -433 l 339 -337 q 448 -419 381 -390 q 596 -447 515 -447 q 753 -415 681 -447 q 861 -325 825 -383 l 972 -382 q 851 -480 939 -443 q 647 -517 764 -517 z "},"ा":{"ha":397,"x_min":-19,"x_max":682,"o":"m -19 957 l 144 957 l 256 846 l 256 154 q 300 83 256 124 q 405 12 344 42 q 507 -18 465 -18 q 547 -7 526 -18 q 581 24 567 4 l 682 -42 q 594 -85 643 -85 q 406 -29 514 -85 q 220 102 299 26 q 142 233 142 178 l 142 846 l -19 846 l -19 957 m 208 957 l 417 957 l 417 846 l 318 846 l 208 957 z "},"ि":{"ha":397,"x_min":-19,"x_max":968,"o":"m 10 1200 q 40 1295 10 1250 q 124 1367 71 1340 q 242 1394 176 1394 q 426 1358 342 1394 q 572 1272 511 1321 q 701 1151 632 1222 q 778 1080 751 1101 q 828 1058 806 1058 q 862 1070 844 1058 q 892 1101 879 1082 l 968 1028 q 917 983 944 1000 q 865 967 889 967 q 789 997 826 967 q 693 1089 751 1026 q 585 1195 632 1154 q 474 1266 538 1236 q 336 1296 411 1296 q 171 1247 229 1296 q 113 1126 113 1197 q 134 1041 113 1085 q 199 957 156 997 l 153 957 q 48 1074 86 1010 q 10 1200 10 1138 m -19 957 l 144 957 l 256 846 l 256 154 q 300 83 256 124 q 405 12 344 42 q 507 -18 465 -18 q 547 -7 526 -18 q 581 24 567 4 l 682 -42 q 594 -85 643 -85 q 406 -29 514 -85 q 220 102 299 26 q 142 233 142 178 l 142 846 l -19 846 l -19 957 m 208 957 l 417 957 l 417 846 l 318 846 l 208 957 z "},"ी":{"ha":397,"x_min":-390,"x_max":682,"o":"m -390 1176 q -361 1260 -390 1219 q -285 1327 -332 1301 q -187 1353 -237 1353 q -73 1322 -122 1353 q 9 1250 -24 1292 q 79 1147 42 1208 q 125 1079 108 1100 q 160 1058 142 1058 q 182 1067 172 1058 q 207 1096 192 1076 l 274 1015 q 229 979 254 992 q 179 967 204 967 q 122 997 147 967 q 57 1092 96 1026 q -28 1213 10 1171 q -122 1254 -67 1254 q -200 1234 -161 1254 q -264 1181 -239 1214 q -289 1113 -289 1149 q -207 992 -289 1065 l -242 967 q -351 1073 -311 1019 q -390 1176 -390 1126 m -19 957 l 144 957 l 256 846 l 256 154 q 300 83 256 124 q 405 12 344 42 q 507 -18 465 -18 q 547 -7 526 -18 q 581 24 567 4 l 682 -42 q 594 -85 643 -85 q 406 -29 514 -85 q 220 102 299 26 q 142 233 142 178 l 142 846 l -19 846 l -19 957 m 208 957 l 417 957 l 417 846 l 318 846 l 208 957 z "},"ॉ":{"ha":397,"x_min":-117,"x_max":682,"o":"m -19 957 l 144 957 l 256 846 l 256 154 q 300 83 256 124 q 405 12 344 42 q 507 -18 465 -18 q 547 -7 526 -18 q 581 24 567 4 l 682 -42 q 594 -85 643 -85 q 406 -29 514 -85 q 220 102 299 26 q 142 233 142 178 l 142 846 l -19 846 l -19 957 m 208 957 l 417 957 l 417 846 l 318 846 l 208 957 m -78 1325 q 13 1200 -44 1247 q 138 1153 71 1153 q 275 1202 213 1153 q 369 1335 338 1251 l 460 1274 q 348 1117 426 1176 q 175 1057 269 1057 q 9 1125 89 1057 q -117 1306 -71 1193 l -78 1325 z "},"ॊ":{"ha":397,"x_min":-482,"x_max":682,"o":"m -19 957 l 144 957 l 256 846 l 256 154 q 300 83 256 124 q 405 12 344 42 q 507 -18 465 -18 q 547 -7 526 -18 q 581 24 567 4 l 682 -42 q 594 -85 643 -85 q 406 -29 514 -85 q 220 102 299 26 q 142 233 142 178 l 142 846 l -19 846 l -19 957 m 208 957 l 417 957 l 417 846 l 318 846 l 208 957 m -439 1408 q -345 1300 -426 1342 q -150 1258 -264 1258 q 26 1223 -53 1258 q 151 1119 106 1188 q 197 957 197 1051 l 151 957 q 113 1052 151 1008 q 7 1122 74 1096 q -142 1147 -60 1147 q -297 1176 -224 1147 q -421 1265 -371 1206 q -482 1408 -471 1324 l -439 1408 z "},"ो":{"ha":397,"x_min":-449,"x_max":682,"o":"m -19 957 l 144 957 l 256 846 l 256 154 q 300 83 256 124 q 405 12 344 42 q 507 -18 465 -18 q 547 -7 526 -18 q 581 24 567 4 l 682 -42 q 594 -85 643 -85 q 406 -29 514 -85 q 220 102 299 26 q 142 233 142 178 l 142 846 l -19 846 l -19 957 m 208 957 l 417 957 l 417 846 l 318 846 l 208 957 m -417 1393 q -375 1340 -399 1360 q -331 1319 -351 1319 q -294 1326 -311 1319 q -251 1343 -276 1332 q -186 1364 -210 1364 q -122 1338 -158 1364 q -47 1264 -86 1311 l 203 957 l 150 957 l -12 1144 q -132 1240 -90 1240 q -197 1222 -151 1240 q -260 1206 -247 1206 q -348 1248 -299 1206 q -449 1364 -397 1290 l -417 1393 z "},"ौ":{"ha":397,"x_min":-485,"x_max":682,"o":"m -19 957 l 144 957 l 256 846 l 256 154 q 300 83 256 124 q 405 12 344 42 q 507 -18 465 -18 q 547 -7 526 -18 q 581 24 567 4 l 682 -42 q 594 -85 643 -85 q 406 -29 514 -85 q 220 102 299 26 q 142 233 142 178 l 142 846 l -19 846 l -19 957 m 208 957 l 417 957 l 417 846 l 318 846 l 208 957 m -457 1285 q -425 1256 -444 1267 q -392 1244 -406 1244 q -321 1261 -376 1244 q -256 1276 -269 1276 q -132 1214 -217 1276 l 156 992 l 74 1199 q 34 1269 58 1242 q -15 1297 10 1297 q -41 1294 -26 1297 q -68 1290 -56 1292 q -124 1282 -112 1282 q -204 1317 -158 1282 q -290 1413 -250 1353 l -256 1438 q -216 1407 -242 1418 q -161 1396 -190 1396 q -97 1404 -147 1396 q -36 1413 -47 1413 q 37 1377 1 1413 q 94 1283 72 1342 l 215 957 l 136 957 l -94 1118 q -206 1163 -158 1163 q -258 1150 -221 1163 q -318 1136 -306 1136 q -394 1168 -350 1136 q -485 1256 -437 1200 l -457 1285 z "},"ऻ":{"ha":397,"x_min":-19,"x_max":682,"o":"m -19 957 l 144 957 l 256 846 l 256 154 q 300 83 256 124 q 405 12 344 42 q 507 -18 465 -18 q 547 -7 526 -18 q 581 24 567 4 l 682 -42 q 594 -85 643 -85 q 406 -29 514 -85 q 220 102 299 26 q 142 233 142 178 l 142 846 l -19 846 l -19 957 m 208 957 l 417 957 l 417 846 l 318 846 l 208 957 m 140 1317 l 256 1317 l 256 957 l 140 957 l 140 1317 z "},"क":{"ha":1019,"x_min":-19,"x_max":1038,"o":"m 582 846 l 582 618 q 743 715 669 715 q 847 677 793 715 q 935 582 900 639 q 969 472 969 525 q 938 379 969 425 q 853 301 906 333 q 747 263 801 268 l 682 353 q 824 423 767 367 q 881 549 881 479 q 859 603 881 579 q 808 628 838 628 q 699 584 757 628 q 582 463 640 540 l 582 154 q 627 83 582 124 q 733 12 672 42 q 836 -18 794 -18 q 907 24 868 -18 l 1010 -42 q 922 -85 969 -85 q 733 -30 842 -85 q 546 101 625 25 q 467 231 467 176 l 467 375 q 308 300 392 300 q 183 336 244 300 q 83 428 122 372 q 44 540 44 485 q 76 627 44 585 q 158 696 108 669 q 260 722 208 722 l 335 722 q 432 642 365 722 l 421 617 q 357 639 382 639 q 249 615 301 639 q 165 553 197 592 q 133 471 133 514 q 163 413 133 438 q 235 388 193 388 q 357 422 296 388 q 467 518 418 456 l 467 846 l -19 846 l -19 957 l 478 957 l 582 846 m 1038 846 l 647 846 l 542 957 l 1038 957 l 1038 846 z "},"ख":{"ha":1269,"x_min":-19,"x_max":1554,"o":"m 1126 846 l 1126 154 q 1172 83 1126 124 q 1278 12 1217 42 q 1381 -18 1339 -18 q 1453 24 1411 -18 l 1554 -42 q 1460 -85 1513 -85 q 1261 -24 1371 -85 q 1047 144 1151 36 q 908 35 983 74 q 757 -4 832 -4 q 324 213 589 -4 q 119 411 189 322 q 50 565 50 500 q 85 637 50 607 q 168 667 119 667 q 249 628 206 667 q 333 526 293 590 q 385 589 367 551 q 404 671 404 626 q 350 846 404 753 l -19 846 l -19 957 l 299 957 l 394 846 q 456 721 438 790 q 475 579 475 651 q 413 436 475 503 q 251 335 350 369 q 489 142 375 210 q 688 74 603 74 q 858 122 771 74 q 1013 256 946 171 l 1013 371 q 928 303 976 326 q 828 279 879 279 q 715 314 775 279 q 616 400 656 349 q 576 497 576 451 q 606 583 576 543 q 685 646 635 622 q 793 669 735 669 q 910 641 851 669 q 1013 563 968 613 l 1013 846 l 460 846 l 363 957 l 1015 957 l 1126 846 m 1288 846 l 1192 846 l 1081 957 l 1288 957 l 1288 846 m 871 589 q 775 566 822 589 q 698 507 728 543 q 668 433 668 471 q 696 385 668 404 q 760 365 724 365 q 899 404 832 365 q 1010 510 965 443 q 947 568 983 547 q 871 589 910 589 m 222 578 q 163 555 190 578 q 136 501 136 532 q 178 425 136 463 q 301 501 251 447 q 261 558 282 539 q 222 578 240 578 z "},"ग":{"ha":957,"x_min":-19,"x_max":1243,"o":"m -19 957 l 706 957 l 817 846 l 817 154 q 862 83 817 124 q 967 12 907 42 q 1069 -18 1028 -18 q 1142 24 1103 -18 l 1243 -42 q 1156 -85 1204 -85 q 969 -30 1076 -85 q 782 101 861 25 q 703 233 703 176 l 703 846 l 344 846 q 460 485 460 647 q 435 392 460 438 q 372 317 411 346 q 290 288 333 288 q 170 313 226 288 q 80 381 114 339 q 46 467 46 422 q 86 555 46 515 q 174 594 126 594 q 251 574 213 594 q 314 519 289 554 l 293 497 q 267 517 281 510 q 246 524 254 524 q 201 506 225 524 q 160 460 176 488 q 144 410 144 433 q 161 372 144 388 q 200 356 178 356 q 289 388 247 356 q 355 475 331 421 q 379 590 379 529 q 290 846 379 689 l -19 846 l -19 957 m 769 957 l 978 957 l 978 846 l 879 846 l 769 957 z "}}}
